{
.appVersion = "3099";
classes = (
{
automatic = 1;
code = "A Aacute Abreve Acaron Acircumflex Adieresis Agrave Amacron Aogonek Aring Aringacute Atilde AE B C Cacute Ccaron Ccedilla Cdotaccent D Eth Dcaron Dcroat E Eacute Ecaron Ecircumflex Edieresis Edotaccent Egrave Emacron Eogonek F Fhook G Gbreve Gcommaaccent Gdotaccent H Hbar I Iacute Icaron Icircumflex Idieresis Idotaccent Igrave Imacron Iogonek J K Kcommaaccent L Lacute Lcaron Lcommaaccent Ldot Lslash M N Nacute Ncaron Ncommaaccent Ntilde Eng O Oacute Ocaron Ocircumflex Odieresis Ograve Ohungarumlaut Omacron Oslash Otilde OE P Thorn Q R Racute Rcaron Rcommaaccent S Sacute Scaron Scedilla Scommaaccent T Tbar Tcaron Tcedilla Tcommaaccent U Uacute Ucaron Ucircumflex Udieresis Udieresisacute Udieresiscaron Udieresisgrave Udieresismacron Ugrave Uhungarumlaut Umacron Uogonek Uring Utilde V W Wacute Wcircumflex Wdieresis Wgrave X Y Yacute Ycircumflex Ydieresis Ygrave Ytilde Z Zacute Zcaron Zdotaccent";
name = Uppercase;
}
);
copyright = "Copyright 2018 The Baskervville Project Authors (https://github.com/anrt-type/ANRT-Baskervville)";
customParameters = (
{
name = fsType;
value = (
);
},
{
name = "Use Typo Metrics";
value = 1;
},
{
name = "Disable Last Change";
value = 1;
},
{
name = "Use Line Breaks";
value = 1;
},
{
name = panose;
value = (
0,
0,
0,
0,
0,
0,
0,
0,
0,
0
);
},
{
name = license;
value = "This Font Software is licensed under the SIL Open Font License, Version 1.1. This license is available with a FAQ at: https://scripts.sil.org/OFL";
},
{
name = licenseURL;
value = "https://scripts.sil.org/OFL";
}
);
date = "2018-11-04 19:35:33 +0000";
designer = ANRT;
designerURL = "https://anrt-nancy.fr";
familyName = Baskervville;
featurePrefixes = (
{
automatic = 1;
code = "languagesystem DFLT dflt;

languagesystem latn dflt;
languagesystem latn AZE;
languagesystem latn CRT;
languagesystem latn KAZ;
languagesystem latn TAT;
languagesystem latn TRK;
languagesystem latn ROM;
languagesystem latn MOL;

glyphs = (
{
color = 6;
glyphname = A;
layers = (
{
anchors = (
{
name = bottom;
position = "{241, 0}";
},
{
name = ogonek;
position = "{500, 0}";
},
{
name = top;
position = "{514, 710}";
}
);
guideLines = (
{
angle = 90;
position = "{530, 363}";
}
);
layerId = "9372F035-DA38-4B54-966C-CEBA9B53DD02";
paths = (
{
closed = 1;
nodes = (
"53 0 LINE",
"171 -3 LINE",
"179 22 LINE",
"160 24 LINE SMOOTH",
"117 28 OFFCURVE",
"95 39 OFFCURVE",
"95 60 CURVE SMOOTH",
"95 73 OFFCURVE",
"102 89 OFFCURVE",
"117 111 CURVE SMOOTH",
"496 659 LINE",
"448 621 LINE",
"448 116 LINE SMOOTH",
"448 44 OFFCURVE",
"414 30 OFFCURVE",
"355 24 CURVE SMOOTH",
"334 22 LINE",
"326 -3 LINE",
"471 0 LINE",
"616 -3 LINE",
"624 22 LINE",
"605 24 LINE SMOOTH",
"533 32 OFFCURVE",
"530 59 OFFCURVE",
"530 114 CURVE SMOOTH",
"530 710 LINE",
"508 724 LINE",
"84 112 LINE SMOOTH",
"56 71 OFFCURVE",
"28 31 OFFCURVE",
"-41 24 CURVE SMOOTH",
"-62 22 LINE",
"-70 -3 LINE"
);
},
{
closed = 1;
nodes = (
"467 258 LINE",
"479 284 LINE",
"219 284 LINE",
"200 258 LINE"
);
}
);
width = 662;
}
);
leftKerningGroup = A;
rightKerningGroup = A;
unicode = 0041;
},
{
color = 6;
glyphname = AE;
layers = (
{
layerId = "9372F035-DA38-4B54-966C-CEBA9B53DD02";
paths = (
{
closed = 1;
nodes = (
"52 0 LINE",
"170 -3 LINE",
"179 22 LINE",
"160 24 LINE SMOOTH",
"117 28 OFFCURVE",
"94 38 OFFCURVE",
"94 61 CURVE SMOOTH",
"94 73 OFFCURVE",
"101 89 OFFCURVE",
"116 111 CURVE SMOOTH",
"483 649 LINE",
"472 657 LINE",
"465 116 LINE SMOOTH",
"464 44 OFFCURVE",
"429 30 OFFCURVE",
"369 24 CURVE SMOOTH",
"348 22 LINE",
"339 -3 LINE",
"484 0 LINE",
"621 25 LINE",
"547 25 OFFCURVE",
"548 59 OFFCURVE",
"548 114 CURVE SMOOTH",
"548 710 LINE",
"494 710 LINE",
"80 112 LINE SMOOTH",
"50 69 OFFCURVE",
"31 31 OFFCURVE",
"-41 24 CURVE SMOOTH",
"-62 22 LINE",
"-71 -3 LINE"
);
},
{
closed = 1;
nodes = (
"481 258 LINE",
"494 284 LINE",
"217 284 LINE",
"204 258 LINE"
);
},
{
closed = 1;
nodes = (
"851 0 LINE",
"875 74 LINE",
"925 210 LINE",
"899 210 LINE",
"847 90 OFFCURVE",
"798 25 OFFCURVE",
"682 25 CURVE SMOOTH",
"494 25 LINE",
"484 0 LINE"
);
},
{
closed = 1;
nodes = (
"675 362 LINE",
"684 388 LINE",
"508 388 LINE",
"499 362 LINE"
);
},
{
closed = 1;
nodes = (
"680 226 LINE",
"729 371 LINE",
"780 508 LINE",
"754 508 LINE",
"711 399 OFFCURVE",
"685 388 OFFCURVE",
"641 388 CURVE",
"632 362 LINE",
"658 362 OFFCURVE",
"675 349 OFFCURVE",
"675 316 CURVE SMOOTH",
"675 295 OFFCURVE",
"668 265 OFFCURVE",
"654 226 CURVE"
);
},
{
closed = 1;
nodes = (
"920 526 LINE",
"921 649 LINE",
"923 709 LINE",
"523 710 LINE",
"536 685 LINE",
"770 685 LINE SMOOTH",
"866 685 OFFCURVE",
"894 615 OFFCURVE",
"894 526 CURVE"
);
}
);
width = 944;
}
);
leftKerningGroup = A;
leftMetricsKey = A;
rightKerningGroup = E;
rightMetricsKey = E;
unicode = 00C6;
},
{
color = 6;
glyphname = B;
layers = (
{
anchors = (
{
name = bottom;
position = "{253, 0}";
},
{
name = top;
position = "{487, 710}";
}
);
layerId = "9372F035-DA38-4B54-966C-CEBA9B53DD02";
paths = (
{
closed = 1;
nodes = (
"126 0 LINE",
"277 0 LINE SMOOTH",
"402 0 OFFCURVE",
"501 31 OFFCURVE",
"560 90 CURVE SMOOTH",
"596 126 OFFCURVE",
"618 170 OFFCURVE",
"618 223 CURVE SMOOTH",
"618 319 OFFCURVE",
"545 372 OFFCURVE",
"426 385 CURVE",
"432 376 LINE",
"500 384 OFFCURVE",
"568 408 OFFCURVE",
"612 451 CURVE SMOOTH",
"641 480 OFFCURVE",
"662 518 OFFCURVE",
"661 566 CURVE SMOOTH",
"657 676 OFFCURVE",
"557 713 OFFCURVE",
"418 711 CURVE SMOOTH",
"356 710 LINE",
"211 713 LINE",
"203 688 LINE",
"222 686 LINE SMOOTH",
"276 681 OFFCURVE",
"296 673 OFFCURVE",
"296 649 CURVE SMOOTH",
"296 640 OFFCURVE",
"293 630 OFFCURVE",
"289 616 CURVE SMOOTH",
"126 124 LINE SMOOTH",
"104 59 OFFCURVE",
"79 30 OFFCURVE",
"6 24 CURVE SMOOTH",
"-15 22 LINE",
"-23 -3 LINE"
);
},
{
closed = 1;
nodes = (
"219 26 OFFCURVE",
"192 37 OFFCURVE",
"192 72 CURVE SMOOTH",
"192 81 OFFCURVE",
"195 97 OFFCURVE",
"198 106 CURVE SMOOTH",
"389 685 LINE",
"398 685 LINE SMOOTH",
"508 687 OFFCURVE",
"574 653 OFFCURVE",
"576 572 CURVE SMOOTH",
"580 465 OFFCURVE",
"502 397 OFFCURVE",
"386 397 CURVE SMOOTH",
"287 397 LINE",
"279 372 LINE",
"375 372 LINE SMOOTH",
"475 372 OFFCURVE",
"534 337 OFFCURVE",
"534 235 CURVE SMOOTH",
"534 112 OFFCURVE",
"421 26 OFFCURVE",
"269 26 CURVE SMOOTH"
);
}
);
width = 665;
}
);
leftKerningGroup = I;
leftMetricsKey = I;
rightKerningGroup = B;
unicode = 0042;
},
{
color = 6;
glyphname = C;
layers = (
{
anchors = (
{
name = bottom;
position = "{350, 0}";
},
{
name = top;
position = "{524, 710}";
}
);
guideLines = (
{
angle = 70;
position = "{688, 240}";
}
);
layerId = "9372F035-DA38-4B54-966C-CEBA9B53DD02";
paths = (
{
closed = 1;
nodes = (
"442 -11 OFFCURVE",
"508 44 OFFCURVE",
"528 44 CURVE SMOOTH",
"539 44 OFFCURVE",
"542 35 OFFCURVE",
"542 23 CURVE SMOOTH",
"542 16 OFFCURVE",
"541 8 OFFCURVE",
"540 0 CURVE",
"566 0 LINE",
"594 106 LINE",
"644 247 LINE",
"618 247 LINE",
"569 127 OFFCURVE",
"444 20 OFFCURVE",
"340 20 CURVE SMOOTH",
"233 20 OFFCURVE",
"174 110 OFFCURVE",
"174 249 CURVE SMOOTH",
"174 474 OFFCURVE",
"350 694 OFFCURVE",
"526 694 CURVE SMOOTH",
"613 694 OFFCURVE",
"673 640 OFFCURVE",
"673 535 CURVE SMOOTH",
"673 519 OFFCURVE",
"672 503 OFFCURVE",
"669 485 CURVE",
"695 485 LINE",
"730 594 LINE",
"768 697 LINE",
"742 697 LINE",
"732 683 OFFCURVE",
"716 663 OFFCURVE",
"705 663 CURVE SMOOTH",
"679 663 OFFCURVE",
"635 724 OFFCURVE",
"518 724 CURVE SMOOTH",
"274 724 OFFCURVE",
"85 468 OFFCURVE",
"85 228 CURVE SMOOTH",
"85 59 OFFCURVE",
"203 -11 OFFCURVE",
"325 -11 CURVE SMOOTH"
);
}
);
width = 700;
}
);
leftKerningGroup = O;
leftMetricsKey = O;
rightKerningGroup = C;
unicode = 0043;
},
{
color = 6;
glyphname = D;
layers = (
{
anchors = (
{
name = bottom;
position = "{302, 0}";
},
{
name = center;
position = "{232, 355}";
},
{
name = top;
position = "{460, 710}";
}
);
guideLines = (
{
angle = 270;
position = "{2938, 356}";
}
);
layerId = "9372F035-DA38-4B54-966C-CEBA9B53DD02";
paths = (
{
closed = 1;
nodes = (
"100 0 LINE",
"285 0 LINE SMOOTH",
"454 0 OFFCURVE",
"610 72 OFFCURVE",
"704 190 CURVE SMOOTH",
"762 262 OFFCURVE",
"796 353 OFFCURVE",
"796 450 CURVE SMOOTH",
"796 623 OFFCURVE",
"654 721 OFFCURVE",
"441 713 CURVE SMOOTH",
"359 710 LINE",
"358 710 LINE",
"211 713 LINE",
"202 688 LINE",
"221 686 LINE SMOOTH",
"274 681 OFFCURVE",
"293 673 OFFCURVE",
"293 651 CURVE SMOOTH",
"293 643 OFFCURVE",
"290 631 OFFCURVE",
"285 617 CURVE SMOOTH",
"93 88 LINE SMOOTH",
"76 41 OFFCURVE",
"58 31 OFFCURVE",
"-19 24 CURVE SMOOTH",
"-40 22 LINE",
"-49 -3 LINE"
);
},
{
closed = 1;
nodes = (
"223 26 OFFCURVE",
"177 25 OFFCURVE",
"177 77 CURVE SMOOTH",
"177 91 OFFCURVE",
"181 110 OFFCURVE",
"189 133 CURVE SMOOTH",
"389 683 LINE",
"424 684 LINE SMOOTH",
"636 689 OFFCURVE",
"706 588 OFFCURVE",
"706 453 CURVE SMOOTH",
"706 237 OFFCURVE",
"531 26 OFFCURVE",
"286 26 CURVE SMOOTH",
"252 26 LINE SMOOTH"
);
}
);
width = 789;
}
);
leftKerningGroup = I;
leftMetricsKey = I;
rightKerningGroup = O;
rightMetricsKey = O;
unicode = 0044;
},
{
color = 6;
glyphname = E;
layers = (
{
anchors = (
{
name = bottom;
position = "{269, 0}";
},
{
name = ogonek;
position = "{533, 0}";
},
{
name = top;
position = "{503, 710}";
},
{
name = topleft;
position = "{185, 710}";
}
);
layerId = "9372F035-DA38-4B54-966C-CEBA9B53DD02";
paths = (
{
closed = 1;
nodes = (
"126 0 LINE",
"602 0 LINE",
"624 74 LINE",
"669 210 LINE",
"643 210 LINE",
"595 90 OFFCURVE",
"548 26 OFFCURVE",
"433 25 CURVE SMOOTH",
"295 24 LINE SMOOTH",
"235 23 OFFCURVE",
"204 42 OFFCURVE",
"204 89 CURVE SMOOTH",
"204 108 OFFCURVE",
"210 135 OFFCURVE",
"220 165 CURVE SMOOTH",
"391 685 LINE",
"542 685 LINE SMOOTH",
"638 685 OFFCURVE",
"669 616 OFFCURVE",
"672 527 CURVE",
"698 527 LINE",
"695 650 LINE",
"695 710 LINE",
"358 710 LINE",
"211 713 LINE",
"203 688 LINE",
"222 686 LINE SMOOTH",
"276 681 OFFCURVE",
"295 673 OFFCURVE",
"295 650 CURVE SMOOTH",
"295 642 OFFCURVE",
"292 631 OFFCURVE",
"288 617 CURVE SMOOTH",
"113 81 LINE SMOOTH",
"100 40 OFFCURVE",
"78 30 OFFCURVE",
"6 24 CURVE SMOOTH",
"-15 22 LINE",
"-23 -3 LINE"
);
},
{
closed = 1;
nodes = (
"479 226 LINE",
"522 371 LINE",
"569 508 LINE",
"543 508 LINE",
"503 399 OFFCURVE",
"477 388 OFFCURVE",
"434 388 CURVE SMOOTH",
"261 388 LINE",
"253 362 LINE",
"426 362 LINE SMOOTH",
"453 362 OFFCURVE",
"470 348 OFFCURVE",
"470 312 CURVE SMOOTH",
"470 291 OFFCURVE",
"465 263 OFFCURVE",
"453 226 CURVE"
);
}
);
width = 695;
}
);
leftKerningGroup = I;
leftMetricsKey = H;
rightKerningGroup = E;
unicode = 0045;
},
{
color = 6;
glyphname = F;
layers = (
{
anchors = (
{
name = bottom;
position = "{238, 0}";
},
{
name = top;
position = "{472, 710}";
}
);
backgroundImage = {
imagePath = "../../FONT/Glyphs/Workshop Baskerville/1878 Limprimerie Berger Levrault Notice historique/Romain/JACOB-notice-187504.jpg";
locked = "1";
transform = "{2.612, 0, 3.86284, 2.75, -8304, -3085}";
};
layerId = "9372F035-DA38-4B54-966C-CEBA9B53DD02";
paths = (
{
closed = 1;
nodes = (
"125 0 LINE",
"294 -3 LINE",
"303 22 LINE",
"284 24 LINE SMOOTH",
"212 32 OFFCURVE",
"188 35 OFFCURVE",
"188 60 CURVE SMOOTH",
"188 67 OFFCURVE",
"190 76 OFFCURVE",
"194 87 CURVE SMOOTH",
"390 685 LINE",
"534 685 LINE SMOOTH",
"630 685 OFFCURVE",
"662 615 OFFCURVE",
"664 526 CURVE",
"690 526 LINE",
"684 709 LINE",
"358 710 LINE",
"211 713 LINE",
"203 688 LINE",
"222 686 LINE SMOOTH",
"276 681 OFFCURVE",
"295 673 OFFCURVE",
"295 650 CURVE SMOOTH",
"295 645 OFFCURVE",
"294 638 OFFCURVE",
"292 631 CURVE SMOOTH",
"118 100 LINE SMOOTH",
"92 35 OFFCURVE",
"71 30 OFFCURVE",
"10 24 CURVE SMOOTH",
"-11 22 LINE",
"-20 -3 LINE"
);
},
{
closed = 0;
nodes = (
"282 377 LINE"
);
},
{
closed = 1;
nodes = (
"460 196 LINE",
"499 341 LINE",
"550 478 LINE",
"524 478 LINE",
"485 369 OFFCURVE",
"458 358 OFFCURVE",
"415 358 CURVE SMOOTH",
"252 358 LINE",
"244 332 LINE",
"407 332 LINE SMOOTH",
"434 332 OFFCURVE",
"451 318 OFFCURVE",
"451 282 CURVE SMOOTH",
"451 261 OFFCURVE",
"446 233 OFFCURVE",
"434 196 CURVE"
);
}
);
width = 599;
}
);
leftKerningGroup = I;
leftMetricsKey = I;
rightKerningGroup = F;
unicode = 0046;
},
{
color = 6;
glyphname = Fhook;
layers = (
{
anchors = (
{
name = bottom;
position = "{238, 0}";
},
{
name = top;
position = "{472, 710}";
}
);
layerId = "9372F035-DA38-4B54-966C-CEBA9B53DD02";
paths = (
{
closed = 1;
nodes = (
"25 -294 OFFCURVE",
"80 -260 OFFCURVE",
"122 -131 CURVE SMOOTH",
"390 685 LINE",
"534 685 LINE SMOOTH",
"630 685 OFFCURVE",
"662 615 OFFCURVE",
"664 526 CURVE",
"690 526 LINE",
"684 709 LINE",
"358 710 LINE",
"211 713 LINE",
"203 688 LINE",
"222 686 LINE SMOOTH",
"275 681 OFFCURVE",
"296 673 OFFCURVE",
"296 651 CURVE SMOOTH",
"296 645 OFFCURVE",
"294 639 OFFCURVE",
"292 631 CURVE SMOOTH",
"43 -128 LINE SMOOTH",
"13 -219 OFFCURVE",
"-12 -272 OFFCURVE",
"-44 -272 CURVE SMOOTH",
"-88 -272 OFFCURVE",
"-65 -174 OFFCURVE",
"-124 -174 CURVE SMOOTH",
"-152 -174 OFFCURVE",
"-173 -194 OFFCURVE",
"-173 -221 CURVE SMOOTH",
"-173 -257 OFFCURVE",
"-144 -294 OFFCURVE",
"-62 -294 CURVE SMOOTH"
);
},
{
closed = 0;
nodes = (
"282 377 LINE"
);
},
{
closed = 1;
nodes = (
"460 196 LINE",
"499 341 LINE",
"550 478 LINE",
"524 478 LINE",
"485 369 OFFCURVE",
"458 358 OFFCURVE",
"415 358 CURVE SMOOTH",
"252 358 LINE",
"244 332 LINE",
"407 332 LINE SMOOTH",
"434 332 OFFCURVE",
"451 318 OFFCURVE",
"451 282 CURVE SMOOTH",
"451 261 OFFCURVE",
"446 233 OFFCURVE",
"434 196 CURVE"
);
}
);
width = 599;
}
);
rightKerningGroup = F;
rightMetricsKey = F;
unicode = 0191;
},
{
color = 6;
glyphname = G;
layers = (
{
anchors = (
{
name = bottom;
position = "{301, 0}";
},
{
name = top;
position = "{535, 710}";
}
);
layerId = "9372F035-DA38-4B54-966C-CEBA9B53DD02";
paths = (
{
closed = 1;
nodes = (
"483 -14 OFFCURVE",
"551 73 OFFCURVE",
"583 73 CURVE SMOOTH",
"604 73 OFFCURVE",
"621 48 OFFCURVE",
"634 32 CURVE",
"659 58 LINE",
"652 68 OFFCURVE",
"634 81 OFFCURVE",
"634 104 CURVE SMOOTH",
"634 109 OFFCURVE",
"635 114 OFFCURVE",
"637 120 CURVE SMOOTH",
"668 208 LINE SMOOTH",
"677 235 OFFCURVE",
"698 257 OFFCURVE",
"731 261 CURVE SMOOTH",
"768 265 LINE",
"775 290 LINE",
"644 286 LINE",
"505 290 LINE",
"498 264 LINE",
"543 260 LINE SMOOTH",
"571 258 OFFCURVE",
"590 245 OFFCURVE",
"590 222 CURVE SMOOTH",
"590 218 OFFCURVE",
"589 213 OFFCURVE",
"587 207 CURVE SMOOTH",
"565 144 LINE SMOOTH",
"546 85 OFFCURVE",
"446 16 OFFCURVE",
"351 16 CURVE SMOOTH",
"246 16 OFFCURVE",
"175 96 OFFCURVE",
"175 248 CURVE SMOOTH",
"175 459 OFFCURVE",
"340 694 OFFCURVE",
"526 694 CURVE SMOOTH",
"621 694 OFFCURVE",
"672 632 OFFCURVE",
"672 535 CURVE SMOOTH",
"672 519 OFFCURVE",
"671 503 OFFCURVE",
"668 485 CURVE",
"694 485 LINE",
"729 593 LINE",
"769 696 LINE",
"743 696 LINE",
"730 679 OFFCURVE",
"718 663 OFFCURVE",
"706 663 CURVE SMOOTH",
"681 663 OFFCURVE",
"636 724 OFFCURVE",
"520 724 CURVE SMOOTH",
"261 724 OFFCURVE",
"86 457 OFFCURVE",
"86 235 CURVE SMOOTH",
"86 96 OFFCURVE",
"164 -14 OFFCURVE",
"334 -14 CURVE SMOOTH"
);
}
);
width = 762;
}
);
leftKerningGroup = O;
leftMetricsKey = O;
rightKerningGroup = G;
unicode = 0047;
},
{
color = 6;
glyphname = H;
layers = (
{
anchors = (
{
name = bottom;
position = "{346, 0}";
},
{
name = center;
position = "{535, 535}";
},
{
name = top;
position = "{580, 710}";
},
{
name = topleft;
position = "{189, 710}";
}
);
backgroundImage = {
imagePath = "../../FONT/Glyphs/Workshop Baskerville/1878 Limprimerie Berger Levrault Notice historique/Romain/JACOB-notice-187537.jpg";
locked = "1";
transform = "{2.36192, -0.046, 3.90977, 2.68608, -8935, -3827}";
};
guideLines = (
{
angle = 70;
position = "{774, 355}";
},
{
angle = 70;
position = "{329, 353}";
},
{
angle = 70;
position = "{252, 355}";
},
{
position = "{725, 472}";
}
);
layerId = "9372F035-DA38-4B54-966C-CEBA9B53DD02";
paths = (
{
closed = 1;
nodes = (
"126 0 LINE",
"275 -3 LINE",
"283 22 LINE",
"264 24 LINE SMOOTH",
"209 29 OFFCURVE",
"191 36 OFFCURVE",
"191 60 CURVE SMOOTH",
"191 69 OFFCURVE",
"193 81 OFFCURVE",
"198 96 CURVE SMOOTH",
"354 573 LINE",
"381 655 OFFCURVE",
"407 679 OFFCURVE",
"480 686 CURVE SMOOTH",
"501 688 LINE",
"509 713 LINE",
"360 710 LINE",
"211 713 LINE",
"203 688 LINE",
"222 686 LINE SMOOTH",
"276 681 OFFCURVE",
"297 674 OFFCURVE",
"297 651 CURVE SMOOTH",
"297 644 OFFCURVE",
"295 635 OFFCURVE",
"291 624 CURVE SMOOTH",
"131 136 LINE SMOOTH",
"105 56 OFFCURVE",
"79 31 OFFCURVE",
"6 24 CURVE SMOOTH",
"-15 22 LINE",
"-23 -3 LINE"
);
},
{
closed = 1;
nodes = (
"661 345 LINE",
"671 376 LINE",
"281 376 LINE",
"271 345 LINE"
);
},
{
closed = 1;
nodes = (
"581 0 LINE",
"730 -3 LINE",
"738 22 LINE",
"719 24 LINE SMOOTH",
"665 29 OFFCURVE",
"644 36 OFFCURVE",
"644 61 CURVE SMOOTH",
"644 71 OFFCURVE",
"647 82 OFFCURVE",
"652 97 CURVE SMOOTH",
"808 573 LINE SMOOTH",
"836 659 OFFCURVE",
"861 679 OFFCURVE",
"934 686 CURVE SMOOTH",
"955 688 LINE",
"963 713 LINE",
"814 710 LINE",
"665 713 LINE",
"657 688 LINE",
"676 686 LINE SMOOTH",
"730 681 OFFCURVE",
"750 673 OFFCURVE",
"750 650 CURVE SMOOTH",
"750 643 OFFCURVE",
"748 634 OFFCURVE",
"745 624 CURVE SMOOTH",
"580 121 LINE SMOOTH",
"556 47 OFFCURVE",
"529 31 OFFCURVE",
"461 24 CURVE SMOOTH",
"440 22 LINE",
"432 -3 LINE"
);
}
);
width = 839;
}
);
leftKerningGroup = I;
leftMetricsKey = I;
rightKerningGroup = I;
rightMetricsKey = I;
unicode = 0048;
},
{
color = 6;
glyphname = I;
layers = (
{
anchors = (
{
name = bottom;
position = "{124, 0}";
},
{
name = ogonek;
position = "{141, 0}";
},
{
name = top;
position = "{358, 710}";
},
{
name = topleft;
position = "{181, 710}";
}
);
backgroundImage = {
imagePath = "../../FONT/Glyphs/Workshop Baskerville/1878 Limprimerie Berger Levrault Notice historique/Romain/IMG_3190.JPG";
locked = "1";
transform = "{2.50369, -0.029, 3.96515, 2.76131, -8289, -3787}";
};
layerId = "9372F035-DA38-4B54-966C-CEBA9B53DD02";
paths = (
{
closed = 1;
nodes = (
"126 0 LINE",
"275 -3 LINE",
"283 22 LINE",
"264 24 LINE SMOOTH",
"209 29 OFFCURVE",
"191 36 OFFCURVE",
"191 60 CURVE SMOOTH",
"191 69 OFFCURVE",
"194 81 OFFCURVE",
"198 96 CURVE SMOOTH",
"354 573 LINE SMOOTH",
"383 661 OFFCURVE",
"407 679 OFFCURVE",
"480 686 CURVE SMOOTH",
"501 688 LINE",
"509 713 LINE",
"360 710 LINE",
"211 713 LINE",
"203 688 LINE",
"222 686 LINE SMOOTH",
"277 681 OFFCURVE",
"295 674 OFFCURVE",
"295 650 CURVE SMOOTH",
"295 643 OFFCURVE",
"294 634 OFFCURVE",
"291 624 CURVE SMOOTH",
"131 136 LINE SMOOTH",
"103 51 OFFCURVE",
"79 31 OFFCURVE",
"6 24 CURVE SMOOTH",
"-15 22 LINE",
"-23 -3 LINE"
);
}
);
width = 384;
}
);
leftKerningGroup = I;
rightKerningGroup = I;
unicode = 0049;
},
{
color = 6;
glyphname = J;
layers = (
{
anchors = (
{
name = bottom;
position = "{133, 0}";
},
{
name = top;
position = "{366, 710}";
}
);
backgroundImage = {
imagePath = "../../../../1788-89 Epreuves des caracteres de Rolland et Jacob/p19.jpg";
locked = "1";
transform = "{69.67, 0, 93.6342, 66.669, -8660, -14382}";
};
layerId = "9372F035-DA38-4B54-966C-CEBA9B53DD02";
paths = (
{
closed = 1;
nodes = (
"217 -14 OFFCURVE",
"236 60 OFFCURVE",
"264 147 CURVE SMOOTH",
"403 574 LINE SMOOTH",
"432 664 OFFCURVE",
"460 679 OFFCURVE",
"529 686 CURVE SMOOTH",
"550 688 LINE",
"558 713 LINE",
"409 710 LINE",
"260 713 LINE",
"252 688 LINE",
"271 686 LINE SMOOTH",
"326 681 OFFCURVE",
"344 674 OFFCURVE",
"344 650 CURVE SMOOTH",
"344 641 OFFCURVE",
"341 629 OFFCURVE",
"337 614 CURVE SMOOTH",
"207 217 LINE SMOOTH",
"166 94 OFFCURVE",
"145 9 OFFCURVE",
"90 9 CURVE SMOOTH",
"53 9 OFFCURVE",
"50 33 OFFCURVE",
"42 63 CURVE SMOOTH",
"35 93 OFFCURVE",
"24 120 OFFCURVE",
"-11 120 CURVE SMOOTH",
"-38 120 OFFCURVE",
"-56 101 OFFCURVE",
"-56 75 CURVE SMOOTH",
"-56 15 OFFCURVE",
"13 -14 OFFCURVE",
"87 -14 CURVE SMOOTH"
);
}
);
width = 430;
}
);
leftKerningGroup = J;
rightKerningGroup = U;
unicode = 004A;
},
{
color = 6;
glyphname = K;
layers = (
{
anchors = (
{
name = bottom;
position = "{340, 0}";
},
{
name = top;
position = "{524, 710}";
}
);
layerId = "9372F035-DA38-4B54-966C-CEBA9B53DD02";
paths = (
{
closed = 1;
nodes = (
"116 0 LINE",
"265 -3 LINE",
"273 22 LINE",
"254 24 LINE SMOOTH",
"199 29 OFFCURVE",
"181 36 OFFCURVE",
"181 60 CURVE SMOOTH",
"181 69 OFFCURVE",
"184 81 OFFCURVE",
"188 96 CURVE SMOOTH",
"346 580 LINE SMOOTH",
"378 673 OFFCURVE",
"396 678 OFFCURVE",
"465 686 CURVE",
"478 713 LINE",
"350 710 LINE",
"211 713 LINE",
"202 688 LINE",
"221 686 LINE SMOOTH",
"258 682 OFFCURVE",
"288 678 OFFCURVE",
"288 653 CURVE SMOOTH",
"288 648 OFFCURVE",
"287 642 OFFCURVE",
"284 635 CURVE SMOOTH",
"121 136 LINE SMOOTH",
"93 50 OFFCURVE",
"69 31 OFFCURVE",
"-4 24 CURVE SMOOTH",
"-25 22 LINE",
"-33 -3 LINE"
);
},
{
closed = 1;
nodes = (
"679 22 LINE",
"618 31 OFFCURVE",
"582 59 OFFCURVE",
"551 139 CURVE SMOOTH",
"431 434 LINE",
"371 372 LINE",
"482 101 LINE SMOOTH",
"486 90 OFFCURVE",
"489 80 OFFCURVE",
"489 71 CURVE SMOOTH",
"489 51 OFFCURVE",
"474 34 OFFCURVE",
"420 26 CURVE SMOOTH",
"402 23 LINE",
"393 -2 LINE",
"559 0 LINE",
"670 -3 LINE"
);
},
{
closed = 1;
nodes = (
"655 599 LINE SMOOTH",
"719 650 OFFCURVE",
"766 681 OFFCURVE",
"796 685 CURVE SMOOTH",
"818 688 LINE",
"827 713 LINE",
"713 709 LINE",
"590 713 LINE",
"581 688 LINE",
"595 687 LINE SMOOTH",
"631 684 OFFCURVE",
"648 672 OFFCURVE",
"648 653 CURVE SMOOTH",
"648 635 OFFCURVE",
"632 612 OFFCURVE",
"602 587 CURVE SMOOTH",
"229 286 LINE",
"225 250 LINE"
);
}
);
width = 721;
}
);
leftKerningGroup = I;
leftMetricsKey = I;
rightKerningGroup = K;
unicode = 004B;
},
{
color = 6;
glyphname = L;
layers = (
{
anchors = (
{
name = bottom;
position = "{248, 0}";
},
{
name = center;
position = "{243, 355}";
},
{
name = top;
position = "{360, 710}";
},
{
name = topright;
position = "{538, 710}";
}
);
layerId = "9372F035-DA38-4B54-966C-CEBA9B53DD02";
paths = (
{
closed = 1;
nodes = (
"117 0 LINE",
"552 -3 LINE",
"630 210 LINE",
"604 210 LINE",
"557 88 OFFCURVE",
"488 23 OFFCURVE",
"373 23 CURVE SMOOTH",
"298 23 LINE SMOOTH",
"225 23 OFFCURVE",
"199 38 OFFCURVE",
"199 77 CURVE SMOOTH",
"199 97 OFFCURVE",
"207 125 OFFCURVE",
"219 161 CURVE SMOOTH",
"354 574 LINE SMOOTH",
"382 660 OFFCURVE",
"407 679 OFFCURVE",
"480 686 CURVE SMOOTH",
"501 688 LINE",
"509 713 LINE",
"360 710 LINE",
"211 713 LINE",
"203 688 LINE",
"222 686 LINE SMOOTH",
"276 680 OFFCURVE",
"297 675 OFFCURVE",
"297 651 CURVE SMOOTH",
"297 644 OFFCURVE",
"295 635 OFFCURVE",
"291 624 CURVE SMOOTH",
"112 80 LINE SMOOTH",
"98 39 OFFCURVE",
"78 31 OFFCURVE",
"6 24 CURVE SMOOTH",
"-15 22 LINE",
"-23 -3 LINE"
);
}
);
width = 646;
}
);
leftKerningGroup = I;
leftMetricsKey = I;
rightKerningGroup = L;
unicode = 004C;
},
{
color = 6;
glyphname = M;
layers = (
{
anchors = (
{
name = bottom;
position = "{399, 0}";
},
{
name = top;
position = "{633, 710}";
}
);
guideLines = (
{
angle = 70;
position = "{806, 452}";
},
{
position = "{564, 616}";
}
);
layerId = "9372F035-DA38-4B54-966C-CEBA9B53DD02";
paths = (
{
closed = 1;
nodes = (
"686 0 LINE",
"835 -3 LINE",
"843 22 LINE",
"824 24 LINE SMOOTH",
"769 29 OFFCURVE",
"751 36 OFFCURVE",
"751 60 CURVE SMOOTH",
"751 69 OFFCURVE",
"754 81 OFFCURVE",
"758 96 CURVE SMOOTH",
"874 615 LINE SMOOTH",
"887 675 OFFCURVE",
"925 681 OFFCURVE",
"973 686 CURVE SMOOTH",
"994 688 LINE",
"1002 713 LINE",
"857 710 LINE",
"810 710 LINE",
"413 85 LINE",
"436 89 LINE",
"373 710 LINE",
"317 710 LINE",
"199 713 LINE",
"191 688 LINE",
"229 683 LINE SMOOTH",
"262 679 OFFCURVE",
"278 666 OFFCURVE",
"301 635 CURVE",
"365 7 LINE",
"395 7 LINE",
"829 687 LINE",
"816 693 LINE",
"691 137 LINE SMOOTH",
"668 49 OFFCURVE",
"639 31 OFFCURVE",
"566 24 CURVE SMOOTH",
"545 22 LINE",
"537 -3 LINE"
);
},
{
closed = 1;
nodes = (
"97 0 LINE",
"215 -3 LINE",
"223 22 LINE",
"204 24 LINE SMOOTH",
"152 29 OFFCURVE",
"131 33 OFFCURVE",
"131 60 CURVE SMOOTH",
"131 68 OFFCURVE",
"133 78 OFFCURVE",
"136 90 CURVE SMOOTH",
"319 661 LINE",
"290 661 LINE",
"112 116 LINE SMOOTH",
"89 36 OFFCURVE",
"71 31 OFFCURVE",
"3 24 CURVE SMOOTH",
"-18 22 LINE",
"-26 -3 LINE"
);
}
);
width = 916;
}
);
leftKerningGroup = M;
rightKerningGroup = I;
unicode = 004D;
},
{
color = 6;
glyphname = N;
layers = (
{
anchors = (
{
name = bottom;
position = "{402, 0}";
},
{
name = top;
position = "{556, 710}";
}
);
backgroundImage = {
imagePath = "../../FONT/Glyphs/Workshop Baskerville/1878 Limprimerie Berger Levrault Notice historique/Images/B543956101_050370_0013.jpg";
locked = "1";
transform = "{18.05, 0, 26.68526, 19, -471, 0}";
};
layerId = "9372F035-DA38-4B54-966C-CEBA9B53DD02";
paths = (
{
closed = 1;
nodes = (
"624 94 LINE",
"346 710 LINE",
"318 655 LINE",
"328 710 LINE",
"211 713 LINE",
"202 688 LINE",
"233 685 LINE SMOOTH",
"264 682 OFFCURVE",
"278 660 OFFCURVE",
"297 615 CURVE SMOOTH",
"574 0 LINE"
);
},
{
closed = 1;
nodes = (
"110 0 LINE",
"227 -3 LINE",
"236 22 LINE",
"217 24 LINE SMOOTH",
"166 29 OFFCURVE",
"147 34 OFFCURVE",
"146 57 CURVE SMOOTH",
"146 64 OFFCURVE",
"147 71 OFFCURVE",
"150 81 CURVE SMOOTH",
"346 710 LINE",
"314 710 LINE",
"124 103 LINE SMOOTH",
"104 40 OFFCURVE",
"79 30 OFFCURVE",
"17 24 CURVE SMOOTH",
"-4 22 LINE",
"-13 -3 LINE"
);
},
{
closed = 1;
nodes = (
"604 0 LINE",
"794 607 LINE SMOOTH",
"814 673 OFFCURVE",
"839 680 OFFCURVE",
"901 686 CURVE SMOOTH",
"922 688 LINE",
"931 713 LINE",
"808 710 LINE",
"691 713 LINE",
"682 688 LINE",
"701 686 LINE SMOOTH",
"752 681 OFFCURVE",
"771 676 OFFCURVE",
"772 653 CURVE SMOOTH",
"772 645 OFFCURVE",
"771 636 OFFCURVE",
"767 624 CURVE SMOOTH",
"574 0 LINE"
);
}
);
width = 793;
}
);
leftKerningGroup = I;
leftMetricsKey = I;
rightKerningGroup = N;
unicode = 004E;
},
{
color = 6;
glyphname = Eng;
layers = (
{
anchors = (
{
name = bottom;
position = "{402, 0}";
},
{
name = top;
position = "{556, 710}";
}
);
layerId = "9372F035-DA38-4B54-966C-CEBA9B53DD02";
paths = (
{
closed = 1;
nodes = (
"484 -294 OFFCURVE",
"513 -247 OFFCURVE",
"554 -136 CURVE SMOOTH",
"604 0 LINE",
"794 607 LINE SMOOTH",
"814 673 OFFCURVE",
"839 680 OFFCURVE",
"901 686 CURVE SMOOTH",
"922 688 LINE",
"931 713 LINE",
"808 710 LINE",
"691 713 LINE",
"682 688 LINE",
"701 686 LINE SMOOTH",
"752 681 OFFCURVE",
"771 676 OFFCURVE",
"772 653 CURVE",
"772 645 OFFCURVE",
"771 636 OFFCURVE",
"767 624 CURVE SMOOTH",
"574 0 LINE",
"526 -131 LINE SMOOTH",
"487 -237 OFFCURVE",
"456 -262 OFFCURVE",
"429 -262 CURVE SMOOTH",
"385 -262 OFFCURVE",
"408 -174 OFFCURVE",
"349 -174 CURVE SMOOTH",
"321 -174 OFFCURVE",
"300 -194 OFFCURVE",
"300 -221 CURVE SMOOTH",
"300 -257 OFFCURVE",
"329 -294 OFFCURVE",
"411 -294 CURVE SMOOTH"
);
},
{
closed = 1;
nodes = (
"110 0 LINE",
"227 -3 LINE",
"236 22 LINE",
"217 24 LINE SMOOTH",
"166 29 OFFCURVE",
"147 34 OFFCURVE",
"146 57 CURVE SMOOTH",
"146 64 OFFCURVE",
"147 71 OFFCURVE",
"150 81 CURVE SMOOTH",
"346 710 LINE",
"314 710 LINE",
"124 103 LINE SMOOTH",
"104 40 OFFCURVE",
"79 30 OFFCURVE",
"17 24 CURVE SMOOTH",
"-4 22 LINE",
"-13 -3 LINE"
);
},
{
closed = 1;
nodes = (
"624 94 LINE",
"346 710 LINE",
"318 655 LINE",
"328 710 LINE",
"211 713 LINE",
"202 688 LINE",
"233 685 LINE SMOOTH",
"264 682 OFFCURVE",
"278 660 OFFCURVE",
"297 615 CURVE SMOOTH",
"574 0 LINE"
);
}
);
width = 793;
}
);
leftKerningGroup = I;
leftMetricsKey = N;
rightKerningGroup = N;
rightMetricsKey = N;
unicode = 014A;
},
{
color = 6;
glyphname = O;
layers = (
{
anchors = (
{
name = bottom;
position = "{355, 0}";
},
{
name = center;
position = "{432, 355}";
},
{
name = ogonek;
position = "{450, 10}";
},
{
name = top;
position = "{559, 710}";
},
{
name = topleft;
position = "{183, 710}";
},
{
name = topright;
position = "{914, 710}";
}
);
layerId = "9372F035-DA38-4B54-966C-CEBA9B53DD02";
paths = (
{
closed = 1;
nodes = (
"592 -14 OFFCURVE",
"790 237 OFFCURVE",
"790 469 CURVE SMOOTH",
"790 631 OFFCURVE",
"682 724 OFFCURVE",
"540 724 CURVE SMOOTH",
"283 724 OFFCURVE",
"86 471 OFFCURVE",
"86 241 CURVE SMOOTH",
"86 73 OFFCURVE",
"201 -14 OFFCURVE",
"342 -14 CURVE SMOOTH"
);
},
{
closed = 1;
nodes = (
"239 16 OFFCURVE",
"177 93 OFFCURVE",
"177 225 CURVE SMOOTH",
"177 457 OFFCURVE",
"353 695 OFFCURVE",
"536 695 CURVE SMOOTH",
"640 695 OFFCURVE",
"700 616 OFFCURVE",
"700 481 CURVE SMOOTH",
"700 251 OFFCURVE",
"527 16 OFFCURVE",
"345 16 CURVE SMOOTH"
);
}
);
width = 778;
}
);
leftKerningGroup = O;
rightKerningGroup = O;
unicode = 004F;
},
{
color = 6;
glyphname = OE;
layers = (
{
layerId = "9372F035-DA38-4B54-966C-CEBA9B53DD02";
paths = (
{
closed = 1;
nodes = (
"389 -14 OFFCURVE",
"454 5 OFFCURVE",
"512 36 CURVE",
"477 99 LINE",
"456 43 OFFCURVE",
"387 16 OFFCURVE",
"325 16 CURVE SMOOTH",
"223 16 OFFCURVE",
"164 87 OFFCURVE",
"164 210 CURVE SMOOTH",
"164 445 OFFCURVE",
"353 691 OFFCURVE",
"549 691 CURVE SMOOTH",
"607 691 OFFCURVE",
"668 672 OFFCURVE",
"668 633 CURVE SMOOTH",
"668 628 OFFCURVE",
"667 623 OFFCURVE",
"665 617 CURVE",
"732 649 LINE",
"688 700 OFFCURVE",
"622 720 OFFCURVE",
"545 720 CURVE SMOOTH",
"282 720 OFFCURVE",
"79 459 OFFCURVE",
"79 215 CURVE SMOOTH",
"79 60 OFFCURVE",
"187 -14 OFFCURVE",
"321 -14 CURVE SMOOTH"
);
},
{
closed = 1;
nodes = (
"952 0 LINE",
"976 74 LINE",
"1026 210 LINE",
"1000 210 LINE",
"948 90 OFFCURVE",
"899 26 OFFCURVE",
"783 25 CURVE SMOOTH",
"645 24 LINE SMOOTH",
"588 23 OFFCURVE",
"561 40 OFFCURVE",
"561 81 CURVE SMOOTH",
"561 104 OFFCURVE",
"569 134 OFFCURVE",
"584 173 CURVE",
"419 0 LINE"
);
},
{
closed = 0;
nodes = (
"650 377 LINE"
);
},
{
closed = 1;
nodes = (
"841 226 LINE",
"890 371 LINE",
"941 508 LINE",
"915 508 LINE",
"872 399 OFFCURVE",
"845 388 OFFCURVE",
"802 388 CURVE SMOOTH",
"629 388 LINE",
"620 362 LINE",
"793 362 LINE SMOOTH",
"819 361 OFFCURVE",
"836 348 OFFCURVE",
"836 315 CURVE SMOOTH",
"836 294 OFFCURVE",
"829 265 OFFCURVE",
"815 226 CURVE"
);
},
{
closed = 1;
nodes = (
"1071 527 LINE",
"1072 650 LINE",
"1074 710 LINE",
"620 710 LINE",
"650 685 LINE",
"921 686 LINE SMOOTH",
"1017 686 OFFCURVE",
"1045 616 OFFCURVE",
"1045 527 CURVE"
);
},
{
closed = 1;
nodes = (
"521 0 LINE",
"779 710 LINE",
"699 710 LINE",
"441 0 LINE"
);
}
);
width = 1045;
}
);
leftKerningGroup = O;
leftMetricsKey = O;
rightKerningGroup = E;
rightMetricsKey = E;
unicode = 0152;
},
{
color = 6;
glyphname = P;
layers = (
{
anchors = (
{
name = bottom;
position = "{271, 0}";
},
{
name = top;
position = "{446, 710}";
}
);
backgroundImage = {
imagePath = "../../FONT/Glyphs/Workshop Baskerville/1878 Limprimerie Berger Levrault Notice historique/Romain/JACOB-notice-187519.jpg";
locked = "1";
transform = "{2.517, 0, 3.72284, 2.65, -8835, -3803}";
};
layerId = "9372F035-DA38-4B54-966C-CEBA9B53DD02";
paths = (
{
closed = 1;
nodes = (
"124 0 LINE",
"281 -3 LINE",
"290 21 LINE",
"271 23 LINE SMOOTH",
"209 30 OFFCURVE",
"189 36 OFFCURVE",
"189 60 CURVE SMOOTH",
"189 69 OFFCURVE",
"191 82 OFFCURVE",
"196 96 CURVE SMOOTH",
"389 683 LINE",
"472 683 LINE SMOOTH",
"572 683 OFFCURVE",
"642 632 OFFCURVE",
"642 539 CURVE SMOOTH",
"642 447 OFFCURVE",
"579 333 OFFCURVE",
"374 333 CURVE SMOOTH",
"362 333 OFFCURVE",
"335 334 OFFCURVE",
"268 337 CURVE",
"259 310 LINE",
"328 304 OFFCURVE",
"358 302 OFFCURVE",
"388 302 CURVE SMOOTH",
"610 302 OFFCURVE",
"728 399 OFFCURVE",
"728 534 CURVE SMOOTH",
"728 642 OFFCURVE",
"643 713 OFFCURVE",
"466 711 CURVE SMOOTH",
"369 710 LINE",
"358 710 LINE",
"211 713 LINE",
"202 688 LINE",
"221 686 LINE SMOOTH",
"276 680 OFFCURVE",
"295 673 OFFCURVE",
"295 650 CURVE SMOOTH",
"295 644 OFFCURVE",
"294 638 OFFCURVE",
"292 630 CURVE",
"125 125 LINE SMOOTH",
"101 53 OFFCURVE",
"73 31 OFFCURVE",
"6 24 CURVE SMOOTH",
"-16 22 LINE",
"-25 -3 LINE"
);
}
);
width = 637;
}
);
leftKerningGroup = I;
leftMetricsKey = I;
rightKerningGroup = D;
unicode = 0050;
},
{
color = 6;
glyphname = Thorn;
layers = (
{
layerId = "9372F035-DA38-4B54-966C-CEBA9B53DD02";
paths = (
{
closed = 1;
nodes = (
"111 0 LINE",
"268 -3 LINE",
"277 21 LINE",
"258 23 LINE SMOOTH",
"198 29 OFFCURVE",
"178 36 OFFCURVE",
"178 59 CURVE SMOOTH",
"178 68 OFFCURVE",
"181 80 OFFCURVE",
"186 96 CURVE SMOOTH",
"360 576 LINE SMOOTH",
"389 655 OFFCURVE",
"416 679 OFFCURVE",
"487 686 CURVE SMOOTH",
"509 688 LINE",
"518 713 LINE",
"369 710 LINE",
"212 713 LINE",
"203 689 LINE",
"222 687 LINE SMOOTH",
"282 681 OFFCURVE",
"302 674 OFFCURVE",
"302 651 CURVE SMOOTH",
"302 642 OFFCURVE",
"299 630 OFFCURVE",
"294 614 CURVE SMOOTH",
"120 134 LINE SMOOTH",
"91 53 OFFCURVE",
"64 31 OFFCURVE",
"-7 24 CURVE SMOOTH",
"-29 22 LINE",
"-38 -3 LINE"
);
},
{
closed = 1;
nodes = (
"563 162 OFFCURVE",
"684 251 OFFCURVE",
"684 403 CURVE SMOOTH",
"684 506 OFFCURVE",
"599 573 OFFCURVE",
"427 571 CURVE SMOOTH",
"330 570 LINE",
"341 543 LINE",
"432 543 LINE SMOOTH",
"529 543 OFFCURVE",
"598 495 OFFCURVE",
"598 407 CURVE SMOOTH",
"598 314 OFFCURVE",
"534 193 OFFCURVE",
"321 193 CURVE SMOOTH",
"310 193 OFFCURVE",
"299 193 OFFCURVE",
"288 194 CURVE SMOOTH",
"193 199 LINE",
"180 171 LINE",
"263 165 LINE SMOOTH",
"288 163 OFFCURVE",
"312 162 OFFCURVE",
"335 162 CURVE SMOOTH"
);
}
);
width = 683;
}
);
leftKerningGroup = I;
leftMetricsKey = I;
rightMetricsKey = O;
unicode = 00DE;
},
{
color = 3;
glyphname = Q;
layers = (
{
anchors = (
{
name = bottom;
position = "{331, 0}";
},
{
name = center;
position = "{455, 355}";
},
{
name = ogonek;
position = "{485, 10}";
},
{
name = top;
position = "{564, 710}";
},
{
name = topleft;
position = "{193, 710}";
},
{
name = topright;
position = "{924, 710}";
}
);
components = (
{
name = O;
transform = "{1, 0, 0, 1, 20, 0}";
}
);
layerId = "9372F035-DA38-4B54-966C-CEBA9B53DD02";
paths = (
{
closed = 1;
nodes = (
"632 -294 OFFCURVE",
"672 -239 OFFCURVE",
"690 -138 CURVE",
"670 -136 LINE",
"655 -206 OFFCURVE",
"608 -232 OFFCURVE",
"567 -232 CURVE SMOOTH",
"511 -232 OFFCURVE",
"462 -187 OFFCURVE",
"431 -154 CURVE SMOOTH",
"377 -100 OFFCURVE",
"303 -59 OFFCURVE",
"210 -59 CURVE SMOOTH",
"172 -59 OFFCURVE",
"133 -73 OFFCURVE",
"103 -84 CURVE",
"118 -95 LINE",
"133 -93 OFFCURVE",
"151 -92 OFFCURVE",
"171 -92 CURVE SMOOTH",
"226 -92 OFFCURVE",
"294 -118 OFFCURVE",
"350 -174 CURVE SMOOTH",
"410 -237 OFFCURVE",
"460 -294 OFFCURVE",
"557 -294 CURVE SMOOTH"
);
},
{
closed = 1;
nodes = (
"53 -150 OFFCURVE",
"72 -139 OFFCURVE",
"91 -124 CURVE SMOOTH",
"130 -91 OFFCURVE",
"182 -70 OFFCURVE",
"249 -48 CURVE SMOOTH",
"394 0 LINE",
"346 3 LINE",
"159 -58 LINE",
"143 -56 OFFCURVE",
"127 -55 OFFCURVE",
"113 -55 CURVE SMOOTH",
"46 -55 OFFCURVE",
"-1 -76 OFFCURVE",
"-1 -117 CURVE SMOOTH",
"-1 -140 OFFCURVE",
"13 -150 OFFCURVE",
"33 -150 CURVE SMOOTH"
);
}
);
width = 804;
}
);
leftKerningGroup = O;
leftMetricsKey = "=O+20";
rightKerningGroup = O;
unicode = 0051;
},
{
color = 6;
glyphname = R;
layers = (
{
anchors = (
{
name = bottom;
position = "{394, 0}";
},
{
name = top;
position = "{452, 710}";
}
);
backgroundImage = {
imagePath = "../../FONT/Glyphs/Workshop Baskerville/1878 Limprimerie Berger Levrault Notice historique/Romain/JACOB-notice-187518.jpg";
locked = "1";
transform = "{2.565, 0, 3.79263, 2.7, -8229, -3060}";
};
layerId = "9372F035-DA38-4B54-966C-CEBA9B53DD02";
paths = (
{
closed = 1;
nodes = (
"125 0 LINE",
"262 -3 LINE",
"270 22 LINE",
"251 24 LINE SMOOTH",
"203 29 OFFCURVE",
"187 33 OFFCURVE",
"187 54 CURVE SMOOTH",
"187 62 OFFCURVE",
"189 73 OFFCURVE",
"194 87 CURVE SMOOTH",
"389 683 LINE",
"446 683 LINE SMOOTH",
"569 683 OFFCURVE",
"603 619 OFFCURVE",
"603 558 CURVE SMOOTH",
"603 454 OFFCURVE",
"530 381 OFFCURVE",
"408 382 CURVE SMOOTH",
"278 383 LINE",
"271 360 LINE",
"431 360 LINE SMOOTH",
"575 360 OFFCURVE",
"689 412 OFFCURVE",
"689 550 CURVE SMOOTH",
"689 650 OFFCURVE",
"612 713 OFFCURVE",
"446 711 CURVE SMOOTH",
"369 710 LINE",
"358 710 LINE",
"211 713 LINE",
"203 688 LINE",
"222 686 LINE SMOOTH",
"276 681 OFFCURVE",
"295 671 OFFCURVE",
"295 650 CURVE SMOOTH",
"295 645 OFFCURVE",
"294 639 OFFCURVE",
"292 632 CURVE SMOOTH",
"124 120 LINE SMOOTH",
"96 36 OFFCURVE",
"77 32 OFFCURVE",
"9 24 CURVE SMOOTH",
"-12 22 LINE",
"-20 -3 LINE"
);
},
{
closed = 1;
nodes = (
"634 -14 OFFCURVE",
"673 -1 OFFCURVE",
"704 36 CURVE",
"685 53 LINE",
"672 38 OFFCURVE",
"654 22 OFFCURVE",
"626 22 CURVE SMOOTH",
"582 22 OFFCURVE",
"570 55 OFFCURVE",
"568 127 CURVE SMOOTH",
"563 205 LINE SMOOTH",
"554 307 OFFCURVE",
"485 362 OFFCURVE",
"367 362 CURVE SMOOTH",
"354 362 OFFCURVE",
"340 361 OFFCURVE",
"326 360 CURVE",
"264 360 LINE",
"393 360 OFFCURVE",
"467 299 OFFCURVE",
"471 205 CURVE SMOOTH",
"472 154 LINE SMOOTH",
"476 48 OFFCURVE",
"527 -14 OFFCURVE",
"596 -14 CURVE SMOOTH"
);
}
);
width = 743;
}
);
leftKerningGroup = I;
leftMetricsKey = I;
rightKerningGroup = R;
unicode = 0052;
},
{
color = 6;
glyphname = S;
layers = (
{
anchors = (
{
name = bottom;
position = "{295, 0}";
},
{
name = top;
position = "{408, 710}";
}
);
layerId = "9372F035-DA38-4B54-966C-CEBA9B53DD02";
paths = (
{
closed = 1;
nodes = (
"421 -11 OFFCURVE",
"509 77 OFFCURVE",
"509 187 CURVE SMOOTH",
"509 249 OFFCURVE",
"471 307 OFFCURVE",
"402 373 CURVE SMOOTH",
"357 417 LINE SMOOTH",
"308 463 OFFCURVE",
"265 499 OFFCURVE",
"265 567 CURVE SMOOTH",
"265 643 OFFCURVE",
"326 692 OFFCURVE",
"395 692 CURVE SMOOTH",
"507 692 OFFCURVE",
"542 598 OFFCURVE",
"544 501 CURVE SMOOTH",
"544 471 LINE",
"570 470 LINE",
"587 581 LINE",
"614 693 LINE",
"587 694 LINE",
"579 664 OFFCURVE",
"570 653 OFFCURVE",
"560 653 CURVE SMOOTH",
"536 653 OFFCURVE",
"490 720 OFFCURVE",
"384 720 CURVE SMOOTH",
"264 720 OFFCURVE",
"181 650 OFFCURVE",
"181 549 CURVE SMOOTH",
"181 466 OFFCURVE",
"247 415 OFFCURVE",
"294 369 CURVE SMOOTH",
"340 325 LINE SMOOTH",
"398 270 OFFCURVE",
"426 228 OFFCURVE",
"426 154 CURVE SMOOTH",
"426 78 OFFCURVE",
"369 17 OFFCURVE",
"281 17 CURVE SMOOTH",
"183 17 OFFCURVE",
"125 84 OFFCURVE",
"121 200 CURVE SMOOTH",
"121 209 OFFCURVE",
"121 219 OFFCURVE",
"121 229 CURVE SMOOTH",
"124 269 LINE",
"97 271 LINE",
"66 149 LINE",
"22 19 LINE",
"48 4 LINE",
"59 28 OFFCURVE",
"72 56 OFFCURVE",
"92 56 CURVE SMOOTH",
"126 56 OFFCURVE",
"169 -11 OFFCURVE",
"293 -11 CURVE SMOOTH"
);
}
);
width = 589;
}
);
leftKerningGroup = S;
rightKerningGroup = S;
unicode = 0053;
},
{
color = 6;
glyphname = T;
layers = (
{
anchors = (
{
name = bottom;
position = "{315, 0}";
},
{
name = center;
position = "{432, 355}";
},
{
name = top;
position = "{549, 710}";
}
);
layerId = "9372F035-DA38-4B54-966C-CEBA9B53DD02";
paths = (
{
closed = 1;
nodes = (
"303 0 LINE",
"314 0 LINE",
"496 -3 LINE",
"504 20 LINE",
"468 23 LINE SMOOTH",
"414 27 OFFCURVE",
"381 43 OFFCURVE",
"381 82 CURVE SMOOTH",
"381 91 OFFCURVE",
"382 100 OFFCURVE",
"386 112 CURVE SMOOTH",
"582 710 LINE",
"502 710 LINE",
"302 100 LINE SMOOTH",
"283 43 OFFCURVE",
"231 31 OFFCURVE",
"164 22 CURVE SMOOTH",
"148 20 LINE",
"139 -3 LINE"
);
},
{
closed = 1;
nodes = (
"842 510 LINE",
"838 632 LINE",
"840 713 LINE",
"534 710 LINE",
"207 713 LINE",
"135 523 LINE",
"161 522 LINE",
"228 644 OFFCURVE",
"254 683 OFFCURVE",
"366 685 CURVE SMOOTH",
"494 687 LINE",
"571 688 LINE",
"697 685 LINE SMOOTH",
"776 683 OFFCURVE",
"813 606 OFFCURVE",
"817 510 CURVE"
);
}
);
width = 741;
}
);
leftKerningGroup = T;
rightKerningGroup = T;
unicode = 0054;
},
{
color = 6;
glyphname = U;
layers = (
{
anchors = (
{
name = bottom;
position = "{311, 0}";
},
{
name = ogonek;
position = "{473, 0}";
},
{
name = top;
position = "{575, 710}";
},
{
name = topright;
position = "{888, 710}";
}
);
backgroundImage = {
imagePath = "../../FONT/Glyphs/1790 La Constitution Francaise de Jacob/JACOB-constitution-179001.jpg";
locked = "1";
transform = "{9.479, 0.17, 12.87341, 9.50885, -11557, 0}";
};
layerId = "9372F035-DA38-4B54-966C-CEBA9B53DD02";
paths = (
{
closed = 1;
nodes = (
"538 -14 OFFCURVE",
"602 91 OFFCURVE",
"672 308 CURVE SMOOTH",
"769 612 LINE SMOOTH",
"789 675 OFFCURVE",
"814 680 OFFCURVE",
"878 686 CURVE SMOOTH",
"899 688 LINE",
"907 713 LINE",
"784 710 LINE",
"666 713 LINE",
"658 688 LINE",
"677 686 LINE SMOOTH",
"726 681 OFFCURVE",
"747 677 OFFCURVE",
"747 652 CURVE SMOOTH",
"747 645 OFFCURVE",
"745 636 OFFCURVE",
"742 625 CURVE SMOOTH",
"629 274 LINE SMOOTH",
"567 81 OFFCURVE",
"489 18 OFFCURVE",
"377 18 CURVE SMOOTH",
"270 18 OFFCURVE",
"221 78 OFFCURVE",
"221 168 CURVE SMOOTH",
"221 200 OFFCURVE",
"228 236 OFFCURVE",
"240 275 CURVE SMOOTH",
"335 574 LINE SMOOTH",
"363 663 OFFCURVE",
"387 679 OFFCURVE",
"460 686 CURVE SMOOTH",
"481 688 LINE",
"489 713 LINE",
"340 710 LINE",
"191 713 LINE",
"183 688 LINE",
"202 686 LINE SMOOTH",
"257 681 OFFCURVE",
"275 674 OFFCURVE",
"275 650 CURVE SMOOTH",
"275 641 OFFCURVE",
"272 629 OFFCURVE",
"268 614 CURVE SMOOTH",
"159 275 LINE SMOOTH",
"145 231 OFFCURVE",
"137 191 OFFCURVE",
"137 156 CURVE SMOOTH",
"137 51 OFFCURVE",
"202 -14 OFFCURVE",
"366 -14 CURVE SMOOTH"
);
}
);
width = 758;
}
);
leftKerningGroup = U;
rightKerningGroup = U;
unicode = 0055;
},
{
color = 6;
glyphname = V;
layers = (
{
anchors = (
{
name = bottom;
position = "{311, 0}";
},
{
name = top;
position = "{539, 710}";
}
);
backgroundImage = {
imagePath = "../../FONT/Glyphs/1878 Limprimerie Berger Levrault Notice historique/Romain/JACOB-notice-187505.jpg";
locked = "1";
transform = "{2.5, 0, 3.69743, 2.632, -7366, -2475}";
};
layerId = "9372F035-DA38-4B54-966C-CEBA9B53DD02";
paths = (
{
closed = 1;
nodes = (
"313 -8 LINE",
"721 598 LINE SMOOTH",
"756 651 OFFCURVE",
"768 679 OFFCURVE",
"839 686 CURVE SMOOTH",
"860 688 LINE",
"868 713 LINE",
"746 710 LINE",
"627 713 LINE",
"619 688 LINE",
"638 686 LINE SMOOTH",
"685 681 OFFCURVE",
"709 670 OFFCURVE",
"709 648 CURVE SMOOTH",
"709 639 OFFCURVE",
"704 627 OFFCURVE",
"695 613 CURVE SMOOTH",
"328 67 LINE",
"356 74 LINE",
"314 611 LINE SMOOTH",
"310 669 OFFCURVE",
"354 680 OFFCURVE",
"409 686 CURVE SMOOTH",
"430 688 LINE",
"438 713 LINE",
"292 710 LINE",
"149 713 LINE",
"141 688 LINE",
"160 686 LINE SMOOTH",
"236 678 OFFCURVE",
"231 651 OFFCURVE",
"237 593 CURVE SMOOTH",
"287 -8 LINE"
);
}
);
width = 686;
}
);
leftKerningGroup = V;
rightKerningGroup = V;
unicode = 0056;
},
{
color = 6;
glyphname = W;
layers = (
{
anchors = (
{
name = bottom;
position = "{521, 0}";
},
{
name = top;
position = "{647, 710}";
}
);
guideLines = (
{
position = "{499, 713}";
}
);
layerId = "9372F035-DA38-4B54-966C-CEBA9B53DD02";
paths = (
{
closed = 1;
nodes = (
"690 -8 LINE",
"1030 598 LINE SMOOTH",
"1061 653 OFFCURVE",
"1077 679 OFFCURVE",
"1148 686 CURVE SMOOTH",
"1169 688 LINE",
"1177 713 LINE",
"1055 710 LINE",
"918 713 LINE",
"910 688 LINE",
"947 686 LINE SMOOTH",
"994 683 OFFCURVE",
"1016 673 OFFCURVE",
"1016 650 CURVE SMOOTH",
"1016 640 OFFCURVE",
"1012 628 OFFCURVE",
"1004 613 CURVE SMOOTH",
"697 67 LINE",
"731 78 LINE",
"665 587 LINE SMOOTH",
"664 595 OFFCURVE",
"663 602 OFFCURVE",
"663 609 CURVE SMOOTH",
"663 656 OFFCURVE",
"696 679 OFFCURVE",
"745 683 CURVE SMOOTH",
"785 687 LINE",
"786 713 LINE",
"759 711 LINE SMOOTH",
"707 707 OFFCURVE",
"664 701 OFFCURVE",
"630 655 CURVE",
"643 599 LINE",
"597 522 LINE",
"664 -8 LINE"
);
},
{
closed = 1;
nodes = (
"318 -8 LINE",
"627 536 LINE SMOOTH",
"643 565 OFFCURVE",
"665 605 OFFCURVE",
"665 642 CURVE SMOOTH",
"665 677 OFFCURVE",
"644 702 OFFCURVE",
"574 710 CURVE SMOOTH",
"547 713 LINE",
"543 687 LINE",
"581 681 LINE SMOOTH",
"619 676 OFFCURVE",
"632 658 OFFCURVE",
"632 635 CURVE SMOOTH",
"632 613 OFFCURVE",
"619 586 OFFCURVE",
"606 562 CURVE SMOOTH",
"325 68 LINE",
"361 77 LINE",
"314 613 LINE SMOOTH",
"309 668 OFFCURVE",
"352 679 OFFCURVE",
"395 686 CURVE SMOOTH",
"407 688 LINE",
"415 713 LINE",
"288 710 LINE",
"149 713 LINE",
"141 688 LINE",
"160 686 LINE SMOOTH",
"236 678 OFFCURVE",
"231 651 OFFCURVE",
"237 593 CURVE SMOOTH",
"292 -8 LINE"
);
}
);
width = 1019;
}
);
leftKerningGroup = V;
leftMetricsKey = V;
rightKerningGroup = V;
unicode = 0057;
},
{
color = 6;
glyphname = X;
layers = (
{
anchors = (
{
name = bottom;
position = "{299, 0}";
},
{
name = top;
position = "{533, 710}";
}
);
backgroundImage = {
imagePath = "../../FONT/Glyphs/1878 Limprimerie Berger Levrault Notice historique/Romain/JACOB-notice-187513.jpg";
locked = "1";
transform = "{2.487, 0, 3.67699, 2.618, -8841, -3852}";
};
layerId = "9372F035-DA38-4B54-966C-CEBA9B53DD02";
paths = (
{
closed = 1;
nodes = (
"567 0 LINE",
"693 -2 LINE",
"702 23 LINE",
"683 25 LINE SMOOTH",
"630 30 OFFCURVE",
"608 61 OFFCURVE",
"571 146 CURVE SMOOTH",
"380 581 LINE SMOOTH",
"372 601 OFFCURVE",
"370 617 OFFCURVE",
"370 631 CURVE SMOOTH",
"370 665 OFFCURVE",
"394 682 OFFCURVE",
"435 686 CURVE SMOOTH",
"456 688 LINE",
"465 713 LINE",
"316 710 LINE",
"187 713 LINE",
"178 688 LINE",
"197 686 LINE SMOOTH",
"248 681 OFFCURVE",
"270 648 OFFCURVE",
"294 593 CURVE SMOOTH",
"507 104 LINE SMOOTH",
"511 94 OFFCURVE",
"513 85 OFFCURVE",
"513 76 CURVE SMOOTH",
"513 48 OFFCURVE",
"489 30 OFFCURVE",
"445 25 CURVE SMOOTH",
"424 23 LINE",
"415 -2 LINE"
);
},
{
closed = 1;
nodes = (
"86 1 LINE",
"207 -2 LINE",
"216 23 LINE",
"197 25 LINE SMOOTH",
"153 29 OFFCURVE",
"126 41 OFFCURVE",
"125 61 CURVE SMOOTH",
"125 72 OFFCURVE",
"132 87 OFFCURVE",
"152 104 CURVE SMOOTH",
"433 364 LINE",
"412 386 LINE",
"107 102 LINE SMOOTH",
"58 58 OFFCURVE",
"19 31 OFFCURVE",
"-17 26 CURVE SMOOTH",
"-38 23 LINE",
"-47 -2 LINE"
);
},
{
closed = 1;
nodes = (
"718 609 LINE SMOOTH",
"767 653 OFFCURVE",
"807 680 OFFCURVE",
"842 685 CURVE SMOOTH",
"863 688 LINE",
"872 713 LINE",
"746 710 LINE",
"618 713 LINE",
"609 688 LINE",
"628 686 LINE SMOOTH",
"677 681 OFFCURVE",
"704 672 OFFCURVE",
"705 654 CURVE SMOOTH",
"705 642 OFFCURVE",
"695 628 OFFCURVE",
"675 609 CURVE SMOOTH",
"427 382 LINE",
"448 360 LINE"
);
}
);
width = 744;
}
);
rightKerningGroup = X;
unicode = 0058;
},
{
color = 6;
glyphname = Y;
layers = (
{
anchors = (
{
name = bottom;
position = "{287, 0}";
},
{
name = top;
position = "{521, 710}";
},
{
name = topleft;
position = "{221, 710}";
}
);
backgroundImage = {
imagePath = "../../FONT/Glyphs/1788-89 Epreuves des caracteres de Rolland et Jacob/p19.jpg";
locked = "1";
transform = "{62.544, 0, 92.46661, 65.836, -7057, -12922}";
};
layerId = "9372F035-DA38-4B54-966C-CEBA9B53DD02";
paths = (
{
closed = 1;
nodes = (
"670 601 LINE SMOOTH",
"713 654 OFFCURVE",
"754 680 OFFCURVE",
"790 685 CURVE SMOOTH",
"811 688 LINE",
"820 713 LINE",
"694 710 LINE",
"566 713 LINE",
"557 688 LINE",
"576 686 LINE SMOOTH",
"626 681 OFFCURVE",
"654 672 OFFCURVE",
"654 648 CURVE SMOOTH",
"654 635 OFFCURVE",
"646 618 OFFCURVE",
"628 595 CURVE SMOOTH",
"393 299 LINE",
"414 280 LINE"
);
},
{
closed = 1;
nodes = (
"295 0 LINE",
"468 -3 LINE",
"477 22 LINE",
"458 24 LINE SMOOTH",
"399 30 OFFCURVE",
"361 35 OFFCURVE",
"361 70 CURVE SMOOTH",
"361 76 OFFCURVE",
"362 82 OFFCURVE",
"364 89 CURVE SMOOTH",
"421 292 LINE",
"341 292 LINE",
"288 102 LINE SMOOTH",
"265 33 OFFCURVE",
"241 31 OFFCURVE",
"180 24 CURVE SMOOTH",
"159 22 LINE",
"150 -3 LINE"
);
},
{
closed = 1;
nodes = (
"416 279 LINE",
"338 581 LINE SMOOTH",
"334 598 OFFCURVE",
"331 613 OFFCURVE",
"331 626 CURVE SMOOTH",
"331 664 OFFCURVE",
"352 682 OFFCURVE",
"397 686 CURVE SMOOTH",
"418 688 LINE",
"427 713 LINE",
"281 710 LINE",
"150 713 LINE",
"141 688 LINE",
"160 686 LINE SMOOTH",
"236 678 OFFCURVE",
"243 650 OFFCURVE",
"257 593 CURVE SMOOTH",
"340 259 LINE"
);
}
);
width = 663;
}
);
leftKerningGroup = Y;
rightKerningGroup = Y;
unicode = 0059;
},
{
color = 6;
glyphname = Z;
layers = (
{
anchors = (
{
name = bottom;
position = "{244, 0}";
},
{
name = top;
position = "{478, 710}";
}
);
layerId = "9372F035-DA38-4B54-966C-CEBA9B53DD02";
paths = (
{
closed = 1;
nodes = (
"586 1 LINE",
"607 107 LINE",
"644 260 LINE",
"618 260 LINE",
"556 99 OFFCURVE",
"513 29 OFFCURVE",
"327 29 CURVE SMOOTH",
"78 29 LINE",
"85 9 LINE",
"762 703 LINE",
"759 710 LINE",
"236 710 LINE",
"159 506 LINE",
"185 506 LINE",
"237 613 OFFCURVE",
"262 685 OFFCURVE",
"415 685 CURVE SMOOTH",
"710 685 LINE",
"661 703 LINE",
"-16 9 LINE",
"-9 0 LINE"
);
}
);
width = 675;
}
);
leftKerningGroup = I;
rightKerningGroup = I;
unicode = 005A;
},
{
color = 6;
glyphname = a;
layers = (
{
anchors = (
{
name = bottom;
position = "{191, 0}";
},
{
name = ogonek;
position = "{440, 0}";
},
{
name = top;
position = "{327, 440}";
}
);
backgroundImage = {
imagePath = "../../../../1878 Limprimerie Berger Levrault Notice historique/Italique/La Rehab.jpg";
locked = "1";
transform = "{12.739, 0, 4.63662, 12.739, -3662, -249}";
};
guideLines = (
{
angle = 69.8938;
position = "{357, 215}";
}
);
layerId = "9372F035-DA38-4B54-966C-CEBA9B53DD02";
paths = (
{
closed = 1;
nodes = (
"233 -14 OFFCURVE",
"296 37 OFFCURVE",
"343 120 CURVE",
"416 318 LINE",
"420 395 OFFCURVE",
"390 454 OFFCURVE",
"319 454 CURVE SMOOTH",
"189 454 OFFCURVE",
"27 296 OFFCURVE",
"27 127 CURVE SMOOTH",
"27 52 OFFCURVE",
"68 -14 OFFCURVE",
"162 -14 CURVE SMOOTH"
);
},
{
closed = 1;
nodes = (
"129 12 OFFCURVE",
"102 44 OFFCURVE",
"102 107 CURVE SMOOTH",
"102 242 OFFCURVE",
"219 428 OFFCURVE",
"325 428 CURVE SMOOTH",
"372 428 OFFCURVE",
"394 390 OFFCURVE",
"394 336 CURVE SMOOTH",
"394 306 OFFCURVE",
"387 270 OFFCURVE",
"374 234 CURVE SMOOTH",
"327 103 OFFCURVE",
"253 12 OFFCURVE",
"172 12 CURVE SMOOTH"
);
},
{
closed = 1;
nodes = (
"427 -14 OFFCURVE",
"467 33 OFFCURVE",
"492 75 CURVE",
"474 87 LINE",
"457 57 OFFCURVE",
"426 19 OFFCURVE",
"397 19 CURVE SMOOTH",
"386 19 OFFCURVE",
"381 26 OFFCURVE",
"381 39 CURVE SMOOTH",
"381 50 OFFCURVE",
"385 65 OFFCURVE",
"391 85 CURVE SMOOTH",
"516 440 LINE",
"450 440 LINE",
"329 113 LINE SMOOTH",
"320 87 OFFCURVE",
"314 62 OFFCURVE",
"314 41 CURVE SMOOTH",
"314 8 OFFCURVE",
"329 -14 OFFCURVE",
"370 -14 CURVE SMOOTH"
);
}
);
width = 533;
}
);
leftKerningGroup = a;
leftMetricsKey = o;
rightKerningGroup = u;
unicode = 0061;
},
{
color = 3;
glyphname = ae;
layers = (
{
components = (
{
name = e;
transform = "{1, 0, 0, 1, 234, 0}";
}
);
layerId = "9372F035-DA38-4B54-966C-CEBA9B53DD02";
paths = (
{
closed = 1;
nodes = (
"365 247 OFFCURVE",
"375 301 OFFCURVE",
"375 353 CURVE SMOOTH",
"375 418 OFFCURVE",
"335 454 OFFCURVE",
"251 454 CURVE SMOOTH",
"136 454 OFFCURVE",
"96 394 OFFCURVE",
"96 354 CURVE SMOOTH",
"96 330 OFFCURVE",
"108 311 OFFCURVE",
"136 311 CURVE SMOOTH",
"165 311 OFFCURVE",
"179 332 OFFCURVE",
"181 357 CURVE SMOOTH",
"184 392 OFFCURVE",
"199 432 OFFCURVE",
"255 432 CURVE SMOOTH",
"298 432 OFFCURVE",
"314 404 OFFCURVE",
"314 367 CURVE SMOOTH",
"314 336 OFFCURVE",
"303 290 OFFCURVE",
"294 260 CURVE",
"332 118 LINE"
);
},
{
closed = 1;
nodes = (
"189 -11 OFFCURVE",
"256 32 OFFCURVE",
"296 93 CURVE",
"290 130 LINE",
"269 78 OFFCURVE",
"204 24 OFFCURVE",
"161 24 CURVE SMOOTH",
"125 24 OFFCURVE",
"101 44 OFFCURVE",
"101 75 CURVE SMOOTH",
"101 165 OFFCURVE",
"236 222 OFFCURVE",
"319 247 CURVE",
"322 270 LINE",
"226 244 OFFCURVE",
"26 174 OFFCURVE",
"26 62 CURVE SMOOTH",
"26 14 OFFCURVE",
"70 -11 OFFCURVE",
"132 -11 CURVE SMOOTH"
);
}
);
width = 652;
}
);
leftKerningGroup = a;
leftMetricsKey = a;
rightKerningGroup = e;
rightMetricsKey = e;
unicode = 00E6;
},
{
color = 6;
glyphname = b;
layers = (
{
anchors = (
{
name = bottom;
position = "{157, 0}";
},
{
name = top;
position = "{317, 440}";
}
);
backgroundImage = {
imagePath = "../../../../1878 Limprimerie Berger Levrault Notice historique/Italique/La Rehab.jpg";
locked = "1";
transform = "{12.739, 0, 4.63662, 12.739, -4227, -249}";
};
layerId = "9372F035-DA38-4B54-966C-CEBA9B53DD02";
paths = (
{
closed = 1;
nodes = (
"320 -14 OFFCURVE",
"460 128 OFFCURVE",
"460 300 CURVE SMOOTH",
"460 397 OFFCURVE",
"409 454 OFFCURVE",
"333 454 CURVE SMOOTH",
"297 454 OFFCURVE",
"261 438 OFFCURVE",
"231 414 CURVE SMOOTH",
"209 398 OFFCURVE",
"193 379 OFFCURVE",
"177 354 CURVE",
"179 343 LINE",
"296 713 LINE",
"134 710 LINE",
"127 686 LINE",
"164 686 OFFCURVE",
"202 689 OFFCURVE",
"202 653 CURVE SMOOTH",
"202 644 OFFCURVE",
"200 633 OFFCURVE",
"195 619 CURVE SMOOTH",
"71 233 LINE SMOOTH",
"55 184 OFFCURVE",
"46 142 OFFCURVE",
"46 108 CURVE SMOOTH",
"46 26 OFFCURVE",
"94 -14 OFFCURVE",
"179 -14 CURVE SMOOTH"
);
},
{
closed = 1;
nodes = (
"140 8 OFFCURVE",
"113 38 OFFCURVE",
"113 91 CURVE SMOOTH",
"113 125 OFFCURVE",
"119 169 OFFCURVE",
"137 221 CURVE SMOOTH",
"156 274 LINE SMOOTH",
"185 353 OFFCURVE",
"258 426 OFFCURVE",
"312 426 CURVE SMOOTH",
"355 426 OFFCURVE",
"384 394 OFFCURVE",
"384 317 CURVE SMOOTH",
"384 183 OFFCURVE",
"283 8 OFFCURVE",
"179 8 CURVE SMOOTH"
);
}
);
width = 493;
}
);
leftKerningGroup = l;
rightKerningGroup = b;
rightMetricsKey = o;
unicode = 0062;
},
{
color = 6;
glyphname = c;
layers = (
{
anchors = (
{
name = bottom;
position = "{204, 0}";
},
{
name = top;
position = "{304, 440}";
}
);
backgroundImage = {
imagePath = "../../../../1878 Limprimerie Berger Levrault Notice historique/Italique/Nancy.JPG";
locked = "1";
transform = "{2.69759, -0.04769, 1.05496, 2.74987, -6434, -3916}";
};
layerId = "9372F035-DA38-4B54-966C-CEBA9B53DD02";
paths = (
{
closed = 1;
nodes = (
"284 -14 OFFCURVE",
"339 33 OFFCURVE",
"368 90 CURVE",
"350 103 LINE",
"339 84 OFFCURVE",
"327 68 OFFCURVE",
"311 53 CURVE SMOOTH",
"284 26 OFFCURVE",
"249 11 OFFCURVE",
"217 11 CURVE SMOOTH",
"144 11 OFFCURVE",
"114 73 OFFCURVE",
"114 148 CURVE SMOOTH",
"114 275 OFFCURVE",
"217 432 OFFCURVE",
"326 432 CURVE SMOOTH",
"363 432 OFFCURVE",
"358 409 OFFCURVE",
"358 367 CURVE SMOOTH",
"358 343 OFFCURVE",
"374 327 OFFCURVE",
"399 327 CURVE SMOOTH",
"429 327 OFFCURVE",
"444 354 OFFCURVE",
"444 379 CURVE SMOOTH",
"444 405 OFFCURVE",
"431 454 OFFCURVE",
"332 454 CURVE SMOOTH",
"188 454 OFFCURVE",
"36 318 OFFCURVE",
"36 155 CURVE SMOOTH",
"36 56 OFFCURVE",
"92 -14 OFFCURVE",
"200 -14 CURVE SMOOTH"
);
}
);
width = 438;
}
);
leftKerningGroup = o;
leftMetricsKey = o;
rightKerningGroup = o;
unicode = 0063;
},
{
color = 6;
glyphname = d;
layers = (
{
anchors = (
{
name = bottom;
position = "{183, 0}";
},
{
name = center;
position = "{513, 531}";
},
{
name = top;
position = "{322, 440}";
},
{
name = topright;
position = "{619, 710}";
}
);
layerId = "9372F035-DA38-4B54-966C-CEBA9B53DD02";
paths = (
{
closed = 1;
nodes = (
"233 -14 OFFCURVE",
"296 37 OFFCURVE",
"343 120 CURVE",
"416 318 LINE",
"420 395 OFFCURVE",
"390 454 OFFCURVE",
"319 454 CURVE SMOOTH",
"189 454 OFFCURVE",
"27 296 OFFCURVE",
"27 127 CURVE SMOOTH",
"27 52 OFFCURVE",
"68 -14 OFFCURVE",
"162 -14 CURVE SMOOTH"
);
},
{
closed = 1;
nodes = (
"129 12 OFFCURVE",
"102 44 OFFCURVE",
"102 107 CURVE SMOOTH",
"102 242 OFFCURVE",
"219 428 OFFCURVE",
"325 428 CURVE SMOOTH",
"372 428 OFFCURVE",
"394 390 OFFCURVE",
"394 336 CURVE SMOOTH",
"394 306 OFFCURVE",
"387 270 OFFCURVE",
"374 234 CURVE SMOOTH",
"328 103 OFFCURVE",
"253 12 OFFCURVE",
"172 12 CURVE SMOOTH"
);
},
{
closed = 1;
nodes = (
"433 -14 OFFCURVE",
"473 33 OFFCURVE",
"498 75 CURVE",
"480 87 LINE",
"463 57 OFFCURVE",
"432 19 OFFCURVE",
"403 19 CURVE SMOOTH",
"392 19 OFFCURVE",
"387 26 OFFCURVE",
"387 39 CURVE SMOOTH",
"387 50 OFFCURVE",
"391 65 OFFCURVE",
"397 85 CURVE SMOOTH",
"602 713 LINE",
"440 710 LINE",
"433 686 LINE",
"470 686 OFFCURVE",
"506 689 OFFCURVE",
"506 652 CURVE SMOOTH",
"506 643 OFFCURVE",
"504 630 OFFCURVE",
"499 615 CURVE SMOOTH",
"335 113 LINE SMOOTH",
"326 87 OFFCURVE",
"320 62 OFFCURVE",
"320 41 CURVE SMOOTH",
"320 8 OFFCURVE",
"335 -14 OFFCURVE",
"376 -14 CURVE SMOOTH"
);
}
);
width = 539;
}
);
leftKerningGroup = o;
leftMetricsKey = o;
rightKerningGroup = l;
unicode = 0064;
},
{
color = 6;
glyphname = eth;
layers = (
{
anchors = (
{
name = bottom;
position = "{177, 0}";
},
{
name = center;
position = "{257, 220}";
},
{
name = ogonek;
position = "{320, 0}";
},
{
name = top;
position = "{321, 440}";
},
{
name = topright;
position = "{531, 440}";
}
);
layerId = "9372F035-DA38-4B54-966C-CEBA9B53DD02";
paths = (
{
closed = 1;
nodes = (
"393 -14 OFFCURVE",
"504 202 OFFCURVE",
"504 384 CURVE SMOOTH",
"504 522 OFFCURVE",
"420 659 OFFCURVE",
"322 724 CURVE",
"300 724 LINE",
"404 606 OFFCURVE",
"438 530 OFFCURVE",
"438 387 CURVE",
"449 394 LINE",
"423 430 OFFCURVE",
"378 454 OFFCURVE",
"318 454 CURVE SMOOTH",
"168 454 OFFCURVE",
"36 308 OFFCURVE",
"36 149 CURVE SMOOTH",
"36 62 OFFCURVE",
"89 -14 OFFCURVE",
"196 -14 CURVE SMOOTH"
);
},
{
closed = 1;
nodes = (
"138 8 OFFCURVE",
"107 47 OFFCURVE",
"107 121 CURVE SMOOTH",
"107 233 OFFCURVE",
"198 432 OFFCURVE",
"320 432 CURVE SMOOTH",
"377 432 OFFCURVE",
"408 394 OFFCURVE",
"408 322 CURVE SMOOTH",
"408 209 OFFCURVE",
"317 8 OFFCURVE",
"195 8 CURVE SMOOTH"
);
},
{
closed = 1;
nodes = (
"543 619 LINE",
"543 643 LINE",
"270 595 LINE",
"270 570 LINE"
);
}
);
width = 518;
}
);
leftKerningGroup = o;
leftMetricsKey = o;
rightKerningGroup = O;
rightMetricsKey = o;
unicode = 00F0;
},
{
color = 6;
glyphname = e;
layers = (
{
anchors = (
{
name = bottom;
position = "{187, 0}";
},
{
name = ogonek;
position = "{281, 0}";
},
{
name = top;
position = "{299, 440}";
}
);
layerId = "9372F035-DA38-4B54-966C-CEBA9B53DD02";
paths = (
{
closed = 1;
nodes = (
"262 -14 OFFCURVE",
"310 33 OFFCURVE",
"341 76 CURVE",
"324 90 LINE",
"298 54 OFFCURVE",
"253 12 OFFCURVE",
"201 12 CURVE SMOOTH",
"136 12 OFFCURVE",
"112 76 OFFCURVE",
"112 134 CURVE SMOOTH",
"112 275 OFFCURVE",
"218 432 OFFCURVE",
"307 432 CURVE SMOOTH",
"339 432 OFFCURVE",
"351 411 OFFCURVE",
"351 381 CURVE SMOOTH",
"350 347 OFFCURVE",
"329 271 OFFCURVE",
"187 251 CURVE SMOOTH",
"122 242 LINE",
"119 221 LINE",
"208 230 LINE SMOOTH",
"331 243 OFFCURVE",
"408 287 OFFCURVE",
"410 366 CURVE SMOOTH",
"410 418 OFFCURVE",
"371 452 OFFCURVE",
"308 452 CURVE SMOOTH",
"181 452 OFFCURVE",
"37 318 OFFCURVE",
"37 154 CURVE SMOOTH",
"37 66 OFFCURVE",
"82 -14 OFFCURVE",
"188 -14 CURVE SMOOTH"
);
}
);
width = 418;
}
);
leftKerningGroup = o;
leftMetricsKey = o;
rightKerningGroup = o;
unicode = 0065;
},
{
color = 6;
glyphname = f;
layers = (
{
guideLines = (
{
angle = 72;
position = "{72, 54}";
}
);
layerId = "9372F035-DA38-4B54-966C-CEBA9B53DD02";
paths = (
{
closed = 1;
nodes = (
"-12 -290 OFFCURVE",
"41 -260 OFFCURVE",
"85 -127 CURVE SMOOTH",
"327 611 LINE SMOOTH",
"351 684 OFFCURVE",
"392 702 OFFCURVE",
"418 702 CURVE SMOOTH",
"444 702 OFFCURVE",
"453 689 OFFCURVE",
"453 651 CURVE SMOOTH",
"453 622 OFFCURVE",
"463 601 OFFCURVE",
"494 601 CURVE SMOOTH",
"527 601 OFFCURVE",
"540 627 OFFCURVE",
"540 654 CURVE SMOOTH",
"540 689 OFFCURVE",
"509 724 OFFCURVE",
"436 724 CURVE SMOOTH",
"350 724 OFFCURVE",
"277 683 OFFCURVE",
"234 552 CURVE SMOOTH",
"13 -127 LINE SMOOTH",
"-15 -213 OFFCURVE",
"-46 -268 OFFCURVE",
"-81 -268 CURVE SMOOTH",
"-125 -268 OFFCURVE",
"-102 -170 OFFCURVE",
"-161 -170 CURVE SMOOTH",
"-189 -170 OFFCURVE",
"-210 -190 OFFCURVE",
"-210 -217 CURVE SMOOTH",
"-210 -253 OFFCURVE",
"-181 -290 OFFCURVE",
"-99 -290 CURVE SMOOTH"
);
},
{
closed = 1;
nodes = (
"370 416 LINE",
"378 440 LINE",
"111 440 LINE",
"103 416 LINE"
);
}
);
width = 342;
}
);
leftKerningGroup = f;
rightKerningGroup = f;
unicode = 0066;
},
{
color = 6;
glyphname = g;
layers = (
{
anchors = (
{
name = top;
position = "{286, 440}";
}
);
layerId = "9372F035-DA38-4B54-966C-CEBA9B53DD02";
paths = (
{
closed = 1;
nodes = (
"363 -290 OFFCURVE",
"400 -167 OFFCURVE",
"400 -111 CURVE SMOOTH",
"400 -48 OFFCURVE",
"365 7 OFFCURVE",
"251 21 CURVE SMOOTH",
"131 36 LINE SMOOTH",
"82 42 OFFCURVE",
"64 61 OFFCURVE",
"64 81 CURVE SMOOTH",
"64 110 OFFCURVE",
"97 140 OFFCURVE",
"167 164 CURVE",
"152 181 LINE",
"60 150 OFFCURVE",
"21 107 OFFCURVE",
"21 56 CURVE SMOOTH",
"21 9 OFFCURVE",
"60 -25 OFFCURVE",
"136 -35 CURVE SMOOTH",
"265 -52 LINE SMOOTH",
"332 -61 OFFCURVE",
"355 -99 OFFCURVE",
"355 -135 CURVE SMOOTH",
"355 -204 OFFCURVE",
"292 -268 OFFCURVE",
"170 -268 CURVE SMOOTH",
"57 -268 OFFCURVE",
"27 -224 OFFCURVE",
"27 -197 CURVE SMOOTH",
"27 -170 OFFCURVE",
"46 -149 OFFCURVE",
"46 -124 CURVE SMOOTH",
"46 -106 OFFCURVE",
"35 -83 OFFCURVE",
"5 -83 CURVE SMOOTH",
"-24 -83 OFFCURVE",
"-47 -112 OFFCURVE",
"-47 -148 CURVE SMOOTH",
"-47 -206 OFFCURVE",
"19 -290 OFFCURVE",
"167 -290 CURVE SMOOTH"
);
},
{
closed = 1;
nodes = (
"352 134 OFFCURVE",
"447 212 OFFCURVE",
"447 315 CURVE SMOOTH",
"447 384 OFFCURVE",
"399 453 OFFCURVE",
"293 453 CURVE SMOOTH",
"180 453 OFFCURVE",
"91 374 OFFCURVE",
"91 272 CURVE SMOOTH",
"91 208 OFFCURVE",
"131 134 OFFCURVE",
"251 134 CURVE SMOOTH"
);
},
{
closed = 1;
nodes = (
"192 158 OFFCURVE",
"159 197 OFFCURVE",
"159 250 CURVE SMOOTH",
"159 330 OFFCURVE",
"209 429 OFFCURVE",
"295 429 CURVE SMOOTH",
"347 429 OFFCURVE",
"379 391 OFFCURVE",
"379 338 CURVE SMOOTH",
"379 267 OFFCURVE",
"334 158 OFFCURVE",
"241 158 CURVE SMOOTH"
);
},
{
closed = 1;
nodes = (
"560 378 OFFCURVE",
"575 399 OFFCURVE",
"575 419 CURVE SMOOTH",
"575 452 OFFCURVE",
"546 478 OFFCURVE",
"502 478 CURVE SMOOTH",
"460 478 OFFCURVE",
"407 452 OFFCURVE",
"384 413 CURVE",
"402 403 LINE",
"435 439 OFFCURVE",
"453 449 OFFCURVE",
"469 449 CURVE SMOOTH",
"488 449 OFFCURVE",
"492 435 OFFCURVE",
"492 417 CURVE SMOOTH",
"492 391 OFFCURVE",
"512 378 OFFCURVE",
"534 378 CURVE SMOOTH"
);
}
);
width = 534;
}
);
leftKerningGroup = g;
rightKerningGroup = g;
unicode = 0067;
},
{
color = 6;
glyphname = h;
layers = (
{
anchors = (
{
name = bottom;
position = "{182, 0}";
},
{
name = center;
position = "{225, 521}";
},
{
name = top;
position = "{259, 710}";
}
);
backgroundImage = {
imagePath = "../../../../1878 Limprimerie Berger Levrault Notice historique/Italique/La Rehab.jpg";
locked = "1";
transform = "{12.73917, 0, 9.27336, 12.73917, -3540, -264}";
};
guideLines = (
{
angle = 72;
position = "{2, -13}";
},
{
angle = 72;
position = "{73, -13}";
}
);
layerId = "9372F035-DA38-4B54-966C-CEBA9B53DD02";
paths = (
{
closed = 1;
nodes = (
"161 257 LINE",
"186 326 OFFCURVE",
"283 429 OFFCURVE",
"359 429 CURVE SMOOTH",
"380 429 OFFCURVE",
"397 417 OFFCURVE",
"397 391 CURVE SMOOTH",
"397 381 OFFCURVE",
"395 370 OFFCURVE",
"390 356 CURVE SMOOTH",
"303 110 LINE SMOOTH",
"294 84 OFFCURVE",
"288 60 OFFCURVE",
"288 40 CURVE SMOOTH",
"288 8 OFFCURVE",
"303 -14 OFFCURVE",
"344 -14 CURVE SMOOTH",
"401 -14 OFFCURVE",
"441 31 OFFCURVE",
"466 72 CURVE",
"448 84 LINE",
"431 55 OFFCURVE",
"400 19 OFFCURVE",
"371 19 CURVE SMOOTH",
"360 19 OFFCURVE",
"355 26 OFFCURVE",
"355 39 CURVE SMOOTH",
"355 49 OFFCURVE",
"358 63 OFFCURVE",
"364 80 CURVE SMOOTH",
"454 331 LINE SMOOTH",
"461 351 OFFCURVE",
"465 370 OFFCURVE",
"465 388 CURVE SMOOTH",
"465 426 OFFCURVE",
"444 454 OFFCURVE",
"378 454 CURVE SMOOTH",
"289 454 OFFCURVE",
"217 386 OFFCURVE",
"173 322 CURVE"
);
},
{
closed = 1;
nodes = (
"305 702 LINE",
"309 713 LINE",
"147 710 LINE",
"140 686 LINE",
"178 686 OFFCURVE",
"213 690 OFFCURVE",
"213 652 CURVE SMOOTH",
"213 643 OFFCURVE",
"211 631 OFFCURVE",
"206 616 CURVE SMOOTH",
"5 0 LINE",
"77 0 LINE"
);
}
);
width = 518;
}
);
leftKerningGroup = l;
rightKerningGroup = n;
rightMetricsKey = n;
unicode = 0068;
},
{
color = 6;
glyphname = idotless;
layers = (
{
anchors = (
{
name = bottom;
position = "{65, 0}";
},
{
name = ogonek;
position = "{176, 0}";
},
{
name = top;
position = "{203, 440}";
}
);
layerId = "9372F035-DA38-4B54-966C-CEBA9B53DD02";
paths = (
{
closed = 1;
nodes = (
"157 -14 OFFCURVE",
"197 33 OFFCURVE",
"222 75 CURVE",
"204 87 LINE",
"187 57 OFFCURVE",
"156 19 OFFCURVE",
"127 19 CURVE SMOOTH",
"116 19 OFFCURVE",
"111 26 OFFCURVE",
"111 39 CURVE SMOOTH",
"111 50 OFFCURVE",
"115 65 OFFCURVE",
"121 85 CURVE SMOOTH",
"247 443 LINE",
"85 440 LINE",
"78 416 LINE",
"116 416 OFFCURVE",
"154 418 OFFCURVE",
"154 382 CURVE SMOOTH",
"154 373 OFFCURVE",
"151 361 OFFCURVE",
"146 347 CURVE SMOOTH",
"59 113 LINE SMOOTH",
"50 87 OFFCURVE",
"44 62 OFFCURVE",
"44 41 CURVE SMOOTH",
"44 8 OFFCURVE",
"59 -14 OFFCURVE",
"100 -14 CURVE SMOOTH"
);
}
);
width = 279;
}
);
leftKerningGroup = n;
rightKerningGroup = u;
unicode = 0131;
},
{
color = 6;
glyphname = jdotless;
layers = (
{
anchors = (
{
name = bottom;
position = "{72, 0}";
},
{
name = top;
position = "{218, 440}";
}
);
layerId = "9372F035-DA38-4B54-966C-CEBA9B53DD02";
paths = (
{
closed = 1;
nodes = (
"-24 -290 OFFCURVE",
"29 -249 OFFCURVE",
"67 -132 CURVE SMOOTH",
"254 443 LINE",
"92 440 LINE",
"85 416 LINE",
"122 416 OFFCURVE",
"161 417 OFFCURVE",
"161 384 CURVE SMOOTH",
"161 378 OFFCURVE",
"159 370 OFFCURVE",
"156 360 CURVE SMOOTH",
"-2 -127 LINE SMOOTH",
"-30 -214 OFFCURVE",
"-57 -268 OFFCURVE",
"-93 -268 CURVE SMOOTH",
"-137 -268 OFFCURVE",
"-114 -170 OFFCURVE",
"-173 -170 CURVE SMOOTH",
"-201 -170 OFFCURVE",
"-222 -190 OFFCURVE",
"-222 -217 CURVE SMOOTH",
"-222 -253 OFFCURVE",
"-193 -290 OFFCURVE",
"-111 -290 CURVE SMOOTH"
);
}
);
width = 270;
}
);
leftKerningGroup = j;
rightKerningGroup = j;
unicode = 0237;
},
{
color = 6;
glyphname = k;
layers = (
{
anchors = (
{
name = bottom;
position = "{174, 0}";
},
{
name = top;
position = "{334, 440}";
}
);
guideLines = (
{
angle = 72;
position = "{-1350, 212}";
}
);
layerId = "9372F035-DA38-4B54-966C-CEBA9B53DD02";
paths = (
{
closed = 1;
nodes = (
"370 -14 OFFCURVE",
"418 9 OFFCURVE",
"453 72 CURVE",
"436 84 LINE",
"409 39 OFFCURVE",
"379 19 OFFCURVE",
"362 19 CURVE SMOOTH",
"335 19 OFFCURVE",
"335 37 OFFCURVE",
"333 136 CURVE SMOOTH",
"331 249 OFFCURVE",
"298 284 OFFCURVE",
"163 284 CURVE",
"161 269 LINE",
"245 269 OFFCURVE",
"265 236 OFFCURVE",
"265 132 CURVE SMOOTH",
"265 22 OFFCURVE",
"275 -14 OFFCURVE",
"332 -14 CURVE SMOOTH"
);
},
{
closed = 1;
nodes = (
"233 270 OFFCURVE",
"255 295 OFFCURVE",
"298 340 CURVE SMOOTH",
"339 383 LINE SMOOTH",
"357 403 OFFCURVE",
"369 414 OFFCURVE",
"383 414 CURVE SMOOTH",
"387 414 OFFCURVE",
"391 412 OFFCURVE",
"393 409 CURVE SMOOTH",
"397 404 OFFCURVE",
"398 396 OFFCURVE",
"398 373 CURVE SMOOTH",
"398 348 OFFCURVE",
"417 337 OFFCURVE",
"435 337 CURVE SMOOTH",
"461 337 OFFCURVE",
"478 362 OFFCURVE",
"478 392 CURVE SMOOTH",
"478 411 OFFCURVE",
"471 454 OFFCURVE",
"418 454 CURVE SMOOTH",
"384 454 OFFCURVE",
"360 433 OFFCURVE",
"323 394 CURVE SMOOTH",
"286 355 LINE SMOOTH",
"243 310 OFFCURVE",
"214 284 OFFCURVE",
"143 284 CURVE",
"143 270 LINE"
);
},
{
closed = 1;
nodes = (
"308 713 LINE",
"147 710 LINE",
"140 686 LINE",
"178 686 OFFCURVE",
"213 690 OFFCURVE",
"213 652 CURVE SMOOTH",
"213 643 OFFCURVE",
"211 631 OFFCURVE",
"206 616 CURVE SMOOTH",
"5 0 LINE",
"77 0 LINE"
);
}
);
visible = 1;
width = 486;
}
);
leftKerningGroup = l;
leftMetricsKey = h;
rightKerningGroup = k;
unicode = 006B;
},
{
color = 6;
glyphname = l;
layers = (
{
anchors = (
{
name = bottom;
position = "{90, 0}";
},
{
name = center;
position = "{191, 398}";
},
{
name = top;
position = "{274, 710}";
},
{
name = topright;
position = "{332, 710}";
}
);
backgroundImage = {
imagePath = "../../../../1878 Limprimerie Berger Levrault Notice historique/Italique/Reglu.jpg";
locked = "1";
transform = "{12.998, 0, 4.73089, 12.998, -2298, -389}";
};
layerId = "9372F035-DA38-4B54-966C-CEBA9B53DD02";
paths = (
{
closed = 1;
nodes = (
"147 -14 OFFCURVE",
"187 33 OFFCURVE",
"212 75 CURVE",
"194 87 LINE",
"177 57 OFFCURVE",
"146 19 OFFCURVE",
"117 19 CURVE SMOOTH",
"106 19 OFFCURVE",
"101 26 OFFCURVE",
"101 39 CURVE SMOOTH",
"101 50 OFFCURVE",
"105 65 OFFCURVE",
"111 85 CURVE SMOOTH",
"316 713 LINE",
"154 710 LINE",
"147 686 LINE",
"184 686 OFFCURVE",
"220 689 OFFCURVE",
"220 652 CURVE SMOOTH",
"220 643 OFFCURVE",
"218 630 OFFCURVE",
"213 615 CURVE SMOOTH",
"49 113 LINE SMOOTH",
"40 87 OFFCURVE",
"34 62 OFFCURVE",
"34 41 CURVE SMOOTH",
"34 8 OFFCURVE",
"49 -14 OFFCURVE",
"90 -14 CURVE SMOOTH"
);
}
);
width = 265;
}
);
leftKerningGroup = l;
rightKerningGroup = l;
unicode = 006C;
},
{
color = 6;
glyphname = m;
layers = (
{
anchors = (
{
name = bottom;
position = "{304, 0}";
},
{
name = top;
position = "{464, 440}";
}
);
backgroundImage = {
imagePath = "../../../../1878 Limprimerie Berger Levrault Notice historique/Italique/jamais.JPG";
locked = "1";
transform = "{2.77402, 0, 0.99168, 2.7492, -4775, -3929}";
};
layerId = "9372F035-DA38-4B54-966C-CEBA9B53DD02";
paths = (
{
closed = 1;
nodes = (
"662 -14 OFFCURVE",
"701 31 OFFCURVE",
"726 72 CURVE",
"708 84 LINE",
"691 55 OFFCURVE",
"660 19 OFFCURVE",
"637 19 CURVE SMOOTH",
"624 19 OFFCURVE",
"619 30 OFFCURVE",
"619 45 CURVE SMOOTH",
"619 61 OFFCURVE",
"624 82 OFFCURVE",
"631 103 CURVE SMOOTH",
"714 331 LINE SMOOTH",
"721 349 OFFCURVE",
"724 366 OFFCURVE",
"724 383 CURVE SMOOTH",
"724 423 OFFCURVE",
"701 454 OFFCURVE",
"638 454 CURVE SMOOTH",
"566 454 OFFCURVE",
"505 405 OFFCURVE",
"464 351 CURVE",
"466 362 OFFCURVE",
"467 372 OFFCURVE",
"467 382 CURVE SMOOTH",
"467 423 OFFCURVE",
"448 454 OFFCURVE",
"384 454 CURVE SMOOTH",
"309 454 OFFCURVE",
"248 402 OFFCURVE",
"206 346 CURVE",
"235 443 LINE",
"88 440 LINE",
"80 416 LINE",
"117 416 OFFCURVE",
"148 419 OFFCURVE",
"148 386 CURVE SMOOTH",
"148 376 OFFCURVE",
"145 362 OFFCURVE",
"138 344 CURVE SMOOTH",
"14 0 LINE",
"86 0 LINE",
"179 257 LINE SMOOTH",
"205 328 OFFCURVE",
"294 429 OFFCURVE",
"365 429 CURVE SMOOTH",
"386 429 OFFCURVE",
"403 418 OFFCURVE",
"403 391 CURVE SMOOTH",
"403 381 OFFCURVE",
"401 370 OFFCURVE",
"396 356 CURVE SMOOTH",
"266 0 LINE",
"340 0 LINE",
"437 267 LINE SMOOTH",
"463 339 OFFCURVE",
"551 429 OFFCURVE",
"619 429 CURVE SMOOTH",
"640 429 OFFCURVE",
"657 418 OFFCURVE",
"657 392 CURVE SMOOTH",
"657 382 OFFCURVE",
"655 370 OFFCURVE",
"650 356 CURVE SMOOTH",
"569 135 LINE SMOOTH",
"557 100 OFFCURVE",
"549 70 OFFCURVE",
"549 45 CURVE SMOOTH",
"549 9 OFFCURVE",
"566 -14 OFFCURVE",
"613 -14 CURVE SMOOTH"
);
}
);
width = 778;
}
);
leftKerningGroup = n;
leftMetricsKey = n;
rightKerningGroup = n;
rightMetricsKey = n;
unicode = 006D;
},
{
color = 6;
glyphname = n;
layers = (
{
anchors = (
{
name = bottom;
position = "{183, 0}";
},
{
name = top;
position = "{334, 440}";
}
);
layerId = "9372F035-DA38-4B54-966C-CEBA9B53DD02";
paths = (
{
closed = 1;
nodes = (
"419 -14 OFFCURVE",
"459 31 OFFCURVE",
"484 72 CURVE",
"466 84 LINE",
"449 55 OFFCURVE",
"421 19 OFFCURVE",
"391 19 CURVE SMOOTH",
"368 19 OFFCURVE",
"372 52 OFFCURVE",
"382 80 CURVE SMOOTH",
"472 331 LINE SMOOTH",
"500 410 OFFCURVE",
"477 454 OFFCURVE",
"396 454 CURVE SMOOTH",
"309 454 OFFCURVE",
"237 388 OFFCURVE",
"194 323 CURVE",
"196 312 LINE",
"235 443 LINE",
"88 440 LINE",
"80 416 LINE",
"143 416 OFFCURVE",
"161 409 OFFCURVE",
"138 344 CURVE SMOOTH",
"14 0 LINE",
"86 0 LINE",
"179 257 LINE SMOOTH",
"205 329 OFFCURVE",
"301 429 OFFCURVE",
"374 429 CURVE SMOOTH",
"413 429 OFFCURVE",
"423 398 OFFCURVE",
"408 356 CURVE SMOOTH",
"321 110 LINE SMOOTH",
"312 84 OFFCURVE",
"306 60 OFFCURVE",
"306 40 CURVE SMOOTH",
"306 8 OFFCURVE",
"321 -14 OFFCURVE",
"362 -14 CURVE SMOOTH"
);
}
);
width = 536;
}
);
leftKerningGroup = n;
rightKerningGroup = n;
unicode = 006E;
},
{
color = 6;
glyphname = eng;
layers = (
{
anchors = (
{
name = bottom;
position = "{183, 0}";
},
{
name = top;
position = "{323, 440}";
}
);
layerId = "9372F035-DA38-4B54-966C-CEBA9B53DD02";
paths = (
{
closed = 1;
nodes = (
"207 -290 OFFCURVE",
"259 -247 OFFCURVE",
"301 -132 CURVE SMOOTH",
"472 331 LINE SMOOTH",
"479 351 OFFCURVE",
"483 370 OFFCURVE",
"483 388 CURVE SMOOTH",
"483 426 OFFCURVE",
"462 454 OFFCURVE",
"396 454 CURVE SMOOTH",
"272 454 OFFCURVE",
"181 323 OFFCURVE",
"156 255 CURVE",
"179 257 LINE",
"206 329 OFFCURVE",
"301 429 OFFCURVE",
"377 429 CURVE SMOOTH",
"398 429 OFFCURVE",
"415 417 OFFCURVE",
"415 391 CURVE SMOOTH",
"415 381 OFFCURVE",
"413 370 OFFCURVE",
"408 356 CURVE SMOOTH",
"233 -127 LINE SMOOTH",
"203 -210 OFFCURVE",
"173 -268 OFFCURVE",
"138 -268 CURVE SMOOTH",
"94 -268 OFFCURVE",
"117 -170 OFFCURVE",
"58 -170 CURVE SMOOTH",
"30 -170 OFFCURVE",
"9 -190 OFFCURVE",
"9 -217 CURVE SMOOTH",
"9 -253 OFFCURVE",
"38 -290 OFFCURVE",
"120 -290 CURVE SMOOTH"
);
},
{
closed = 1;
nodes = (
"86 0 LINE",
"209 340 LINE",
"205 342 LINE",
"235 443 LINE",
"88 440 LINE",
"80 416 LINE",
"117 416 OFFCURVE",
"148 419 OFFCURVE",
"148 386 CURVE SMOOTH",
"148 376 OFFCURVE",
"145 362 OFFCURVE",
"138 344 CURVE SMOOTH",
"14 0 LINE"
);
}
);
width = 507;
}
);
leftKerningGroup = n;
leftMetricsKey = n;
rightKerningGroup = n;
rightMetricsKey = j;
unicode = 014B;
},
{
color = 6;
glyphname = o;
layers = (
{
anchors = (
{
name = bottom;
position = "{177, 0}";
},
{
name = center;
position = "{257, 220}";
},
{
name = ogonek;
position = "{320, 0}";
},
{
name = top;
position = "{334, 440}";
},
{
name = topright;
position = "{531, 440}";
}
);
layerId = "9372F035-DA38-4B54-966C-CEBA9B53DD02";
paths = (
{
closed = 1;
nodes = (
"348 -14 OFFCURVE",
"479 133 OFFCURVE",
"479 294 CURVE SMOOTH",
"479 379 OFFCURVE",
"426 454 OFFCURVE",
"318 454 CURVE SMOOTH",
"168 454 OFFCURVE",
"36 308 OFFCURVE",
"36 149 CURVE SMOOTH",
"36 62 OFFCURVE",
"89 -14 OFFCURVE",
"196 -14 CURVE SMOOTH"
);
},
{
closed = 1;
nodes = (
"138 8 OFFCURVE",
"107 47 OFFCURVE",
"107 121 CURVE SMOOTH",
"107 233 OFFCURVE",
"198 432 OFFCURVE",
"320 432 CURVE SMOOTH",
"377 432 OFFCURVE",
"408 394 OFFCURVE",
"408 322 CURVE SMOOTH",
"408 209 OFFCURVE",
"317 8 OFFCURVE",
"195 8 CURVE SMOOTH"
);
}
);
width = 514;
}
);
leftKerningGroup = o;
rightKerningGroup = o;
unicode = 006F;
},
{
color = 6;
glyphname = p;
layers = (
{
anchors = (
{
name = bottom;
position = "{177, 0}";
},
{
name = top;
position = "{337, 440}";
}
);
backgroundImage = {
imagePath = "../../../../1878 Limprimerie Berger Levrault Notice historique/Italique/reotypie.JPG";
locked = "1";
transform = "{12.63069, 0, 4.5972, 12.63069, -2364, -373}";
};
guideLines = (
{
angle = 72;
position = "{150, 374}";
}
);
layerId = "9372F035-DA38-4B54-966C-CEBA9B53DD02";
paths = (
{
closed = 1;
nodes = (
"80 -280 LINE",
"87 -256 LINE",
"53 -256 LINE SMOOTH",
"21 -256 OFFCURVE",
"21 -243 OFFCURVE",
"34 -201 CURVE SMOOTH",
"136 120 LINE",
"120 118 LINE",
"119 33 OFFCURVE",
"163 -14 OFFCURVE",
"224 -14 CURVE SMOOTH",
"351 -14 OFFCURVE",
"494 130 OFFCURVE",
"494 300 CURVE SMOOTH",
"494 391 OFFCURVE",
"442 454 OFFCURVE",
"361 454 CURVE SMOOTH",
"331 454 OFFCURVE",
"294 442 OFFCURVE",
"256 413 CURVE SMOOTH",
"239 400 OFFCURVE",
"222 383 OFFCURVE",
"205 361 CURVE",
"224 443 LINE",
"90 440 LINE",
"82 416 LINE",
"120 416 OFFCURVE",
"151 420 OFFCURVE",
"151 386 CURVE SMOOTH",
"151 376 OFFCURVE",
"148 363 OFFCURVE",
"142 345 CURVE SMOOTH",
"-37 -200 LINE SMOOTH",
"-53 -249 OFFCURVE",
"-65 -256 OFFCURVE",
"-94 -256 CURVE SMOOTH",
"-118 -256 LINE",
"-126 -280 LINE"
);
},
{
closed = 1;
nodes = (
"173 12 OFFCURVE",
"142 48 OFFCURVE",
"142 112 CURVE SMOOTH",
"142 142 OFFCURVE",
"149 179 OFFCURVE",
"164 221 CURVE SMOOTH",
"183 274 LINE SMOOTH",
"214 357 OFFCURVE",
"287 427 OFFCURVE",
"345 427 CURVE SMOOTH",
"389 427 OFFCURVE",
"419 395 OFFCURVE",
"419 320 CURVE SMOOTH",
"419 182 OFFCURVE",
"320 12 OFFCURVE",
"223 12 CURVE SMOOTH"
);
}
);
width = 527;
}
);
leftKerningGroup = p;
leftMetricsKey = "=i+5";
rightKerningGroup = o;
rightMetricsKey = o;
unicode = 0070;
},
{
color = 6;
glyphname = thorn;
layers = (
{
anchors = (
{
name = bottom;
position = "{177, 0}";
},
{
name = top;
position = "{337, 440}";
}
);
layerId = "9372F035-DA38-4B54-966C-CEBA9B53DD02";
paths = (
{
closed = 1;
nodes = (
"60 -280 LINE",
"67 -256 LINE",
"33 -256 LINE SMOOTH",
"15 -256 OFFCURVE",
"6 -253 OFFCURVE",
"6 -239 CURVE SMOOTH",
"6 -231 OFFCURVE",
"9 -219 OFFCURVE",
"15 -201 CURVE SMOOTH",
"121 90 LINE",
"129 23 OFFCURVE",
"170 -14 OFFCURVE",
"224 -14 CURVE SMOOTH",
"351 -14 OFFCURVE",
"494 130 OFFCURVE",
"494 300 CURVE SMOOTH",
"494 391 OFFCURVE",
"442 454 OFFCURVE",
"361 454 CURVE SMOOTH",
"331 454 OFFCURVE",
"294 442 OFFCURVE",
"256 413 CURVE SMOOTH",
"244 404 OFFCURVE",
"232 393 OFFCURVE",
"220 379 CURVE",
"348 713 LINE",
"182 710 LINE",
"175 686 LINE",
"212 686 OFFCURVE",
"250 689 OFFCURVE",
"250 652 CURVE SMOOTH",
"250 643 OFFCURVE",
"248 630 OFFCURVE",
"242 615 CURVE SMOOTH",
"-57 -200 LINE SMOOTH",
"-75 -248 OFFCURVE",
"-85 -256 OFFCURVE",
"-114 -256 CURVE SMOOTH",
"-138 -256 LINE",
"-146 -280 LINE"
);
},
{
closed = 1;
nodes = (
"173 12 OFFCURVE",
"142 48 OFFCURVE",
"142 112 CURVE SMOOTH",
"142 142 OFFCURVE",
"149 179 OFFCURVE",
"164 221 CURVE SMOOTH",
"183 274 LINE SMOOTH",
"214 357 OFFCURVE",
"287 427 OFFCURVE",
"345 427 CURVE SMOOTH",
"389 427 OFFCURVE",
"419 395 OFFCURVE",
"419 320 CURVE SMOOTH",
"419 182 OFFCURVE",
"320 12 OFFCURVE",
"223 12 CURVE SMOOTH"
);
}
);
width = 527;
}
);
unicode = 00FE;
},
{
color = 6;
glyphname = q;
layers = (
{
anchors = (
{
name = bottom;
position = "{185, 0}";
},
{
name = top;
position = "{335, 440}";
}
);
backgroundImage = {
imagePath = "../../../../1878 Limprimerie Berger Levrault Notice historique/Italique/ilboquet.JPG";
locked = "1";
transform = "{3.05733, 0, 0.90466, 2.75665, -5713, -3929}";
};
layerId = "9372F035-DA38-4B54-966C-CEBA9B53DD02";
paths = (
{
closed = 1;
nodes = (
"343 -280 LINE",
"350 -256 LINE",
"316 -256 LINE SMOOTH",
"286 -256 OFFCURVE",
"285 -237 OFFCURVE",
"297 -201 CURVE SMOOTH",
"507 440 LINE",
"437 440 LINE",
"404 329 LINE",
"417 334 LINE",
"415 403 OFFCURVE",
"385 454 OFFCURVE",
"319 454 CURVE SMOOTH",
"189 454 OFFCURVE",
"27 296 OFFCURVE",
"27 127 CURVE SMOOTH",
"27 52 OFFCURVE",
"68 -14 OFFCURVE",
"162 -14 CURVE SMOOTH",
"225 -14 OFFCURVE",
"281 26 OFFCURVE",
"325 93 CURVE",
"328 109 LINE",
"226 -200 LINE SMOOTH",
"212 -242 OFFCURVE",
"186 -256 OFFCURVE",
"155 -256 CURVE SMOOTH",
"125 -256 LINE",
"117 -280 LINE"
);
},
{
closed = 1;
nodes = (
"129 12 OFFCURVE",
"102 44 OFFCURVE",
"102 107 CURVE SMOOTH",
"102 242 OFFCURVE",
"219 428 OFFCURVE",
"325 428 CURVE SMOOTH",
"372 428 OFFCURVE",
"394 390 OFFCURVE",
"394 336 CURVE SMOOTH",
"394 306 OFFCURVE",
"387 270 OFFCURVE",
"374 234 CURVE SMOOTH",
"327 103 OFFCURVE",
"253 12 OFFCURVE",
"172 12 CURVE SMOOTH"
);
}
);
width = 508;
}
);
leftKerningGroup = o;
leftMetricsKey = o;
rightKerningGroup = u;
unicode = 0071;
},
{
color = 6;
glyphname = r;
layers = (
{
anchors = (
{
name = bottom;
position = "{39, 0}";
},
{
name = top;
position = "{263, 440}";
}
);
guideLines = (
{
position = "{-89, 430}";
}
);
layerId = "9372F035-DA38-4B54-966C-CEBA9B53DD02";
paths = (
{
closed = 1;
nodes = (
"81 0 LINE",
"147 182 LINE SMOOTH",
"172 250 OFFCURVE",
"198 301 OFFCURVE",
"221 338 CURVE SMOOTH",
"255 392 OFFCURVE",
"283 415 OFFCURVE",
"309 415 CURVE SMOOTH",
"327 415 OFFCURVE",
"335 405 OFFCURVE",
"339 385 CURVE SMOOTH",
"345 356 OFFCURVE",
"357 342 OFFCURVE",
"383 342 CURVE SMOOTH",
"413 342 OFFCURVE",
"425 367 OFFCURVE",
"425 387 CURVE SMOOTH",
"425 433 OFFCURVE",
"383 454 OFFCURVE",
"349 454 CURVE SMOOTH",
"274 454 OFFCURVE",
"219 380 OFFCURVE",
"176 296 CURVE",
"220 443 LINE",
"83 440 LINE",
"75 416 LINE",
"138 416 OFFCURVE",
"157 410 OFFCURVE",
"133 344 CURVE SMOOTH",
"9 0 LINE"
);
}
);
width = 390;
}
);
leftKerningGroup = n;
leftMetricsKey = "=n-5";
rightKerningGroup = r;
unicode = 0072;
},
{
color = 6;
glyphname = s;
layers = (
{
anchors = (
{
name = bottom;
position = "{139, 0}";
},
{
name = top;
position = "{239, 440}";
}
);
backgroundImage = {
imagePath = "../../../../1878 Limprimerie Berger Levrault Notice historique/Italique/Puissan.JPG";
locked = "1";
transform = "{2.94144, -0.02064, 1.1022, 2.96401, -6140, -4049}";
};
layerId = "9372F035-DA38-4B54-966C-CEBA9B53DD02";
paths = (
{
closed = 1;
nodes = (
"228 -14 OFFCURVE",
"292 56 OFFCURVE",
"292 124 CURVE SMOOTH",
"292 181 OFFCURVE",
"260 213 OFFCURVE",
"235 238 CURVE SMOOTH",
"197 278 LINE SMOOTH",
"173 304 OFFCURVE",
"163 330 OFFCURVE",
"163 357 CURVE SMOOTH",
"163 396 OFFCURVE",
"192 432 OFFCURVE",
"241 432 CURVE SMOOTH",
"288 432 OFFCURVE",
"281 393 OFFCURVE",
"281 371 CURVE SMOOTH",
"281 345 OFFCURVE",
"300 334 OFFCURVE",
"316 334 CURVE SMOOTH",
"343 334 OFFCURVE",
"360 355 OFFCURVE",
"360 380 CURVE SMOOTH",
"360 407 OFFCURVE",
"339 454 OFFCURVE",
"242 454 CURVE SMOOTH",
"150 454 OFFCURVE",
"106 388 OFFCURVE",
"106 327 CURVE SMOOTH",
"106 289 OFFCURVE",
"120 249 OFFCURVE",
"150 217 CURVE SMOOTH",
"187 178 LINE SMOOTH",
"216 144 OFFCURVE",
"225 127 OFFCURVE",
"225 96 CURVE SMOOTH",
"225 56 OFFCURVE",
"192 8 OFFCURVE",
"131 8 CURVE SMOOTH",
"94 8 OFFCURVE",
"67 28 OFFCURVE",
"67 55 CURVE SMOOTH",
"67 78 OFFCURVE",
"81 90 OFFCURVE",
"81 112 CURVE SMOOTH",
"81 132 OFFCURVE",
"67 147 OFFCURVE",
"46 147 CURVE SMOOTH",
"15 147 OFFCURVE",
"-2 124 OFFCURVE",
"-2 93 CURVE SMOOTH",
"-2 50 OFFCURVE",
"32 -14 OFFCURVE",
"136 -14 CURVE SMOOTH"
);
}
);
width = 363;
}
);
leftKerningGroup = s;
rightKerningGroup = s;
unicode = 0073;
},
{
color = 6;
glyphname = germandbls;
layers = (
{
layerId = "9372F035-DA38-4B54-966C-CEBA9B53DD02";
paths = (
{
closed = 1;
nodes = (
"464 -14 OFFCURVE",
"550 62 OFFCURVE",
"550 157 CURVE SMOOTH",
"550 233 OFFCURVE",
"506 277 OFFCURVE",
"473 317 CURVE SMOOTH",
"451 343 OFFCURVE",
"431 363 OFFCURVE",
"431 399 CURVE SMOOTH",
"431 449 OFFCURVE",
"473 477 OFFCURVE",
"508 502 CURVE SMOOTH",
"556 543 OFFCURVE",
"618 572 OFFCURVE",
"618 638 CURVE SMOOTH",
"618 687 OFFCURVE",
"569 724 OFFCURVE",
"493 724 CURVE SMOOTH",
"379 724 OFFCURVE",
"285 675 OFFCURVE",
"220 498 CURVE SMOOTH",
"82 121 LINE SMOOTH",
"49 31 OFFCURVE",
"35 30 OFFCURVE",
"-26 22 CURVE SMOOTH",
"-42 20 LINE",
"-51 -3 LINE",
"73 0 LINE",
"119 0 LINE",
"126 33 OFFCURVE",
"133 65 OFFCURVE",
"153 121 CURVE SMOOTH",
"308 550 LINE",
"338 633 OFFCURVE",
"391 701 OFFCURVE",
"470 701 CURVE SMOOTH",
"511 701 OFFCURVE",
"540 681 OFFCURVE",
"540 620 CURVE SMOOTH",
"540 567 OFFCURVE",
"496 525 OFFCURVE",
"475 509 CURVE SMOOTH",
"425 471 OFFCURVE",
"360 435 OFFCURVE",
"360 373 CURVE SMOOTH",
"360 324 OFFCURVE",
"399 293 OFFCURVE",
"430 258 CURVE SMOOTH",
"459 225 OFFCURVE",
"478 192 OFFCURVE",
"478 143 CURVE SMOOTH",
"478 65 OFFCURVE",
"425 8 OFFCURVE",
"341 8 CURVE SMOOTH",
"299 8 OFFCURVE",
"274 29 OFFCURVE",
"274 54 CURVE SMOOTH",
"274 78 OFFCURVE",
"289 88 OFFCURVE",
"289 114 CURVE SMOOTH",
"289 133 OFFCURVE",
"275 147 OFFCURVE",
"254 147 CURVE SMOOTH",
"219 147 OFFCURVE",
"205 118 OFFCURVE",
"205 84 CURVE SMOOTH",
"205 35 OFFCURVE",
"254 -14 OFFCURVE",
"342 -14 CURVE SMOOTH"
);
},
{
closed = 1;
nodes = (
"209 416 LINE",
"217 440 LINE",
"111 440 LINE",
"103 416 LINE"
);
}
);
width = 593;
}
);
unicode = 00DF;
},
{
color = 6;
glyphname = t;
layers = (
{
anchors = (
{
name = bottom;
position = "{114, 0}";
},
{
name = center;
position = "{180, 256}";
},
{
name = top;
position = "{224, 440}";
},
{
name = topright;
position = "{336, 665}";
}
);
layerId = "9372F035-DA38-4B54-966C-CEBA9B53DD02";
paths = (
{
closed = 1;
nodes = (
"167 -14 OFFCURVE",
"210 31 OFFCURVE",
"235 72 CURVE",
"217 84 LINE",
"200 55 OFFCURVE",
"169 19 OFFCURVE",
"139 19 CURVE SMOOTH",
"124 19 OFFCURVE",
"115 28 OFFCURVE",
"115 46 CURVE SMOOTH",
"115 55 OFFCURVE",
"118 67 OFFCURVE",
"123 82 CURVE SMOOTH",
"279 526 LINE",
"212 526 LINE",
"62 110 LINE SMOOTH",
"53 85 OFFCURVE",
"47 61 OFFCURVE",
"47 42 CURVE SMOOTH",
"47 9 OFFCURVE",
"63 -14 OFFCURVE",
"102 -14 CURVE SMOOTH"
);
},
{
closed = 1;
nodes = (
"333 416 LINE",
"341 440 LINE",
"115 440 LINE",
"107 416 LINE"
);
}
);
width = 308;
}
);
leftKerningGroup = t;
rightKerningGroup = t;
unicode = 0074;
},
{
color = 6;
glyphname = u;
layers = (
{
anchors = (
{
name = bottom;
position = "{187, 0}";
},
{
name = ogonek;
position = "{429, 0}";
},
{
name = top;
position = "{321, 440}";
},
{
name = topright;
position = "{499, 440}";
}
);
backgroundImage = {
imagePath = "../../../../1878 Limprimerie Berger Levrault Notice historique/Italique/Reglu.jpg";
locked = "1";
transform = "{12.998, 0, 9.46177, 12.998, -3051, -389}";
};
guideLines = (
{
angle = 70;
position = "{308, 539}";
},
{
angle = 70;
position = "{232, 540}";
},
{
angle = 70;
position = "{558, 522}";
},
{
angle = 70;
position = "{488, 522}";
}
);
layerId = "9372F035-DA38-4B54-966C-CEBA9B53DD02";
paths = (
{
closed = 1;
nodes = (
"218 -14 OFFCURVE",
"284 45 OFFCURVE",
"327 107 CURVE",
"322 113 LINE",
"313 87 OFFCURVE",
"307 61 OFFCURVE",
"307 41 CURVE SMOOTH",
"307 8 OFFCURVE",
"322 -14 OFFCURVE",
"363 -14 CURVE SMOOTH",
"420 -14 OFFCURVE",
"460 33 OFFCURVE",
"485 75 CURVE",
"467 87 LINE",
"450 57 OFFCURVE",
"419 19 OFFCURVE",
"390 19 CURVE SMOOTH",
"379 19 OFFCURVE",
"374 26 OFFCURVE",
"374 39 CURVE SMOOTH",
"374 50 OFFCURVE",
"378 65 OFFCURVE",
"384 85 CURVE SMOOTH",
"509 440 LINE",
"443 440 LINE",
"348 186 LINE SMOOTH",
"318 107 OFFCURVE",
"225 11 OFFCURVE",
"158 11 CURVE SMOOTH",
"115 11 OFFCURVE",
"108 51 OFFCURVE",
"129 108 CURVE SMOOTH",
"249 443 LINE",
"85 440 LINE",
"78 416 LINE",
"115 416 OFFCURVE",
"153 419 OFFCURVE",
"153 383 CURVE SMOOTH",
"153 373 OFFCURVE",
"151 361 OFFCURVE",
"145 346 CURVE SMOOTH",
"66 137 LINE SMOOTH",
"27 35 OFFCURVE",
"54 -14 OFFCURVE",
"139 -14 CURVE SMOOTH"
);
}
);
width = 533;
}
);
leftKerningGroup = u;
leftMetricsKey = i;
rightKerningGroup = u;
unicode = 0075;
},
{
color = 6;
glyphname = v;
layers = (
{
anchors = (
{
name = bottom;
position = "{146, 0}";
},
{
name = top;
position = "{306, 440}";
}
);
guideLines = (
{
angle = 249.5863;
position = "{170, 286}";
}
);
layerId = "9372F035-DA38-4B54-966C-CEBA9B53DD02";
paths = (
{
closed = 1;
nodes = (
"192 -11 LINE",
"370 192 LINE SMOOTH",
"431 261 OFFCURVE",
"481 318 OFFCURVE",
"481 379 CURVE SMOOTH",
"481 426 OFFCURVE",
"456 454 OFFCURVE",
"425 454 CURVE SMOOTH",
"398 454 OFFCURVE",
"379 431 OFFCURVE",
"379 413 CURVE SMOOTH",
"379 389 OFFCURVE",
"408 367 OFFCURVE",
"408 322 CURVE SMOOTH",
"408 288 OFFCURVE",
"383 241 OFFCURVE",
"340 193 CURVE SMOOTH",
"205 36 LINE",
"226 37 LINE",
"200 121 LINE SMOOTH",
"177 199 OFFCURVE",
"161 254 OFFCURVE",
"161 309 CURVE SMOOTH",
"161 390 OFFCURVE",
"218 415 OFFCURVE",
"252 431 CURVE",
"247 448 LINE",
"95 440 LINE",
"86 416 LINE",
"210 423 LINE",
"198 427 LINE",
"130 387 OFFCURVE",
"78 344 OFFCURVE",
"78 274 CURVE SMOOTH",
"78 231 OFFCURVE",
"95 192 OFFCURVE",
"115 148 CURVE SMOOTH",
"136 102 OFFCURVE",
"162 51 OFFCURVE",
"175 -11 CURVE"
);
}
);
width = 483;
}
);
leftKerningGroup = v;
rightKerningGroup = v;
unicode = 0076;
},
{
color = 6;
glyphname = w;
layers = (
{
anchors = (
{
name = bottom;
position = "{331, 0}";
},
{
name = top;
position = "{431, 440}";
}
);
layerId = "9372F035-DA38-4B54-966C-CEBA9B53DD02";
paths = (
{
closed = 1;
nodes = (
"192 -11 LINE",
"360 192 LINE SMOOTH",
"416 261 OFFCURVE",
"441 318 OFFCURVE",
"441 371 CURVE SMOOTH",
"441 426 OFFCURVE",
"413 454 OFFCURVE",
"384 454 CURVE SMOOTH",
"362 454 OFFCURVE",
"342 432 OFFCURVE",
"342 411 CURVE SMOOTH",
"342 384 OFFCURVE",
"380 352 OFFCURVE",
"380 302 CURVE SMOOTH",
"380 261 OFFCURVE",
"357 223 OFFCURVE",
"328 188 CURVE SMOOTH",
"205 36 LINE",
"226 37 LINE",
"200 121 LINE SMOOTH",
"177 199 OFFCURVE",
"161 254 OFFCURVE",
"161 309 CURVE SMOOTH",
"161 390 OFFCURVE",
"220 415 OFFCURVE",
"252 431 CURVE",
"247 448 LINE",
"95 440 LINE",
"86 416 LINE",
"210 423 LINE",
"198 427 LINE",
"130 387 OFFCURVE",
"78 344 OFFCURVE",
"78 274 CURVE SMOOTH",
"78 231 OFFCURVE",
"95 192 OFFCURVE",
"115 148 CURVE SMOOTH",
"136 102 OFFCURVE",
"162 51 OFFCURVE",
"175 -11 CURVE"
);
},
{
closed = 1;
nodes = (
"470 -11 LINE",
"638 192 LINE SMOOTH",
"695 260 OFFCURVE",
"719 318 OFFCURVE",
"719 371 CURVE SMOOTH",
"719 426 OFFCURVE",
"691 454 OFFCURVE",
"664 454 CURVE SMOOTH",
"640 454 OFFCURVE",
"621 430 OFFCURVE",
"621 410 CURVE SMOOTH",
"621 385 OFFCURVE",
"657 352 OFFCURVE",
"657 302 CURVE SMOOTH",
"657 261 OFFCURVE",
"635 223 OFFCURVE",
"606 188 CURVE SMOOTH",
"483 36 LINE",
"506 37 LINE",
"476 121 LINE SMOOTH",
"448 199 OFFCURVE",
"434 240 OFFCURVE",
"434 294 CURVE SMOOTH",
"434 384 OFFCURVE",
"497 415 OFFCURVE",
"533 432 CURVE",
"525 448 LINE",
"473 431 OFFCURVE",
"429 388 OFFCURVE",
"412 353 CURVE",
"378 250 LINE",
"378 203 OFFCURVE",
"388 175 OFFCURVE",
"396 152 CURVE SMOOTH",
"416 93 OFFCURVE",
"440 51 OFFCURVE",
"453 -11 CURVE"
);
}
);
width = 728;
}
);
leftKerningGroup = v;
leftMetricsKey = v;
rightKerningGroup = v;
rightMetricsKey = v;
unicode = 0077;
},
{
color = 6;
glyphname = x;
layers = (
{
anchors = (
{
name = bottom;
position = "{197, 0}";
},
{
name = top;
position = "{357, 440}";
}
);
backgroundImage = {
imagePath = "../../../../1878 Limprimerie Berger Levrault Notice historique/Italique/Beaux-A Societe.JPG";
locked = "1";
transform = "{3.11688, 0, 1.13445, 3.11688, -6496, -4640}";
};
guideLines = (
{
angle = 249.5863;
position = "{417, 286}";
}
);
layerId = "9372F035-DA38-4B54-966C-CEBA9B53DD02";
paths = (
{
closed = 1;
nodes = (
"142 -11 OFFCURVE",
"207 36 OFFCURVE",
"255 107 CURVE SMOOTH",
"292 163 OFFCURVE",
"322 235 OFFCURVE",
"322 310 CURVE SMOOTH",
"322 396 OFFCURVE",
"290 454 OFFCURVE",
"217 454 CURVE SMOOTH",
"148 454 OFFCURVE",
"97 405 OFFCURVE",
"70 346 CURVE",
"86 334 LINE",
"108 384 OFFCURVE",
"154 424 OFFCURVE",
"199 424 CURVE SMOOTH",
"247 424 OFFCURVE",
"252 370 OFFCURVE",
"252 317 CURVE SMOOTH",
"252 165 OFFCURVE",
"162 11 OFFCURVE",
"91 11 CURVE SMOOTH",
"55 11 OFFCURVE",
"62 44 OFFCURVE",
"62 70 CURVE SMOOTH",
"62 98 OFFCURVE",
"50 116 OFFCURVE",
"23 116 CURVE SMOOTH",
"-7 116 OFFCURVE",
"-24 91 OFFCURVE",
"-24 65 CURVE SMOOTH",
"-24 38 OFFCURVE",
"-8 -11 OFFCURVE",
"77 -11 CURVE SMOOTH"
);
},
{
closed = 1;
nodes = (
"406 -11 OFFCURVE",
"456 37 OFFCURVE",
"484 94 CURVE",
"467 106 LINE",
"446 58 OFFCURVE",
"398 19 OFFCURVE",
"355 19 CURVE SMOOTH",
"313 19 OFFCURVE",
"299 66 OFFCURVE",
"299 127 CURVE SMOOTH",
"299 135 OFFCURVE",
"300 143 OFFCURVE",
"300 152 CURVE SMOOTH",
"308 276 OFFCURVE",
"395 432 OFFCURVE",
"463 432 CURVE SMOOTH",
"499 432 OFFCURVE",
"492 402 OFFCURVE",
"492 367 CURVE SMOOTH",
"492 349 OFFCURVE",
"502 327 OFFCURVE",
"533 327 CURVE SMOOTH",
"559 327 OFFCURVE",
"578 349 OFFCURVE",
"578 381 CURVE SMOOTH",
"578 405 OFFCURVE",
"561 454 OFFCURVE",
"477 454 CURVE SMOOTH",
"418 454 OFFCURVE",
"357 412 OFFCURVE",
"308 347 CURVE SMOOTH",
"289 322 OFFCURVE",
"231 127 OFFCURVE",
"234 101 CURVE SMOOTH",
"244 40 OFFCURVE",
"275 -11 OFFCURVE",
"342 -11 CURVE SMOOTH"
);
}
);
width = 553;
}
);
leftKerningGroup = x;
rightKerningGroup = x;
unicode = 0078;
},
{
color = 6;
glyphname = y;
layers = (
{
anchors = (
{
name = bottom;
position = "{215, 0}";
},
{
name = top;
position = "{300, 440}";
}
);
layerId = "9372F035-DA38-4B54-966C-CEBA9B53DD02";
paths = (
{
closed = 1;
nodes = (
"28 -290 OFFCURVE",
"84 -259 OFFCURVE",
"203 -110 CURVE SMOOTH",
"345 66 LINE SMOOTH",
"440 185 OFFCURVE",
"462 277 OFFCURVE",
"462 354 CURVE SMOOTH",
"462 426 OFFCURVE",
"432 454 OFFCURVE",
"406 454 CURVE SMOOTH",
"378 454 OFFCURVE",
"359 426 OFFCURVE",
"359 409 CURVE SMOOTH",
"359 388 OFFCURVE",
"372 377 OFFCURVE",
"387 362 CURVE SMOOTH",
"408 341 OFFCURVE",
"415 319 OFFCURVE",
"415 290 CURVE SMOOTH",
"415 257 OFFCURVE",
"413 186 OFFCURVE",
"317 66 CURVE SMOOTH",
"251 -17 LINE",
"276 -3 LINE",
"229 112 LINE SMOOTH",
"204 173 OFFCURVE",
"166 253 OFFCURVE",
"166 316 CURVE SMOOTH",
"166 364 OFFCURVE",
"185 398 OFFCURVE",
"253 431 CURVE",
"248 448 LINE",
"95 440 LINE",
"87 416 LINE",
"218 423 LINE",
"209 433 LINE",
"144 394 OFFCURVE",
"84 356 OFFCURVE",
"84 278 CURVE SMOOTH",
"84 222 OFFCURVE",
"123 160 OFFCURVE",
"160 101 CURVE SMOOTH",
"190 54 OFFCURVE",
"215 9 OFFCURVE",
"215 -31 CURVE SMOOTH",
"215 -61 OFFCURVE",
"197 -89 OFFCURVE",
"175 -112 CURVE SMOOTH",
"93 -199 LINE SMOOTH",
"72 -222 OFFCURVE",
"49 -234 OFFCURVE",
"29 -234 CURVE SMOOTH",
"-17 -234 OFFCURVE",
"-35 -189 OFFCURVE",
"-73 -189 CURVE SMOOTH",
"-102 -189 OFFCURVE",
"-126 -208 OFFCURVE",
"-126 -238 CURVE SMOOTH",
"-126 -268 OFFCURVE",
"-98 -290 OFFCURVE",
"-55 -290 CURVE SMOOTH"
);
}
);
width = 481;
}
);
leftKerningGroup = y;
leftMetricsKey = v;
rightKerningGroup = y;
unicode = 0079;
},
{
color = 6;
glyphname = z;
layers = (
{
anchors = (
{
name = bottom;
position = "{168, 0}";
},
{
name = top;
position = "{297, 454}";
}
);
backgroundImage = {
imagePath = "../../../../1878 Limprimerie Berger Levrault Notice historique/Italique/rez-de-.JPG";
locked = "1";
transform = "{2.85555, -0.10233, 1.19646, 2.96806, -5223, -4305}";
};
layerId = "9372F035-DA38-4B54-966C-CEBA9B53DD02";
paths = (
{
closed = 1;
nodes = (
"75 -14 OFFCURVE",
"74 68 OFFCURVE",
"144 68 CURVE SMOOTH",
"203 68 OFFCURVE",
"229 -14 OFFCURVE",
"310 -14 CURVE SMOOTH",
"361 -14 OFFCURVE",
"413 25 OFFCURVE",
"413 119 CURVE SMOOTH",
"413 129 OFFCURVE",
"412 140 OFFCURVE",
"411 151 CURVE",
"384 148 LINE",
"385 140 OFFCURVE",
"386 133 OFFCURVE",
"386 126 CURVE SMOOTH",
"386 79 OFFCURVE",
"360 55 OFFCURVE",
"333 55 CURVE SMOOTH",
"278 55 OFFCURVE",
"228 97 OFFCURVE",
"164 97 CURVE SMOOTH",
"131 97 OFFCURVE",
"104 86 OFFCURVE",
"79 71 CURVE",
"70 54 LINE",
"404 351 LINE",
"434 362 OFFCURVE",
"501 390 OFFCURVE",
"501 432 CURVE SMOOTH",
"501 452 OFFCURVE",
"485 462 OFFCURVE",
"470 462 CURVE SMOOTH",
"434 462 OFFCURVE",
"423 425 OFFCURVE",
"401 388 CURVE SMOOTH",
"394 376 OFFCURVE",
"391 372 OFFCURVE",
"377 372 CURVE SMOOTH",
"306 372 OFFCURVE",
"277 454 OFFCURVE",
"201 454 CURVE SMOOTH",
"138 454 OFFCURVE",
"86 399 OFFCURVE",
"81 316 CURVE",
"105 315 LINE",
"106 351 OFFCURVE",
"121 380 OFFCURVE",
"170 380 CURVE SMOOTH",
"207 380 OFFCURVE",
"252 343 OFFCURVE",
"343 343 CURVE SMOOTH",
"371 343 OFFCURVE",
"389 352 OFFCURVE",
"399 362 CURVE",
"404 382 LINE",
"113 123 LINE SMOOTH",
"91 103 OFFCURVE",
"72 82 OFFCURVE",
"43 71 CURVE SMOOTH",
"10 57 OFFCURVE",
"-5 42 OFFCURVE",
"-5 20 CURVE SMOOTH",
"-5 -1 OFFCURVE",
"9 -14 OFFCURVE",
"26 -14 CURVE SMOOTH"
);
}
);
width = 488;
}
);
leftKerningGroup = z;
rightKerningGroup = z;
unicode = 007A;
},
{
color = 6;
glyphname = f.calt;
layers = (
{
anchors = (
{
name = bottom;
position = "{68, 0}";
},
{
name = top;
position = "{228, 440}";
}
);
guideLines = (
{
angle = 72;
position = "{88, 194}";
}
);
layerId = "9372F035-DA38-4B54-966C-CEBA9B53DD02";
paths = (
{
closed = 1;
nodes = (
"-40 -290 OFFCURVE",
"24 -221 OFFCURVE",
"52 -136 CURVE SMOOTH",
"296 607 LINE SMOOTH",
"320 680 OFFCURVE",
"358 698 OFFCURVE",
"384 698 CURVE SMOOTH",
"410 698 OFFCURVE",
"419 685 OFFCURVE",
"419 647 CURVE SMOOTH",
"419 618 OFFCURVE",
"429 597 OFFCURVE",
"460 597 CURVE SMOOTH",
"493 597 OFFCURVE",
"506 623 OFFCURVE",
"506 650 CURVE SMOOTH",
"506 685 OFFCURVE",
"475 720 OFFCURVE",
"402 720 CURVE SMOOTH",
"316 720 OFFCURVE",
"251 681 OFFCURVE",
"203 548 CURVE SMOOTH",
"-18 -131 LINE SMOOTH",
"-33 -176 OFFCURVE",
"-70 -265 OFFCURVE",
"-144 -265 CURVE SMOOTH",
"-181 -265 OFFCURVE",
"-204 -249 OFFCURVE",
"-220 -226 CURVE",
"-267 -262 LINE",
"-243 -279 OFFCURVE",
"-206 -290 OFFCURVE",
"-158 -290 CURVE SMOOTH"
);
},
{
closed = 1;
nodes = (
"341 416 LINE",
"348 440 LINE",
"101 440 LINE",
"94 416 LINE"
);
}
);
width = 309;
}
);
leftKerningGroup = j;
rightKerningGroup = f;
rightMetricsKey = f;
},
{
color = 6;
glyphname = jdotless.calt;
layers = (
{
anchors = (
{
name = bottom;
position = "{80, 0}";
},
{
name = top;
position = "{226, 440}";
}
);
layerId = "9372F035-DA38-4B54-966C-CEBA9B53DD02";
paths = (
{
closed = 1;
nodes = (
"-18 -290 OFFCURVE",
"45 -226 OFFCURVE",
"74 -136 CURVE SMOOTH",
"262 443 LINE",
"100 440 LINE",
"93 416 LINE",
"130 416 OFFCURVE",
"169 417 OFFCURVE",
"169 384 CURVE SMOOTH",
"169 378 OFFCURVE",
"168 370 OFFCURVE",
"164 360 CURVE SMOOTH",
"4 -131 LINE SMOOTH",
"-9 -169 OFFCURVE",
"-48 -265 OFFCURVE",
"-122 -265 CURVE SMOOTH",
"-156 -265 OFFCURVE",
"-178 -251 OFFCURVE",
"-205 -209 CURVE",
"-253 -249 LINE",
"-221 -279 OFFCURVE",
"-184 -290 OFFCURVE",
"-136 -290 CURVE SMOOTH"
);
}
);
width = 278;
}
);
leftKerningGroup = j;
rightKerningGroup = u;
},
{
color = 6;
glyphname = q.calt;
layers = (
{
anchors = (
{
name = bottom;
position = "{185, 0}";
},
{
name = top;
position = "{335, 440}";
}
);
backgroundImage = {
imagePath = "../../../../1878 Limprimerie Berger Levrault Notice historique/Italique/ilboquet.JPG";
locked = "1";
transform = "{3.05733, 0, 0.90466, 2.75665, -5713, -3929}";
};
layerId = "9372F035-DA38-4B54-966C-CEBA9B53DD02";
paths = (
{
closed = 1;
nodes = (
"264 -280 LINE",
"511 440 LINE",
"441 440 LINE",
"404 329 LINE",
"417 334 LINE",
"415 403 OFFCURVE",
"385 454 OFFCURVE",
"319 454 CURVE SMOOTH",
"189 454 OFFCURVE",
"27 296 OFFCURVE",
"27 127 CURVE SMOOTH",
"27 52 OFFCURVE",
"68 -14 OFFCURVE",
"162 -14 CURVE SMOOTH",
"225 -14 OFFCURVE",
"281 26 OFFCURVE",
"330 98 CURVE",
"328 103 LINE",
"195 -280 LINE"
);
},
{
closed = 1;
nodes = (
"129 12 OFFCURVE",
"102 44 OFFCURVE",
"102 107 CURVE SMOOTH",
"102 242 OFFCURVE",
"219 428 OFFCURVE",
"325 428 CURVE SMOOTH",
"372 428 OFFCURVE",
"394 390 OFFCURVE",
"394 336 CURVE SMOOTH",
"394 306 OFFCURVE",
"387 270 OFFCURVE",
"374 234 CURVE SMOOTH",
"327 103 OFFCURVE",
"253 12 OFFCURVE",
"172 12 CURVE SMOOTH"
);
}
);
width = 501;
}
);
leftKerningGroup = o;
leftMetricsKey = o;
rightKerningGroup = q;
},
{
color = 6;
export = 0;
glyphname = w.alt;
layers = (
{
anchors = (
{
name = bottom;
position = "{341, 0}";
},
{
name = top;
position = "{441, 440}";
}
);
layerId = "9372F035-DA38-4B54-966C-CEBA9B53DD02";
paths = (
{
closed = 1;
nodes = (
"194 -11 LINE",
"343 161 LINE SMOOTH",
"451 286 OFFCURVE",
"484 359 OFFCURVE",
"484 395 CURVE SMOOTH",
"484 432 OFFCURVE",
"463 454 OFFCURVE",
"432 454 CURVE SMOOTH",
"400 454 OFFCURVE",
"333 424 OFFCURVE",
"333 313 CURVE SMOOTH",
"333 258 OFFCURVE",
"347 219 OFFCURVE",
"363 177 CURVE SMOOTH",
"382 128 OFFCURVE",
"402 75 OFFCURVE",
"424 -11 CURVE",
"443 -11 LINE",
"603 185 LINE SMOOTH",
"661 257 OFFCURVE",
"720 318 OFFCURVE",
"720 380 CURVE SMOOTH",
"720 427 OFFCURVE",
"691 454 OFFCURVE",
"662 454 CURVE SMOOTH",
"634 454 OFFCURVE",
"616 436 OFFCURVE",
"616 413 CURVE SMOOTH",
"616 398 OFFCURVE",
"623 390 OFFCURVE",
"629 379 CURVE SMOOTH",
"639 361 OFFCURVE",
"645 350 OFFCURVE",
"645 326 CURVE SMOOTH",
"645 288 OFFCURVE",
"624 248 OFFCURVE",
"585 199 CURVE SMOOTH",
"454 35 LINE",
"474 43 LINE",
"455 108 LINE SMOOTH",
"409 267 OFFCURVE",
"396 328 OFFCURVE",
"399 385 CURVE SMOOTH",
"401 418 OFFCURVE",
"417 432 OFFCURVE",
"434 432 CURVE SMOOTH",
"452 432 OFFCURVE",
"462 416 OFFCURVE",
"462 395 CURVE SMOOTH",
"462 338 OFFCURVE",
"373 229 OFFCURVE",
"326 175 CURVE SMOOTH",
"206 36 LINE",
"225 43 LINE",
"203 114 LINE SMOOTH",
"176 201 OFFCURVE",
"162 254 OFFCURVE",
"162 302 CURVE SMOOTH",
"162 378 OFFCURVE",
"198 406 OFFCURVE",
"253 431 CURVE",
"248 448 LINE",
"95 440 LINE",
"88 417 LINE",
"207 423 LINE",
"200 428 LINE",
"158 402 OFFCURVE",
"79 358 OFFCURVE",
"79 280 CURVE SMOOTH",
"79 237 OFFCURVE",
"91 204 OFFCURVE",
"106 171 CURVE SMOOTH",
"127 121 OFFCURVE",
"157 72 OFFCURVE",
"176 -11 CURVE"
);
}
);
width = 721;
}
);
leftKerningGroup = v;
leftMetricsKey = v;
rightKerningGroup = v;
rightMetricsKey = v;
},
{
color = 6;
glyphname = f_b.liga;
layers = (
{
anchors = (
{
name = bottom_1;
position = "{139, 0}";
},
{
name = bottom_2;
position = "{574, 0}";
},
{
name = caret_1;
position = "{433, 0}";
},
{
name = top_1;
position = "{299, 440}";
},
{
name = top_2;
position = "{734, 440}";
}
);
layerId = "9372F035-DA38-4B54-966C-CEBA9B53DD02";
paths = (
{
closed = 1;
nodes = (
"-13 -290 OFFCURVE",
"42 -261 OFFCURVE",
"84 -133 CURVE SMOOTH",
"294 504 LINE SMOOTH",
"327 597 OFFCURVE",
"367 699 OFFCURVE",
"473 699 CURVE SMOOTH",
"523 699 OFFCURVE",
"587 678 OFFCURVE",
"609 604 CURVE",
"669 678 LINE",
"641 702 OFFCURVE",
"545 724 OFFCURVE",
"482 724 CURVE SMOOTH",
"327 724 OFFCURVE",
"279 656 OFFCURVE",
"230 520 CURVE SMOOTH",
"12 -132 LINE SMOOTH",
"-16 -214 OFFCURVE",
"-47 -268 OFFCURVE",
"-82 -268 CURVE SMOOTH",
"-126 -268 OFFCURVE",
"-103 -174 OFFCURVE",
"-162 -174 CURVE SMOOTH",
"-190 -174 OFFCURVE",
"-211 -194 OFFCURVE",
"-211 -221 CURVE SMOOTH",
"-211 -255 OFFCURVE",
"-182 -290 OFFCURVE",
"-100 -290 CURVE SMOOTH"
);
},
{
closed = 1;
nodes = (
"375 416 LINE",
"382 440 LINE",
"115 440 LINE",
"108 416 LINE"
);
},
{
closed = 1;
nodes = (
"516 10 OFFCURVE",
"491 41 OFFCURVE",
"491 96 CURVE SMOOTH",
"491 129 OFFCURVE",
"500 171 OFFCURVE",
"518 221 CURVE SMOOTH",
"537 274 LINE SMOOTH",
"567 358 OFFCURVE",
"612 430 OFFCURVE",
"688 430 CURVE SMOOTH",
"729 430 OFFCURVE",
"769 397 OFFCURVE",
"769 326 CURVE SMOOTH",
"769 184 OFFCURVE",
"672 10 OFFCURVE",
"573 10 CURVE SMOOTH"
);
},
{
closed = 1;
nodes = (
"701 -14 OFFCURVE",
"841 122 OFFCURVE",
"841 287 CURVE SMOOTH",
"841 380 OFFCURVE",
"780 454 OFFCURVE",
"694 454 CURVE SMOOTH",
"644 454 OFFCURVE",
"593 430 OFFCURVE",
"567 383 CURVE",
"567 368 LINE",
"669 678 LINE",
"604 694 LINE",
"452 233 LINE SMOOTH",
"437 188 OFFCURVE",
"427 149 OFFCURVE",
"427 116 CURVE SMOOTH",
"427 30 OFFCURVE",
"482 -14 OFFCURVE",
"573 -14 CURVE SMOOTH"
);
}
);
width = 878;
}
);
leftMetricsKey = f;
rightMetricsKey = b;
},
{
color = 6;
glyphname = f_f.liga;
layers = (
{
anchors = (
{
name = caret_1;
position = "{319, 0}";
}
);
layerId = "9372F035-DA38-4B54-966C-CEBA9B53DD02";
paths = (
{
closed = 1;
nodes = (
"-13 -290 OFFCURVE",
"37 -260 OFFCURVE",
"84 -131 CURVE SMOOTH",
"290 504 LINE SMOOTH",
"322 597 OFFCURVE",
"358 699 OFFCURVE",
"441 699 CURVE SMOOTH",
"509 699 OFFCURVE",
"543 640 OFFCURVE",
"549 582 CURVE",
"614 665 LINE",
"573 713 OFFCURVE",
"503 724 OFFCURVE",
"449 724 CURVE SMOOTH",
"327 724 OFFCURVE",
"274 656 OFFCURVE",
"226 520 CURVE SMOOTH",
"12 -131 LINE SMOOTH",
"-18 -214 OFFCURVE",
"-47 -268 OFFCURVE",
"-82 -268 CURVE SMOOTH",
"-126 -268 OFFCURVE",
"-103 -174 OFFCURVE",
"-162 -174 CURVE SMOOTH",
"-190 -174 OFFCURVE",
"-211 -194 OFFCURVE",
"-211 -221 CURVE SMOOTH",
"-211 -255 OFFCURVE",
"-182 -290 OFFCURVE",
"-100 -290 CURVE SMOOTH"
);
},
{
closed = 1;
nodes = (
"284 -290 OFFCURVE",
"345 -225 OFFCURVE",
"390 -90 CURVE SMOOTH",
"624 615 LINE SMOOTH",
"643 675 OFFCURVE",
"678 702 OFFCURVE",
"711 702 CURVE SMOOTH",
"735 702 OFFCURVE",
"744 688 OFFCURVE",
"744 647 CURVE SMOOTH",
"744 618 OFFCURVE",
"754 597 OFFCURVE",
"783 597 CURVE SMOOTH",
"814 597 OFFCURVE",
"831 623 OFFCURVE",
"831 650 CURVE SMOOTH",
"831 682 OFFCURVE",
"810 724 OFFCURVE",
"719 724 CURVE SMOOTH",
"642 724 OFFCURVE",
"574 684 OFFCURVE",
"546 596 CURVE SMOOTH",
"322 -74 LINE SMOOTH",
"291 -168 OFFCURVE",
"254 -265 OFFCURVE",
"180 -265 CURVE SMOOTH",
"120 -265 OFFCURVE",
"97 -209 OFFCURVE",
"81 -126 CURVE",
"37 -208 LINE",
"37 -251 OFFCURVE",
"89 -290 OFFCURVE",
"160 -290 CURVE SMOOTH"
);
},
{
closed = 1;
nodes = (
"421 416 LINE",
"428 440 LINE",
"101 440 LINE",
"94 416 LINE"
);
},
{
closed = 1;
nodes = (
"668 416 LINE",
"675 440 LINE",
"385 440 LINE",
"378 416 LINE"
);
}
);
width = 634;
}
);
leftMetricsKey = f;
rightMetricsKey = f;
},
{
color = 6;
glyphname = f_f_b.liga;
layers = (
{
layerId = "9372F035-DA38-4B54-966C-CEBA9B53DD02";
paths = (
{
closed = 1;
nodes = (
"253 -290 OFFCURVE",
"334 -247 OFFCURVE",
"386 -88 CURVE SMOOTH",
"579 504 LINE SMOOTH",
"609 598 OFFCURVE",
"652 699 OFFCURVE",
"758 699 CURVE SMOOTH",
"799 699 OFFCURVE",
"850 678 OFFCURVE",
"868 604 CURVE",
"928 678 LINE",
"904 700 OFFCURVE",
"822 724 OFFCURVE",
"760 724 CURVE SMOOTH",
"612 724 OFFCURVE",
"559 657 OFFCURVE",
"515 520 CURVE SMOOTH",
"303 -120 LINE SMOOTH",
"272 -214 OFFCURVE",
"219 -265 OFFCURVE",
"164 -265 CURVE SMOOTH",
"103 -265 OFFCURVE",
"73 -170 OFFCURVE",
"63 -126 CURVE",
"25 -208 LINE",
"25 -242 OFFCURVE",
"66 -290 OFFCURVE",
"143 -290 CURVE SMOOTH"
);
},
{
closed = 1;
nodes = (
"-13 -290 OFFCURVE",
"41 -262 OFFCURVE",
"84 -131 CURVE SMOOTH",
"291 504 LINE SMOOTH",
"321 598 OFFCURVE",
"359 699 OFFCURVE",
"446 699 CURVE SMOOTH",
"510 699 OFFCURVE",
"544 640 OFFCURVE",
"550 582 CURVE",
"615 665 LINE",
"574 713 OFFCURVE",
"504 724 OFFCURVE",
"453 724 CURVE SMOOTH",
"328 724 OFFCURVE",
"271 657 OFFCURVE",
"227 520 CURVE SMOOTH",
"12 -131 LINE SMOOTH",
"-16 -215 OFFCURVE",
"-47 -268 OFFCURVE",
"-82 -268 CURVE SMOOTH",
"-126 -268 OFFCURVE",
"-103 -174 OFFCURVE",
"-162 -174 CURVE SMOOTH",
"-190 -174 OFFCURVE",
"-211 -194 OFFCURVE",
"-211 -221 CURVE SMOOTH",
"-211 -255 OFFCURVE",
"-182 -290 OFFCURVE",
"-100 -290 CURVE SMOOTH"
);
},
{
closed = 1;
nodes = (
"660 416 LINE",
"667 440 LINE",
"96 440 LINE",
"89 416 LINE"
);
},
{
closed = 1;
nodes = (
"775 10 OFFCURVE",
"750 41 OFFCURVE",
"750 96 CURVE SMOOTH",
"750 129 OFFCURVE",
"759 171 OFFCURVE",
"777 221 CURVE SMOOTH",
"796 274 LINE SMOOTH",
"826 358 OFFCURVE",
"871 430 OFFCURVE",
"947 430 CURVE SMOOTH",
"988 430 OFFCURVE",
"1028 397 OFFCURVE",
"1028 326 CURVE SMOOTH",
"1028 184 OFFCURVE",
"931 10 OFFCURVE",
"832 10 CURVE SMOOTH"
);
},
{
closed = 1;
nodes = (
"960 -14 OFFCURVE",
"1100 122 OFFCURVE",
"1100 287 CURVE SMOOTH",
"1100 380 OFFCURVE",
"1039 454 OFFCURVE",
"953 454 CURVE SMOOTH",
"903 454 OFFCURVE",
"852 430 OFFCURVE",
"826 383 CURVE",
"826 368 LINE",
"928 678 LINE",
"863 694 LINE",
"711 233 LINE SMOOTH",
"696 188 OFFCURVE",
"686 149 OFFCURVE",
"686 116 CURVE SMOOTH",
"686 30 OFFCURVE",
"741 -14 OFFCURVE",
"832 -14 CURVE SMOOTH"
);
}
);
width = 1137;
}
);
leftMetricsKey = f;
rightMetricsKey = b;
},
{
color = 6;
glyphname = f_f_h.liga;
layers = (
{
layerId = "9372F035-DA38-4B54-966C-CEBA9B53DD02";
paths = (
{
closed = 1;
nodes = (
"-13 -290 OFFCURVE",
"41 -262 OFFCURVE",
"84 -131 CURVE SMOOTH",
"291 504 LINE SMOOTH",
"321 598 OFFCURVE",
"359 699 OFFCURVE",
"442 699 CURVE SMOOTH",
"510 699 OFFCURVE",
"544 640 OFFCURVE",
"550 582 CURVE",
"615 665 LINE",
"574 713 OFFCURVE",
"504 724 OFFCURVE",
"450 724 CURVE SMOOTH",
"328 724 OFFCURVE",
"271 657 OFFCURVE",
"227 520 CURVE SMOOTH",
"12 -131 LINE SMOOTH",
"-16 -215 OFFCURVE",
"-47 -268 OFFCURVE",
"-82 -268 CURVE SMOOTH",
"-126 -268 OFFCURVE",
"-103 -174 OFFCURVE",
"-162 -174 CURVE SMOOTH",
"-190 -174 OFFCURVE",
"-211 -194 OFFCURVE",
"-211 -221 CURVE SMOOTH",
"-211 -255 OFFCURVE",
"-182 -290 OFFCURVE",
"-100 -290 CURVE SMOOTH"
);
},
{
closed = 1;
nodes = (
"660 416 LINE",
"667 440 LINE",
"96 440 LINE",
"89 416 LINE"
);
},
{
closed = 1;
nodes = (
"716 0 LINE",
"930 657 LINE",
"859 663 LINE",
"644 0 LINE"
);
},
{
closed = 1;
nodes = (
"272 -290 OFFCURVE",
"337 -225 OFFCURVE",
"382 -90 CURVE SMOOTH",
"578 504 LINE SMOOTH",
"608 598 OFFCURVE",
"651 699 OFFCURVE",
"751 699 CURVE SMOOTH",
"809 699 OFFCURVE",
"859 666 OFFCURVE",
"885 581 CURVE",
"930 657 LINE",
"901 700 OFFCURVE",
"836 724 OFFCURVE",
"757 724 CURVE SMOOTH",
"611 724 OFFCURVE",
"558 657 OFFCURVE",
"514 520 CURVE SMOOTH",
"318 -74 LINE SMOOTH",
"287 -168 OFFCURVE",
"242 -265 OFFCURVE",
"168 -265 CURVE SMOOTH",
"108 -265 OFFCURVE",
"85 -204 OFFCURVE",
"63 -126 CURVE",
"25 -208 LINE",
"25 -251 OFFCURVE",
"77 -290 OFFCURVE",
"148 -290 CURVE SMOOTH"
);
},
{
closed = 1;
nodes = (
"1039 -14 OFFCURVE",
"1079 31 OFFCURVE",
"1104 72 CURVE",
"1086 84 LINE",
"1069 55 OFFCURVE",
"1038 19 OFFCURVE",
"1009 19 CURVE SMOOTH",
"998 19 OFFCURVE",
"993 26 OFFCURVE",
"993 39 CURVE SMOOTH",
"993 49 OFFCURVE",
"996 63 OFFCURVE",
"1002 80 CURVE SMOOTH",
"1092 331 LINE SMOOTH",
"1099 351 OFFCURVE",
"1103 370 OFFCURVE",
"1103 388 CURVE SMOOTH",
"1103 426 OFFCURVE",
"1082 454 OFFCURVE",
"1016 454 CURVE SMOOTH",
"892 454 OFFCURVE",
"801 323 OFFCURVE",
"776 255 CURVE",
"799 257 LINE",
"826 329 OFFCURVE",
"921 429 OFFCURVE",
"997 429 CURVE SMOOTH",
"1018 429 OFFCURVE",
"1035 417 OFFCURVE",
"1035 391 CURVE SMOOTH",
"1035 381 OFFCURVE",
"1033 370 OFFCURVE",
"1028 356 CURVE SMOOTH",
"941 110 LINE SMOOTH",
"932 84 OFFCURVE",
"926 60 OFFCURVE",
"926 40 CURVE SMOOTH",
"926 8 OFFCURVE",
"941 -14 OFFCURVE",
"982 -14 CURVE SMOOTH"
);
}
);
width = 1156;
}
);
leftMetricsKey = f;
rightMetricsKey = h;
},
{
color = 3;
glyphname = f_f_i.liga;
layers = (
{
anchors = (
{
name = caret_1;
position = "{20, 0}";
},
{
name = caret_2;
position = "{316, 0}";
}
);
components = (
{
alignment = -1;
name = idotless;
transform = "{1, 0, 0, 1, 589, 0}";
}
);
layerId = "9372F035-DA38-4B54-966C-CEBA9B53DD02";
paths = (
{
closed = 1;
nodes = (
"-13 -290 OFFCURVE",
"37 -260 OFFCURVE",
"84 -131 CURVE SMOOTH",
"290 504 LINE SMOOTH",
"322 597 OFFCURVE",
"358 699 OFFCURVE",
"441 699 CURVE SMOOTH",
"509 699 OFFCURVE",
"543 640 OFFCURVE",
"549 582 CURVE",
"614 665 LINE",
"573 713 OFFCURVE",
"503 724 OFFCURVE",
"449 724 CURVE SMOOTH",
"327 724 OFFCURVE",
"274 656 OFFCURVE",
"226 520 CURVE SMOOTH",
"12 -131 LINE SMOOTH",
"-18 -214 OFFCURVE",
"-47 -268 OFFCURVE",
"-82 -268 CURVE SMOOTH",
"-126 -268 OFFCURVE",
"-103 -174 OFFCURVE",
"-162 -174 CURVE SMOOTH",
"-190 -174 OFFCURVE",
"-211 -194 OFFCURVE",
"-211 -221 CURVE SMOOTH",
"-211 -255 OFFCURVE",
"-182 -290 OFFCURVE",
"-100 -290 CURVE SMOOTH"
);
},
{
closed = 1;
nodes = (
"421 416 LINE",
"428 440 LINE",
"101 440 LINE",
"94 416 LINE"
);
},
{
closed = 1;
nodes = (
"668 416 LINE",
"675 440 LINE",
"385 440 LINE",
"378 416 LINE"
);
},
{
closed = 1;
nodes = (
"606 581 LINE SMOOTH",
"633 664 OFFCURVE",
"681 702 OFFCURVE",
"730 702 CURVE SMOOTH",
"768 702 OFFCURVE",
"787 686 OFFCURVE",
"787 633 CURVE SMOOTH",
"787 603 OFFCURVE",
"804 582 OFFCURVE",
"834 582 CURVE SMOOTH",
"871 582 OFFCURVE",
"893 610 OFFCURVE",
"893 638 CURVE SMOOTH",
"893 665 OFFCURVE",
"874 724 OFFCURVE",
"742 724 CURVE SMOOTH",
"641 724 OFFCURVE",
"568 685 OFFCURVE",
"520 541 CURVE SMOOTH",
"312 -74 LINE SMOOTH",
"278 -174 OFFCURVE",
"244 -265 OFFCURVE",
"170 -265 CURVE SMOOTH",
"110 -265 OFFCURVE",
"87 -209 OFFCURVE",
"71 -126 CURVE",
"27 -208 LINE",
"27 -251 OFFCURVE",
"79 -290 OFFCURVE",
"150 -290 CURVE SMOOTH",
"274 -290 OFFCURVE",
"335 -223 OFFCURVE",
"380 -90 CURVE SMOOTH"
);
}
);
width = 868;
}
);
leftMetricsKey = f;
rightMetricsKey = i;
},
{
color = 6;
glyphname = f_f_j.liga;
layers = (
{
layerId = "9372F035-DA38-4B54-966C-CEBA9B53DD02";
paths = (
{
closed = 1;
nodes = (
"-13 -290 OFFCURVE",
"42 -262 OFFCURVE",
"84 -131 CURVE SMOOTH",
"290 504 LINE SMOOTH",
"320 598 OFFCURVE",
"358 699 OFFCURVE",
"441 699 CURVE SMOOTH",
"509 699 OFFCURVE",
"543 640 OFFCURVE",
"549 582 CURVE",
"614 665 LINE",
"573 713 OFFCURVE",
"503 724 OFFCURVE",
"449 724 CURVE SMOOTH",
"327 724 OFFCURVE",
"270 657 OFFCURVE",
"226 520 CURVE SMOOTH",
"12 -131 LINE SMOOTH",
"-16 -215 OFFCURVE",
"-47 -268 OFFCURVE",
"-82 -268 CURVE SMOOTH",
"-126 -268 OFFCURVE",
"-103 -174 OFFCURVE",
"-162 -174 CURVE SMOOTH",
"-190 -174 OFFCURVE",
"-211 -194 OFFCURVE",
"-211 -221 CURVE SMOOTH",
"-211 -255 OFFCURVE",
"-182 -290 OFFCURVE",
"-100 -290 CURVE SMOOTH"
);
},
{
closed = 1;
nodes = (
"421 416 LINE",
"428 440 LINE",
"101 440 LINE",
"94 416 LINE"
);
},
{
closed = 1;
nodes = (
"688 416 LINE",
"695 440 LINE",
"385 440 LINE",
"378 416 LINE"
);
},
{
closed = 1;
nodes = (
"606 581 LINE SMOOTH",
"633 664 OFFCURVE",
"681 702 OFFCURVE",
"725 702 CURVE SMOOTH",
"768 702 OFFCURVE",
"787 686 OFFCURVE",
"787 633 CURVE SMOOTH",
"787 603 OFFCURVE",
"804 582 OFFCURVE",
"834 582 CURVE SMOOTH",
"871 582 OFFCURVE",
"893 610 OFFCURVE",
"893 638 CURVE SMOOTH",
"893 665 OFFCURVE",
"874 724 OFFCURVE",
"738 724 CURVE SMOOTH",
"630 724 OFFCURVE",
"568 685 OFFCURVE",
"520 541 CURVE SMOOTH",
"312 -74 LINE SMOOTH",
"278 -174 OFFCURVE",
"244 -265 OFFCURVE",
"170 -265 CURVE SMOOTH",
"110 -265 OFFCURVE",
"87 -209 OFFCURVE",
"71 -126 CURVE",
"27 -208 LINE",
"27 -251 OFFCURVE",
"79 -290 OFFCURVE",
"150 -290 CURVE SMOOTH",
"274 -290 OFFCURVE",
"335 -223 OFFCURVE",
"380 -90 CURVE SMOOTH"
);
},
{
closed = 1;
nodes = (
"857 443 LINE",
"695 440 LINE",
"688 416 LINE",
"725 416 OFFCURVE",
"764 417 OFFCURVE",
"764 384 CURVE SMOOTH",
"764 378 OFFCURVE",
"762 370 OFFCURVE",
"759 360 CURVE SMOOTH",
"619 -74 LINE SMOOTH",
"586 -176 OFFCURVE",
"541 -265 OFFCURVE",
"460 -265 CURVE SMOOTH",
"400 -265 OFFCURVE",
"377 -209 OFFCURVE",
"361 -126 CURVE",
"317 -208 LINE",
"317 -251 OFFCURVE",
"369 -290 OFFCURVE",
"449 -290 CURVE SMOOTH",
"571 -290 OFFCURVE",
"634 -222 OFFCURVE",
"683 -90 CURVE SMOOTH"
);
}
);
width = 871;
}
);
leftMetricsKey = f;
rightMetricsKey = j;
},
{
color = 6;
glyphname = f_f_k.liga;
layers = (
{
layerId = "9372F035-DA38-4B54-966C-CEBA9B53DD02";
paths = (
{
closed = 1;
nodes = (
"-13 -290 OFFCURVE",
"41 -262 OFFCURVE",
"84 -131 CURVE SMOOTH",
"291 504 LINE SMOOTH",
"321 598 OFFCURVE",
"359 699 OFFCURVE",
"442 699 CURVE SMOOTH",
"510 699 OFFCURVE",
"544 640 OFFCURVE",
"550 582 CURVE",
"615 665 LINE",
"574 713 OFFCURVE",
"504 724 OFFCURVE",
"450 724 CURVE SMOOTH",
"328 724 OFFCURVE",
"271 657 OFFCURVE",
"227 520 CURVE SMOOTH",
"12 -131 LINE SMOOTH",
"-16 -215 OFFCURVE",
"-47 -268 OFFCURVE",
"-82 -268 CURVE SMOOTH",
"-126 -268 OFFCURVE",
"-103 -174 OFFCURVE",
"-162 -174 CURVE SMOOTH",
"-190 -174 OFFCURVE",
"-211 -194 OFFCURVE",
"-211 -221 CURVE SMOOTH",
"-211 -255 OFFCURVE",
"-182 -290 OFFCURVE",
"-100 -290 CURVE SMOOTH"
);
},
{
closed = 1;
nodes = (
"660 416 LINE",
"667 440 LINE",
"96 440 LINE",
"89 416 LINE"
);
},
{
closed = 1;
nodes = (
"716 0 LINE",
"930 657 LINE",
"859 657 LINE",
"644 0 LINE"
);
},
{
closed = 1;
nodes = (
"272 -290 OFFCURVE",
"337 -225 OFFCURVE",
"382 -90 CURVE SMOOTH",
"578 504 LINE SMOOTH",
"608 598 OFFCURVE",
"651 699 OFFCURVE",
"751 699 CURVE SMOOTH",
"809 699 OFFCURVE",
"859 666 OFFCURVE",
"885 581 CURVE",
"930 657 LINE",
"901 700 OFFCURVE",
"836 724 OFFCURVE",
"757 724 CURVE SMOOTH",
"611 724 OFFCURVE",
"558 657 OFFCURVE",
"514 520 CURVE SMOOTH",
"318 -74 LINE SMOOTH",
"287 -168 OFFCURVE",
"242 -265 OFFCURVE",
"168 -265 CURVE SMOOTH",
"108 -265 OFFCURVE",
"85 -204 OFFCURVE",
"63 -126 CURVE",
"25 -208 LINE",
"25 -251 OFFCURVE",
"77 -290 OFFCURVE",
"148 -290 CURVE SMOOTH"
);
},
{
closed = 1;
nodes = (
"1010 -14 OFFCURVE",
"1058 9 OFFCURVE",
"1093 72 CURVE",
"1076 84 LINE",
"1049 39 OFFCURVE",
"1019 19 OFFCURVE",
"1002 19 CURVE SMOOTH",
"975 19 OFFCURVE",
"975 37 OFFCURVE",
"973 136 CURVE SMOOTH",
"971 249 OFFCURVE",
"938 284 OFFCURVE",
"803 284 CURVE",
"801 269 LINE",
"885 269 OFFCURVE",
"905 236 OFFCURVE",
"905 132 CURVE SMOOTH",
"905 22 OFFCURVE",
"915 -14 OFFCURVE",
"972 -14 CURVE SMOOTH"
);
},
{
closed = 1;
nodes = (
"873 270 OFFCURVE",
"895 295 OFFCURVE",
"938 340 CURVE SMOOTH",
"979 383 LINE SMOOTH",
"998 402 OFFCURVE",
"1009 414 OFFCURVE",
"1023 414 CURVE SMOOTH",
"1027 414 OFFCURVE",
"1031 412 OFFCURVE",
"1033 409 CURVE SMOOTH",
"1037 404 OFFCURVE",
"1038 396 OFFCURVE",
"1038 373 CURVE SMOOTH",
"1038 348 OFFCURVE",
"1057 337 OFFCURVE",
"1075 337 CURVE SMOOTH",
"1101 337 OFFCURVE",
"1118 362 OFFCURVE",
"1118 392 CURVE SMOOTH",
"1118 411 OFFCURVE",
"1111 454 OFFCURVE",
"1058 454 CURVE SMOOTH",
"1024 454 OFFCURVE",
"1000 433 OFFCURVE",
"963 394 CURVE SMOOTH",
"926 355 LINE SMOOTH",
"883 310 OFFCURVE",
"854 284 OFFCURVE",
"783 284 CURVE",
"783 270 LINE"
);
}
);
width = 1126;
}
);
leftMetricsKey = f;
rightMetricsKey = k;
},
{
color = 6;
glyphname = f_f_l.liga;
layers = (
{
layerId = "9372F035-DA38-4B54-966C-CEBA9B53DD02";
paths = (
{
closed = 1;
nodes = (
"272 -290 OFFCURVE",
"337 -225 OFFCURVE",
"382 -90 CURVE SMOOTH",
"578 504 LINE SMOOTH",
"608 598 OFFCURVE",
"651 699 OFFCURVE",
"751 699 CURVE SMOOTH",
"809 699 OFFCURVE",
"859 666 OFFCURVE",
"885 581 CURVE",
"930 657 LINE",
"901 700 OFFCURVE",
"836 724 OFFCURVE",
"757 724 CURVE SMOOTH",
"611 724 OFFCURVE",
"558 657 OFFCURVE",
"514 520 CURVE SMOOTH",
"318 -74 LINE SMOOTH",
"287 -168 OFFCURVE",
"242 -265 OFFCURVE",
"168 -265 CURVE SMOOTH",
"108 -265 OFFCURVE",
"85 -204 OFFCURVE",
"63 -126 CURVE",
"25 -208 LINE",
"25 -251 OFFCURVE",
"77 -290 OFFCURVE",
"148 -290 CURVE SMOOTH"
);
},
{
closed = 1;
nodes = (
"-13 -290 OFFCURVE",
"41 -262 OFFCURVE",
"84 -131 CURVE SMOOTH",
"291 504 LINE SMOOTH",
"321 598 OFFCURVE",
"359 699 OFFCURVE",
"442 699 CURVE SMOOTH",
"510 699 OFFCURVE",
"544 640 OFFCURVE",
"550 582 CURVE",
"615 665 LINE",
"574 713 OFFCURVE",
"504 724 OFFCURVE",
"450 724 CURVE SMOOTH",
"328 724 OFFCURVE",
"271 657 OFFCURVE",
"227 520 CURVE SMOOTH",
"12 -131 LINE SMOOTH",
"-16 -215 OFFCURVE",
"-47 -268 OFFCURVE",
"-82 -268 CURVE SMOOTH",
"-126 -268 OFFCURVE",
"-103 -174 OFFCURVE",
"-162 -174 CURVE SMOOTH",
"-190 -174 OFFCURVE",
"-211 -194 OFFCURVE",
"-211 -221 CURVE SMOOTH",
"-211 -255 OFFCURVE",
"-182 -290 OFFCURVE",
"-100 -290 CURVE SMOOTH"
);
},
{
closed = 1;
nodes = (
"436 416 LINE",
"443 440 LINE",
"96 440 LINE",
"89 416 LINE"
);
},
{
closed = 1;
nodes = (
"654 416 LINE",
"661 440 LINE",
"394 440 LINE",
"387 416 LINE"
);
},
{
closed = 1;
nodes = (
"738 19 OFFCURVE",
"731 24 OFFCURVE",
"731 38 CURVE SMOOTH",
"731 46 OFFCURVE",
"734 56 OFFCURVE",
"738 69 CURVE SMOOTH",
"930 657 LINE",
"861 664 LINE",
"675 94 LINE SMOOTH",
"669 74 OFFCURVE",
"664 57 OFFCURVE",
"664 43 CURVE SMOOTH",
"664 5 OFFCURVE",
"688 -14 OFFCURVE",
"718 -14 CURVE SMOOTH",
"772 -14 OFFCURVE",
"810 21 OFFCURVE",
"843 75 CURVE",
"825 87 LINE",
"808 55 OFFCURVE",
"777 19 OFFCURVE",
"747 19 CURVE SMOOTH"
);
}
);
width = 896;
}
);
leftMetricsKey = f;
rightMetricsKey = l;
},
{
color = 6;
glyphname = f_h.liga;
layers = (
{
layerId = "9372F035-DA38-4B54-966C-CEBA9B53DD02";
paths = (
{
closed = 1;
nodes = (
"-13 -290 OFFCURVE",
"43 -261 OFFCURVE",
"86 -131 CURVE SMOOTH",
"296 504 LINE SMOOTH",
"326 598 OFFCURVE",
"368 700 OFFCURVE",
"474 700 CURVE SMOOTH",
"522 700 OFFCURVE",
"574 667 OFFCURVE",
"598 581 CURVE",
"643 657 LINE",
"616 700 OFFCURVE",
"556 725 OFFCURVE",
"483 725 CURVE SMOOTH",
"328 725 OFFCURVE",
"280 656 OFFCURVE",
"231 520 CURVE SMOOTH",
"12 -131 LINE SMOOTH",
"-18 -214 OFFCURVE",
"-47 -268 OFFCURVE",
"-82 -268 CURVE SMOOTH",
"-126 -268 OFFCURVE",
"-103 -174 OFFCURVE",
"-162 -174 CURVE SMOOTH",
"-190 -174 OFFCURVE",
"-211 -194 OFFCURVE",
"-211 -221 CURVE SMOOTH",
"-211 -255 OFFCURVE",
"-182 -290 OFFCURVE",
"-100 -290 CURVE SMOOTH"
);
},
{
closed = 1;
nodes = (
"376 416 LINE",
"383 440 LINE",
"116 440 LINE",
"109 416 LINE"
);
},
{
closed = 1;
nodes = (
"406 0 LINE",
"643 657 LINE",
"579 664 LINE",
"334 0 LINE"
);
},
{
closed = 1;
nodes = (
"739 -14 OFFCURVE",
"779 31 OFFCURVE",
"804 72 CURVE",
"786 84 LINE",
"769 55 OFFCURVE",
"738 19 OFFCURVE",
"709 19 CURVE SMOOTH",
"698 19 OFFCURVE",
"693 26 OFFCURVE",
"693 39 CURVE SMOOTH",
"693 49 OFFCURVE",
"696 63 OFFCURVE",
"702 80 CURVE SMOOTH",
"792 331 LINE SMOOTH",
"799 351 OFFCURVE",
"803 370 OFFCURVE",
"803 388 CURVE SMOOTH",
"803 426 OFFCURVE",
"782 454 OFFCURVE",
"716 454 CURVE SMOOTH",
"592 454 OFFCURVE",
"501 323 OFFCURVE",
"476 255 CURVE",
"499 257 LINE",
"526 329 OFFCURVE",
"621 429 OFFCURVE",
"697 429 CURVE SMOOTH",
"718 429 OFFCURVE",
"735 417 OFFCURVE",
"735 391 CURVE SMOOTH",
"735 381 OFFCURVE",
"733 370 OFFCURVE",
"728 356 CURVE SMOOTH",
"641 110 LINE SMOOTH",
"632 84 OFFCURVE",
"626 60 OFFCURVE",
"626 40 CURVE SMOOTH",
"626 8 OFFCURVE",
"641 -14 OFFCURVE",
"682 -14 CURVE SMOOTH"
);
}
);
width = 856;
}
);
leftMetricsKey = f;
rightMetricsKey = h;
},
{
color = 6;
glyphname = f_j.liga;
layers = (
{
anchors = (
{
name = top;
position = "{521, 440}";
}
);
guideLines = (
{
angle = 70;
position = "{609, 539}";
}
);
layerId = "9372F035-DA38-4B54-966C-CEBA9B53DD02";
paths = (
{
closed = 1;
nodes = (
"-13 -290 OFFCURVE",
"37 -260 OFFCURVE",
"84 -131 CURVE SMOOTH",
"350 615 LINE SMOOTH",
"370 675 OFFCURVE",
"413 702 OFFCURVE",
"457 702 CURVE SMOOTH",
"496 702 OFFCURVE",
"515 686 OFFCURVE",
"515 633 CURVE SMOOTH",
"515 603 OFFCURVE",
"532 582 OFFCURVE",
"562 582 CURVE SMOOTH",
"599 582 OFFCURVE",
"621 613 OFFCURVE",
"621 642 CURVE SMOOTH",
"621 665 OFFCURVE",
"615 724 OFFCURVE",
"470 724 CURVE SMOOTH",
"362 724 OFFCURVE",
"302 683 OFFCURVE",
"272 596 CURVE SMOOTH",
"12 -131 LINE SMOOTH",
"-18 -214 OFFCURVE",
"-47 -268 OFFCURVE",
"-82 -268 CURVE SMOOTH",
"-126 -268 OFFCURVE",
"-103 -174 OFFCURVE",
"-162 -174 CURVE SMOOTH",
"-190 -174 OFFCURVE",
"-211 -194 OFFCURVE",
"-211 -221 CURVE SMOOTH",
"-211 -255 OFFCURVE",
"-182 -290 OFFCURVE",
"-100 -290 CURVE SMOOTH"
);
},
{
closed = 1;
nodes = (
"429 416 LINE",
"429 440 LINE",
"132 440 LINE",
"125 416 LINE"
);
},
{
closed = 1;
nodes = (
"582 443 LINE",
"420 440 LINE",
"413 416 LINE",
"450 416 OFFCURVE",
"489 417 OFFCURVE",
"489 384 CURVE SMOOTH",
"489 378 OFFCURVE",
"488 370 OFFCURVE",
"484 360 CURVE SMOOTH",
"327 -74 LINE SMOOTH",
"291 -174 OFFCURVE",
"259 -265 OFFCURVE",
"185 -265 CURVE SMOOTH",
"125 -265 OFFCURVE",
"102 -209 OFFCURVE",
"86 -126 CURVE",
"42 -208 LINE",
"42 -251 OFFCURVE",
"94 -290 OFFCURVE",
"165 -290 CURVE SMOOTH",
"289 -290 OFFCURVE",
"350 -223 OFFCURVE",
"395 -90 CURVE SMOOTH"
);
}
);
width = 583;
}
);
leftMetricsKey = f;
rightMetricsKey = j;
},
{
color = 6;
glyphname = f_k.liga;
layers = (
{
anchors = (
{
name = bottom_1;
position = "{133, 0}";
},
{
name = bottom_2;
position = "{550, 0}";
},
{
name = caret_1;
position = "{410, 0}";
},
{
name = top_1;
position = "{293, 440}";
},
{
name = top_2;
position = "{710, 440}";
}
);
layerId = "9372F035-DA38-4B54-966C-CEBA9B53DD02";
paths = (
{
closed = 1;
nodes = (
"-13 -290 OFFCURVE",
"37 -260 OFFCURVE",
"84 -131 CURVE SMOOTH",
"296 504 LINE SMOOTH",
"329 597 OFFCURVE",
"369 699 OFFCURVE",
"475 699 CURVE SMOOTH",
"523 699 OFFCURVE",
"575 666 OFFCURVE",
"599 581 CURVE",
"644 657 LINE",
"617 700 OFFCURVE",
"557 724 OFFCURVE",
"484 724 CURVE SMOOTH",
"329 724 OFFCURVE",
"281 656 OFFCURVE",
"232 520 CURVE SMOOTH",
"12 -131 LINE SMOOTH",
"-18 -214 OFFCURVE",
"-47 -268 OFFCURVE",
"-82 -268 CURVE SMOOTH",
"-126 -268 OFFCURVE",
"-103 -174 OFFCURVE",
"-162 -174 CURVE SMOOTH",
"-190 -174 OFFCURVE",
"-211 -194 OFFCURVE",
"-211 -221 CURVE SMOOTH",
"-211 -255 OFFCURVE",
"-182 -290 OFFCURVE",
"-100 -290 CURVE SMOOTH"
);
},
{
closed = 1;
nodes = (
"359 416 LINE",
"366 440 LINE",
"99 440 LINE",
"92 416 LINE"
);
},
{
closed = 1;
nodes = (
"700 -14 OFFCURVE",
"748 9 OFFCURVE",
"783 72 CURVE",
"766 84 LINE",
"739 39 OFFCURVE",
"709 19 OFFCURVE",
"692 19 CURVE SMOOTH",
"660 19 OFFCURVE",
"664 64 OFFCURVE",
"663 114 CURVE SMOOTH",
"662 166 LINE SMOOTH",
"660 261 OFFCURVE",
"596 284 OFFCURVE",
"493 284 CURVE",
"491 269 LINE",
"569 269 OFFCURVE",
"595 233 OFFCURVE",
"595 159 CURVE SMOOTH",
"595 111 LINE SMOOTH",
"595 27 OFFCURVE",
"606 -14 OFFCURVE",
"662 -14 CURVE SMOOTH"
);
},
{
closed = 1;
nodes = (
"407 0 LINE",
"644 657 LINE",
"580 664 LINE",
"335 0 LINE"
);
},
{
closed = 1;
nodes = (
"563 270 OFFCURVE",
"585 295 OFFCURVE",
"628 340 CURVE SMOOTH",
"669 383 LINE SMOOTH",
"689 403 OFFCURVE",
"702 414 OFFCURVE",
"718 414 CURVE SMOOTH",
"723 414 OFFCURVE",
"727 412 OFFCURVE",
"729 409 CURVE SMOOTH",
"733 404 OFFCURVE",
"734 396 OFFCURVE",
"734 387 CURVE SMOOTH",
"734 365 OFFCURVE",
"750 357 OFFCURVE",
"765 357 CURVE SMOOTH",
"791 357 OFFCURVE",
"802 382 OFFCURVE",
"802 407 CURVE SMOOTH",
"802 428 OFFCURVE",
"789 454 OFFCURVE",
"753 454 CURVE SMOOTH",
"714 454 OFFCURVE",
"690 433 OFFCURVE",
"653 394 CURVE SMOOTH",
"616 355 LINE SMOOTH",
"573 310 OFFCURVE",
"544 284 OFFCURVE",
"473 284 CURVE",
"473 270 LINE"
);
}
);
width = 816;
}
);
leftMetricsKey = f;
rightMetricsKey = k;
},
{
color = 3;
glyphname = f_t.liga;
layers = (
{
anchors = (
{
name = bottom_1;
position = "{82, 0}";
},
{
name = bottom_2;
position = "{407, 0}";
},
{
name = caret_1;
position = "{308.5, 0}";
},
{
name = top_1;
position = "{242, 440}";
},
{
name = top_2;
position = "{567, 440}";
}
);
components = (
{
name = f;
},
{
name = t;
transform = "{1, 0, 0, 1, 299, 0}";
}
);
layerId = "9372F035-DA38-4B54-966C-CEBA9B53DD02";
paths = (
{
closed = 1;
nodes = (
"562 416 LINE",
"570 440 LINE",
"354 440 LINE",
"346 416 LINE"
);
}
);
width = 607;
}
);
leftMetricsKey = f;
rightMetricsKey = t;
},
{
color = 3;
glyphname = fi;
layers = (
{
anchors = (
{
name = caret_1;
position = "{306, 0}";
}
);
components = (
{
name = idotless;
transform = "{1, 0, 0, 1, 306, 0}";
}
);
guideLines = (
{
angle = 70;
position = "{596, 539}";
}
);
layerId = "9372F035-DA38-4B54-966C-CEBA9B53DD02";
paths = (
{
closed = 1;
nodes = (
"-12 -290 OFFCURVE",
"41 -258 OFFCURVE",
"85 -127 CURVE SMOOTH",
"321 581 LINE SMOOTH",
"348 664 OFFCURVE",
"400 702 OFFCURVE",
"449 702 CURVE SMOOTH",
"487 702 OFFCURVE",
"506 686 OFFCURVE",
"506 633 CURVE SMOOTH",
"506 603 OFFCURVE",
"523 582 OFFCURVE",
"553 582 CURVE SMOOTH",
"590 582 OFFCURVE",
"612 610 OFFCURVE",
"612 638 CURVE SMOOTH",
"612 665 OFFCURVE",
"593 724 OFFCURVE",
"457 724 CURVE SMOOTH",
"349 724 OFFCURVE",
"282 684 OFFCURVE",
"235 541 CURVE SMOOTH",
"13 -127 LINE SMOOTH",
"-16 -213 OFFCURVE",
"-46 -268 OFFCURVE",
"-81 -268 CURVE SMOOTH",
"-125 -268 OFFCURVE",
"-102 -170 OFFCURVE",
"-161 -170 CURVE SMOOTH",
"-189 -170 OFFCURVE",
"-210 -190 OFFCURVE",
"-210 -216 CURVE SMOOTH",
"-210 -255 OFFCURVE",
"-181 -290 OFFCURVE",
"-99 -290 CURVE SMOOTH"
);
},
{
closed = 1;
nodes = (
"396 416 LINE",
"406 440 LINE",
"119 440 LINE",
"112 416 LINE"
);
}
);
width = 585;
}
);
leftMetricsKey = f;
rightMetricsKey = i;
unicode = FB01;
},
{
color = 6;
glyphname = fl;
layers = (
{
layerId = "9372F035-DA38-4B54-966C-CEBA9B53DD02";
paths = (
{
closed = 1;
nodes = (
"-13 -290 OFFCURVE",
"41 -262 OFFCURVE",
"84 -131 CURVE SMOOTH",
"292 504 LINE SMOOTH",
"322 598 OFFCURVE",
"365 699 OFFCURVE",
"465 699 CURVE SMOOTH",
"523 699 OFFCURVE",
"573 666 OFFCURVE",
"599 581 CURVE",
"644 657 LINE",
"615 700 OFFCURVE",
"550 724 OFFCURVE",
"471 724 CURVE SMOOTH",
"325 724 OFFCURVE",
"273 658 OFFCURVE",
"228 520 CURVE SMOOTH",
"12 -131 LINE SMOOTH",
"-16 -214 OFFCURVE",
"-47 -268 OFFCURVE",
"-82 -268 CURVE SMOOTH",
"-126 -268 OFFCURVE",
"-103 -174 OFFCURVE",
"-162 -174 CURVE SMOOTH",
"-190 -174 OFFCURVE",
"-211 -194 OFFCURVE",
"-211 -221 CURVE SMOOTH",
"-211 -255 OFFCURVE",
"-182 -290 OFFCURVE",
"-100 -290 CURVE SMOOTH"
);
},
{
closed = 1;
nodes = (
"373 416 LINE",
"380 440 LINE",
"113 440 LINE",
"106 416 LINE"
);
},
{
closed = 1;
nodes = (
"452 19 OFFCURVE",
"445 24 OFFCURVE",
"445 38 CURVE SMOOTH",
"445 46 OFFCURVE",
"448 56 OFFCURVE",
"452 69 CURVE SMOOTH",
"644 657 LINE",
"575 664 LINE",
"389 94 LINE SMOOTH",
"382 74 OFFCURVE",
"378 57 OFFCURVE",
"378 43 CURVE SMOOTH",
"378 5 OFFCURVE",
"402 -14 OFFCURVE",
"432 -14 CURVE SMOOTH",
"486 -14 OFFCURVE",
"524 21 OFFCURVE",
"557 75 CURVE",
"539 87 LINE",
"522 55 OFFCURVE",
"491 19 OFFCURVE",
"461 19 CURVE SMOOTH"
);
}
);
width = 610;
}
);
leftMetricsKey = f;
rightMetricsKey = l;
unicode = FB02;
},
{
color = 3;
glyphname = t_t.liga;
layers = (
{
components = (
{
alignment = -1;
name = t;
transform = "{1, 0, 0, 1, 276, 0}";
}
);
layerId = "9372F035-DA38-4B54-966C-CEBA9B53DD02";
paths = (
{
closed = 1;
nodes = (
"167 -14 OFFCURVE",
"207 31 OFFCURVE",
"232 72 CURVE",
"214 84 LINE",
"197 55 OFFCURVE",
"166 19 OFFCURVE",
"136 19 CURVE SMOOTH",
"121 19 OFFCURVE",
"112 28 OFFCURVE",
"112 46 CURVE SMOOTH",
"112 55 OFFCURVE",
"115 67 OFFCURVE",
"120 82 CURVE SMOOTH",
"279 526 LINE",
"212 526 LINE",
"126 289 LINE",
"59 110 LINE SMOOTH",
"50 85 OFFCURVE",
"44 61 OFFCURVE",
"44 42 CURVE SMOOTH",
"44 9 OFFCURVE",
"60 -14 OFFCURVE",
"104 -14 CURVE SMOOTH"
);
},
{
closed = 1;
nodes = (
"463 416 LINE",
"471 440 LINE",
"115 440 LINE",
"107 416 LINE"
);
}
);
width = 584;
}
);
leftMetricsKey = t;
rightMetricsKey = t;
},
{
color = 6;
glyphname = a.sups;
layers = (
{
layerId = "9372F035-DA38-4B54-966C-CEBA9B53DD02";
paths = (
{
closed = 1;
nodes = (
"285 290 OFFCURVE",
"327 328 OFFCURVE",
"363 381 CURVE",
"429 554 LINE",
"429 611 OFFCURVE",
"412 653 OFFCURVE",
"343 653 CURVE SMOOTH",
"234 653 OFFCURVE",
"98 531 OFFCURVE",
"98 400 CURVE SMOOTH",
"98 342 OFFCURVE",
"132 290 OFFCURVE",
"211 290 CURVE SMOOTH"
);
},
{
closed = 1;
nodes = (
"187 312 OFFCURVE",
"168 336 OFFCURVE",
"168 384 CURVE SMOOTH",
"168 489 OFFCURVE",
"262 633 OFFCURVE",
"348 633 CURVE SMOOTH",
"385 633 OFFCURVE",
"403 604 OFFCURVE",
"403 563 CURVE SMOOTH",
"403 540 OFFCURVE",
"398 512 OFFCURVE",
"388 484 CURVE SMOOTH",
"351 381 OFFCURVE",
"288 312 OFFCURVE",
"219 312 CURVE SMOOTH"
);
},
{
closed = 1;
nodes = (
"437 290 OFFCURVE",
"472 326 OFFCURVE",
"493 358 CURVE",
"477 371 LINE",
"462 348 OFFCURVE",
"434 318 OFFCURVE",
"412 318 CURVE SMOOTH",
"405 318 OFFCURVE",
"402 322 OFFCURVE",
"402 331 CURVE SMOOTH",
"402 340 OFFCURVE",
"404 352 OFFCURVE",
"410 367 CURVE SMOOTH",
"516 644 LINE",
"453 644 LINE",
"352 390 LINE SMOOTH",
"344 369 OFFCURVE",
"340 349 OFFCURVE",
"340 333 CURVE SMOOTH",
"340 307 OFFCURVE",
"354 290 OFFCURVE",
"393 290 CURVE SMOOTH"
);
}
);
width = 443;
}
);
leftKerningGroup = sups;
leftMetricsKey = o.sups;
rightKerningGroup = sups;
rightMetricsKey = d.sups;
},
{
color = 6;
glyphname = d.sups;
layers = (
{
anchors = (
{
name = bottom;
position = "{234, 290}";
}
);
layerId = "9372F035-DA38-4B54-966C-CEBA9B53DD02";
paths = (
{
closed = 1;
nodes = (
"440 290 OFFCURVE",
"474 327 OFFCURVE",
"494 358 CURVE",
"478 370 LINE",
"457 341 OFFCURVE",
"432 318 OFFCURVE",
"413 318 CURVE SMOOTH",
"406 318 OFFCURVE",
"403 322 OFFCURVE",
"403 331 CURVE SMOOTH",
"403 339 OFFCURVE",
"405 351 OFFCURVE",
"411 366 CURVE SMOOTH",
"597 856 LINE",
"460 855 LINE",
"454 835 LINE",
"486 835 OFFCURVE",
"514 835 OFFCURVE",
"514 809 CURVE SMOOTH",
"514 801 OFFCURVE",
"512 790 OFFCURVE",
"506 776 CURVE SMOOTH",
"354 389 LINE SMOOTH",
"345 367 OFFCURVE",
"341 348 OFFCURVE",
"341 333 CURVE SMOOTH",
"341 305 OFFCURVE",
"357 290 OFFCURVE",
"390 290 CURVE SMOOTH"
);
},
{
closed = 1;
nodes = (
"286 290 OFFCURVE",
"330 330 OFFCURVE",
"364 381 CURVE",
"430 551 LINE",
"431 557 OFFCURVE",
"431 562 OFFCURVE",
"431 567 CURVE SMOOTH",
"431 624 OFFCURVE",
"401 653 OFFCURVE",
"346 653 CURVE SMOOTH",
"236 653 OFFCURVE",
"99 530 OFFCURVE",
"99 405 CURVE SMOOTH",
"99 349 OFFCURVE",
"134 290 OFFCURVE",
"219 290 CURVE SMOOTH"
);
},
{
closed = 1;
nodes = (
"189 312 OFFCURVE",
"169 337 OFFCURVE",
"169 383 CURVE SMOOTH",
"169 489 OFFCURVE",
"265 633 OFFCURVE",
"350 633 CURVE SMOOTH",
"385 633 OFFCURVE",
"404 605 OFFCURVE",
"404 561 CURVE SMOOTH",
"404 539 OFFCURVE",
"399 512 OFFCURVE",
"388 483 CURVE SMOOTH",
"349 375 OFFCURVE",
"285 312 OFFCURVE",
"223 312 CURVE SMOOTH"
);
}
);
width = 444;
}
);
leftKerningGroup = sups;
leftMetricsKey = o.sups;
rightKerningGroup = sups;
},
{
color = 6;
glyphname = e.sups;
layers = (
{
layerId = "9372F035-DA38-4B54-966C-CEBA9B53DD02";
paths = (
{
closed = 1;
nodes = (
"284 290 OFFCURVE",
"314 313 OFFCURVE",
"341 337 CURVE SMOOTH",
"349 344 OFFCURVE",
"355 350 OFFCURVE",
"361 358 CURVE",
"346 372 LINE",
"309 336 OFFCURVE",
"277 312 OFFCURVE",
"244 312 CURVE SMOOTH",
"190 312 OFFCURVE",
"173 358 OFFCURVE",
"173 403 CURVE SMOOTH",
"173 509 OFFCURVE",
"261 634 OFFCURVE",
"335 634 CURVE SMOOTH",
"355 634 OFFCURVE",
"365 620 OFFCURVE",
"365 595 CURVE SMOOTH",
"365 569 OFFCURVE",
"347 510 OFFCURVE",
"232 495 CURVE SMOOTH",
"178 488 LINE",
"176 469 LINE",
"249 476 LINE SMOOTH",
"358 487 OFFCURVE",
"420 524 OFFCURVE",
"420 583 CURVE SMOOTH",
"420 624 OFFCURVE",
"387 652 OFFCURVE",
"332 652 CURVE SMOOTH",
"225 652 OFFCURVE",
"105 546 OFFCURVE",
"105 418 CURVE SMOOTH",
"105 353 OFFCURVE",
"144 290 OFFCURVE",
"236 290 CURVE SMOOTH"
);
}
);
width = 321;
}
);
leftKerningGroup = sups;
leftMetricsKey = o.sups;
rightKerningGroup = sups;
},
{
color = 6;
glyphname = h.sups;
layers = (
{
layerId = "9372F035-DA38-4B54-966C-CEBA9B53DD02";
paths = (
{
closed = 1;
nodes = (
"165 299 LINE",
"378 855 LINE",
"241 854 LINE",
"235 834 LINE",
"267 834 OFFCURVE",
"294 834 OFFCURVE",
"294 807 CURVE SMOOTH",
"294 798 OFFCURVE",
"291 786 OFFCURVE",
"285 770 CURVE SMOOTH",
"100 299 LINE"
);
},
{
closed = 1;
nodes = (
"441 290 OFFCURVE",
"475 326 OFFCURVE",
"496 358 CURVE",
"479 370 LINE",
"456 339 OFFCURVE",
"432 318 OFFCURVE",
"414 318 CURVE SMOOTH",
"407 318 OFFCURVE",
"404 323 OFFCURVE",
"404 333 CURVE SMOOTH",
"404 341 OFFCURVE",
"406 351 OFFCURVE",
"411 364 CURVE SMOOTH",
"486 556 LINE SMOOTH",
"492 571 OFFCURVE",
"496 587 OFFCURVE",
"496 600 CURVE SMOOTH",
"496 630 OFFCURVE",
"477 653 OFFCURVE",
"420 653 CURVE SMOOTH",
"315 653 OFFCURVE",
"241 553 OFFCURVE",
"220 501 CURVE",
"243 502 LINE",
"265 557 OFFCURVE",
"343 632 OFFCURVE",
"404 632 CURVE SMOOTH",
"423 632 OFFCURVE",
"432 621 OFFCURVE",
"432 603 CURVE SMOOTH",
"432 595 OFFCURVE",
"431 586 OFFCURVE",
"427 576 CURVE SMOOTH",
"355 388 LINE SMOOTH",
"347 366 OFFCURVE",
"343 348 OFFCURVE",
"343 333 CURVE SMOOTH",
"343 305 OFFCURVE",
"359 290 OFFCURVE",
"392 290 CURVE SMOOTH"
);
}
);
width = 446;
}
);
leftKerningGroup = sups;
rightKerningGroup = sups;
rightMetricsKey = n.sups;
},
{
color = 6;
glyphname = m.sups;
layers = (
{
layerId = "9372F035-DA38-4B54-966C-CEBA9B53DD02";
paths = (
{
closed = 1;
nodes = (
"641 290 OFFCURVE",
"676 325 OFFCURVE",
"696 356 CURVE",
"679 367 LINE",
"662 344 OFFCURVE",
"638 318 OFFCURVE",
"620 318 CURVE SMOOTH",
"611 318 OFFCURVE",
"606 324 OFFCURVE",
"606 336 CURVE SMOOTH",
"606 344 OFFCURVE",
"608 354 OFFCURVE",
"613 367 CURVE SMOOTH",
"686 558 LINE SMOOTH",
"692 573 OFFCURVE",
"695 586 OFFCURVE",
"695 598 CURVE SMOOTH",
"695 633 OFFCURVE",
"669 653 OFFCURVE",
"621 653 CURVE SMOOTH",
"520 653 OFFCURVE",
"448 551 OFFCURVE",
"428 499 CURVE",
"453 500 LINE",
"474 556 OFFCURVE",
"548 632 OFFCURVE",
"605 632 CURVE SMOOTH",
"624 632 OFFCURVE",
"634 621 OFFCURVE",
"634 604 CURVE SMOOTH",
"634 597 OFFCURVE",
"632 588 OFFCURVE",
"628 578 CURVE SMOOTH",
"560 406 LINE SMOOTH",
"550 380 OFFCURVE",
"543 356 OFFCURVE",
"543 337 CURVE SMOOTH",
"543 308 OFFCURVE",
"558 290 OFFCURVE",
"602 290 CURVE SMOOTH"
);
},
{
closed = 1;
nodes = (
"166 300 LINE",
"268 565 LINE",
"263 568 LINE",
"289 645 LINE",
"164 644 LINE",
"158 624 LINE",
"189 624 OFFCURVE",
"211 623 OFFCURVE",
"211 603 CURVE SMOOTH",
"211 595 OFFCURVE",
"209 584 OFFCURVE",
"203 569 CURVE SMOOTH",
"100 300 LINE"
);
},
{
closed = 1;
nodes = (
"376 300 LINE",
"476 558 LINE",
"479 571 OFFCURVE",
"481 584 OFFCURVE",
"481 596 CURVE SMOOTH",
"481 629 OFFCURVE",
"465 653 OFFCURVE",
"410 653 CURVE SMOOTH",
"310 653 OFFCURVE",
"240 551 OFFCURVE",
"221 499 CURVE",
"242 500 LINE",
"263 556 OFFCURVE",
"337 632 OFFCURVE",
"394 632 CURVE SMOOTH",
"413 632 OFFCURVE",
"423 621 OFFCURVE",
"423 604 CURVE SMOOTH",
"423 597 OFFCURVE",
"421 588 OFFCURVE",
"417 578 CURVE SMOOTH",
"309 300 LINE"
);
}
);
width = 647;
}
);
leftKerningGroup = sups;
rightKerningGroup = sups;
rightMetricsKey = n.sups;
},
{
color = 6;
glyphname = n.sups;
layers = (
{
layerId = "9372F035-DA38-4B54-966C-CEBA9B53DD02";
paths = (
{
closed = 1;
nodes = (
"444 290 OFFCURVE",
"478 326 OFFCURVE",
"499 358 CURVE",
"498 359 LINE",
"483 368 LINE",
"479 368 LINE",
"464 345 OFFCURVE",
"439 318 OFFCURVE",
"417 318 CURVE SMOOTH",
"410 318 OFFCURVE",
"407 323 OFFCURVE",
"407 333 CURVE SMOOTH",
"407 341 OFFCURVE",
"409 351 OFFCURVE",
"414 364 CURVE SMOOTH",
"489 560 LINE SMOOTH",
"495 575 OFFCURVE",
"499 591 OFFCURVE",
"499 604 CURVE SMOOTH",
"499 634 OFFCURVE",
"480 657 OFFCURVE",
"423 657 CURVE SMOOTH",
"318 657 OFFCURVE",
"242 554 OFFCURVE",
"221 501 CURVE",
"246 502 LINE",
"268 559 OFFCURVE",
"346 636 OFFCURVE",
"407 636 CURVE SMOOTH",
"426 636 OFFCURVE",
"435 625 OFFCURVE",
"435 607 CURVE SMOOTH",
"435 599 OFFCURVE",
"434 590 OFFCURVE",
"430 580 CURVE SMOOTH",
"358 388 LINE SMOOTH",
"350 366 OFFCURVE",
"346 348 OFFCURVE",
"346 333 CURVE SMOOTH",
"346 305 OFFCURVE",
"362 290 OFFCURVE",
"395 290 CURVE SMOOTH"
);
},
{
closed = 1;
nodes = (
"166 301 LINE",
"169 302 LINE",
"271 567 LINE",
"267 568 LINE",
"293 649 LINE",
"165 646 LINE",
"157 625 LINE",
"188 625 OFFCURVE",
"214 624 OFFCURVE",
"214 604 CURVE SMOOTH",
"214 596 OFFCURVE",
"212 586 OFFCURVE",
"206 571 CURVE SMOOTH",
"103 302 LINE",
"106 301 LINE"
);
}
);
width = 449;
}
);
leftKerningGroup = sups;
rightKerningGroup = sups;
},
{
color = 6;
glyphname = o.sups;
layers = (
{
layerId = "9372F035-DA38-4B54-966C-CEBA9B53DD02";
paths = (
{
closed = 1;
nodes = (
"367 290 OFFCURVE",
"477 404 OFFCURVE",
"477 527 CURVE SMOOTH",
"477 595 OFFCURVE",
"433 653 OFFCURVE",
"342 653 CURVE SMOOTH",
"216 653 OFFCURVE",
"105 539 OFFCURVE",
"105 414 CURVE SMOOTH",
"105 348 OFFCURVE",
"150 290 OFFCURVE",
"240 290 CURVE SMOOTH"
);
},
{
closed = 1;
nodes = (
"197 313 OFFCURVE",
"174 341 OFFCURVE",
"174 392 CURVE SMOOTH",
"174 479 OFFCURVE",
"246 633 OFFCURVE",
"344 633 CURVE SMOOTH",
"386 633 OFFCURVE",
"409 604 OFFCURVE",
"409 549 CURVE SMOOTH",
"409 464 OFFCURVE",
"336 313 OFFCURVE",
"240 313 CURVE SMOOTH"
);
}
);
width = 399;
}
);
leftKerningGroup = sups;
rightKerningGroup = sups;
},
{
color = 6;
glyphname = r.sups;
layers = (
{
anchors = (
{
name = top;
position = "{392, 637}";
}
);
layerId = "9372F035-DA38-4B54-966C-CEBA9B53DD02";
paths = (
{
closed = 1;
nodes = (
"206 398 LINE",
"207 399 LINE",
"219 429 LINE SMOOTH",
"243 489 OFFCURVE",
"265 533 OFFCURVE",
"285 563 CURVE SMOOTH",
"312 604 OFFCURVE",
"335 621 OFFCURVE",
"355 621 CURVE SMOOTH",
"365 621 OFFCURVE",
"371 616 OFFCURVE",
"378 598 CURVE SMOOTH",
"388 573 OFFCURVE",
"398 564 OFFCURVE",
"417 564 CURVE SMOOTH",
"444 564 OFFCURVE",
"455 584 OFFCURVE",
"455 600 CURVE SMOOTH",
"455 636 OFFCURVE",
"418 653 OFFCURVE",
"389 653 CURVE SMOOTH",
"276 653 OFFCURVE",
"216 471 OFFCURVE",
"178 389 CURVE",
"182 388 LINE"
);
},
{
closed = 1;
nodes = (
"166 299 LINE",
"169 300 LINE",
"248 504 LINE",
"242 512 LINE",
"285 647 LINE",
"165 644 LINE",
"157 623 LINE",
"188 623 OFFCURVE",
"215 623 OFFCURVE",
"215 602 CURVE SMOOTH",
"215 594 OFFCURVE",
"212 583 OFFCURVE",
"207 569 CURVE SMOOTH",
"104 300 LINE",
"106 299 LINE"
);
}
);
width = 339;
}
);
leftKerningGroup = sups;
leftMetricsKey = n.sups;
rightKerningGroup = sups;
},
{
color = 6;
glyphname = s.sups;
layers = (
{
layerId = "9372F035-DA38-4B54-966C-CEBA9B53DD02";
paths = (
{
closed = 1;
nodes = (
"275 290 OFFCURVE",
"329 345 OFFCURVE",
"329 397 CURVE SMOOTH",
"329 437 OFFCURVE",
"302 465 OFFCURVE",
"281 486 CURVE SMOOTH",
"246 521 LINE SMOOTH",
"230 537 OFFCURVE",
"222 556 OFFCURVE",
"222 578 CURVE SMOOTH",
"222 609 OFFCURVE",
"245 634 OFFCURVE",
"278 634 CURVE SMOOTH",
"314 634 OFFCURVE",
"314 604 OFFCURVE",
"314 587 CURVE SMOOTH",
"314 570 OFFCURVE",
"327 558 OFFCURVE",
"346 558 CURVE SMOOTH",
"369 558 OFFCURVE",
"386 573 OFFCURVE",
"386 594 CURVE SMOOTH",
"386 615 OFFCURVE",
"368 653 OFFCURVE",
"289 653 CURVE SMOOTH",
"206 653 OFFCURVE",
"169 602 OFFCURVE",
"169 555 CURVE SMOOTH",
"169 520 OFFCURVE",
"180 495 OFFCURVE",
"206 469 CURVE SMOOTH",
"237 438 LINE SMOOTH",
"262 413 OFFCURVE",
"268 399 OFFCURVE",
"268 379 CURVE SMOOTH",
"268 344 OFFCURVE",
"241 309 OFFCURVE",
"193 309 CURVE SMOOTH",
"163 309 OFFCURVE",
"143 323 OFFCURVE",
"143 343 CURVE SMOOTH",
"143 361 OFFCURVE",
"154 370 OFFCURVE",
"154 387 CURVE SMOOTH",
"154 404 OFFCURVE",
"141 416 OFFCURVE",
"122 416 CURVE SMOOTH",
"96 416 OFFCURVE",
"79 399 OFFCURVE",
"79 373 CURVE SMOOTH",
"79 340 OFFCURVE",
"108 290 OFFCURVE",
"197 290 CURVE SMOOTH"
);
}
);
width = 290;
}
);
leftKerningGroup = sups;
rightKerningGroup = sups;
},
{
color = 6;
glyphname = t.sups;
layers = (
{
layerId = "9372F035-DA38-4B54-966C-CEBA9B53DD02";
paths = (
{
closed = 1;
nodes = (
"242 290 OFFCURVE",
"276 325 OFFCURVE",
"297 356 CURVE",
"281 368 LINE",
"260 340 OFFCURVE",
"233 318 OFFCURVE",
"214 318 CURVE SMOOTH",
"203 318 OFFCURVE",
"198 325 OFFCURVE",
"198 337 CURVE SMOOTH",
"198 344 OFFCURVE",
"200 353 OFFCURVE",
"204 364 CURVE SMOOTH",
"336 711 LINE",
"275 711 LINE",
"148 386 LINE SMOOTH",
"140 365 OFFCURVE",
"136 348 OFFCURVE",
"136 333 CURVE SMOOTH",
"136 305 OFFCURVE",
"153 290 OFFCURVE",
"189 290 CURVE SMOOTH"
);
},
{
closed = 1;
nodes = (
"378 623 LINE",
"385 643 LINE",
"194 643 LINE",
"187 623 LINE"
);
}
);
width = 278;
}
);
leftKerningGroup = sups;
rightKerningGroup = sups;
},
{
color = 3;
glyphname = ordfeminine;
layers = (
{
components = (
{
name = a.sups;
}
);
layerId = "9372F035-DA38-4B54-966C-CEBA9B53DD02";
paths = (
{
closed = 1;
nodes = (
"408 185 LINE",
"408 209 LINE",
"56 209 LINE",
"56 185 LINE"
);
}
);
width = 443;
}
);
leftKerningGroup = sups;
leftMetricsKey = e.sups;
rightKerningGroup = sups;
unicode = 00AA;
},
{
color = 3;
glyphname = ordmasculine;
layers = (
{
components = (
{
name = o.sups;
}
);
layerId = "9372F035-DA38-4B54-966C-CEBA9B53DD02";
paths = (
{
closed = 1;
nodes = (
"368 185 LINE",
"368 209 LINE",
"16 209 LINE",
"16 185 LINE"
);
}
);
width = 399;
}
);
leftKerningGroup = sups;
rightKerningGroup = sups;
unicode = 00BA;
},
{
color = 6;
glyphname = zero;
layers = (
{
layerId = "9372F035-DA38-4B54-966C-CEBA9B53DD02";
paths = (
{
closed = 1;
nodes = (
"338 -11 OFFCURVE",
"479 169 OFFCURVE",
"479 328 CURVE SMOOTH",
"479 409 OFFCURVE",
"438 469 OFFCURVE",
"340 469 CURVE SMOOTH",
"189 469 OFFCURVE",
"42 288 OFFCURVE",
"42 131 CURVE SMOOTH",
"42 52 OFFCURVE",
"87 -11 OFFCURVE",
"185 -11 CURVE SMOOTH"
);
},
{
closed = 1;
nodes = (
"144 14 OFFCURVE",
"114 49 OFFCURVE",
"114 109 CURVE SMOOTH",
"114 239 OFFCURVE",
"208 444 OFFCURVE",
"331 444 CURVE SMOOTH",
"386 444 OFFCURVE",
"407 406 OFFCURVE",
"407 351 CURVE SMOOTH",
"407 204 OFFCURVE",
"314 14 OFFCURVE",
"196 14 CURVE SMOOTH"
);
}
);
width = 490;
}
);
leftKerningGroup = o;
rightKerningGroup = o;
unicode = 0030;
},
{
color = 6;
glyphname = one;
layers = (
{
layerId = "9372F035-DA38-4B54-966C-CEBA9B53DD02";
paths = (
{
closed = 1;
nodes = (
"83 0 LINE",
"205 -3 LINE",
"213 20 LINE",
"198 22 LINE SMOOTH",
"162 26 OFFCURVE",
"144 29 OFFCURVE",
"144 53 CURVE SMOOTH",
"144 67 OFFCURVE",
"150 88 OFFCURVE",
"162 121 CURVE SMOOTH",
"291 475 LINE",
"251 458 OFFCURVE",
"175 450 OFFCURVE",
"128 450 CURVE",
"117 420 LINE",
"156 420 OFFCURVE",
"182 416 OFFCURVE",
"182 384 CURVE SMOOTH",
"182 372 OFFCURVE",
"178 357 OFFCURVE",
"171 337 CURVE SMOOTH",
"92 121 LINE SMOOTH",
"59 31 OFFCURVE",
"44 29 OFFCURVE",
"-16 22 CURVE SMOOTH",
"-33 20 LINE",
"-41 -3 LINE"
);
}
);
width = 306;
}
);
leftKerningGroup = n;
rightKerningGroup = one;
unicode = 0031;
},
{
color = 6;
glyphname = two;
layers = (
{
layerId = "9372F035-DA38-4B54-966C-CEBA9B53DD02";
paths = (
{
closed = 1;
nodes = (
"231 -88 LINE",
"265 10 LINE",
"298 79 LINE",
"94 64 LINE",
"154 100 LINE SMOOTH",
"254 160 OFFCURVE",
"403 250 OFFCURVE",
"403 357 CURVE SMOOTH",
"403 426 OFFCURVE",
"350 469 OFFCURVE",
"270 469 CURVE SMOOTH",
"152 469 OFFCURVE",
"78 380 OFFCURVE",
"78 293 CURVE SMOOTH",
"78 261 OFFCURVE",
"93 232 OFFCURVE",
"118 218 CURVE",
"136 240 LINE",
"121 246 OFFCURVE",
"108 265 OFFCURVE",
"108 294 CURVE SMOOTH",
"108 353 OFFCURVE",
"160 438 OFFCURVE",
"245 438 CURVE SMOOTH",
"289 438 OFFCURVE",
"322 414 OFFCURVE",
"322 354 CURVE SMOOTH",
"322 252 OFFCURVE",
"190 156 OFFCURVE",
"86 81 CURVE SMOOTH",
"2 20 LINE",
"-5 0 LINE",
"139 0 LINE SMOOTH",
"202 0 OFFCURVE",
"219 -7 OFFCURVE",
"219 -31 CURVE SMOOTH",
"219 -41 OFFCURVE",
"216 -55 OFFCURVE",
"212 -72 CURVE SMOOTH",
"208 -88 LINE"
);
}
);
width = 427;
}
);
leftKerningGroup = o;
unicode = 0032;
},
{
color = 6;
glyphname = three;
layers = (
{
layerId = "9372F035-DA38-4B54-966C-CEBA9B53DD02";
paths = (
{
closed = 1;
nodes = (
"139 -294 OFFCURVE",
"297 -146 OFFCURVE",
"297 8 CURVE SMOOTH",
"297 71 OFFCURVE",
"258 120 OFFCURVE",
"187 120 CURVE SMOOTH",
"162 120 OFFCURVE",
"153 117 OFFCURVE",
"148 116 CURVE",
"128 105 LINE",
"232 153 LINE SMOOTH",
"339 203 OFFCURVE",
"412 277 OFFCURVE",
"412 356 CURVE SMOOTH",
"412 418 OFFCURVE",
"368 469 OFFCURVE",
"271 469 CURVE SMOOTH",
"159 469 OFFCURVE",
"76 387 OFFCURVE",
"76 293 CURVE SMOOTH",
"76 261 OFFCURVE",
"94 229 OFFCURVE",
"125 213 CURVE",
"142 236 LINE",
"124 244 OFFCURVE",
"106 264 OFFCURVE",
"106 297 CURVE SMOOTH",
"106 363 OFFCURVE",
"164 438 OFFCURVE",
"245 438 CURVE SMOOTH",
"303 438 OFFCURVE",
"331 403 OFFCURVE",
"331 356 CURVE SMOOTH",
"331 248 OFFCURVE",
"221 176 OFFCURVE",
"129 124 CURVE SMOOTH",
"107 111 OFFCURVE",
"98 107 OFFCURVE",
"77 99 CURVE",
"77 73 LINE",
"97 82 OFFCURVE",
"124 92 OFFCURVE",
"149 92 CURVE SMOOTH",
"190 92 OFFCURVE",
"220 71 OFFCURVE",
"220 8 CURVE SMOOTH",
"220 -92 OFFCURVE",
"114 -267 OFFCURVE",
"-19 -267 CURVE SMOOTH",
"-65 -267 OFFCURVE",
"-91 -243 OFFCURVE",
"-91 -226 CURVE SMOOTH",
"-91 -199 OFFCURVE",
"-60 -195 OFFCURVE",
"-60 -162 CURVE SMOOTH",
"-60 -127 OFFCURVE",
"-88 -117 OFFCURVE",
"-102 -117 CURVE SMOOTH",
"-140 -117 OFFCURVE",
"-159 -146 OFFCURVE",
"-159 -180 CURVE SMOOTH",
"-159 -262 OFFCURVE",
"-86 -294 OFFCURVE",
"-19 -294 CURVE SMOOTH"
);
}
);
width = 426;
}
);
leftKerningGroup = o;
rightKerningGroup = o;
unicode = 0033;
},
{
color = 6;
glyphname = four;
layers = (
{
layerId = "9372F035-DA38-4B54-966C-CEBA9B53DD02";
paths = (
{
closed = 1;
nodes = (
"393 20 LINE",
"378 22 LINE SMOOTH",
"342 26 OFFCURVE",
"324 29 OFFCURVE",
"324 53 CURVE SMOOTH",
"324 67 OFFCURVE",
"330 88 OFFCURVE",
"342 121 CURVE SMOOTH",
"375 212 LINE",
"487 212 LINE",
"499 245 LINE",
"387 245 LINE",
"546 681 LINE",
"524 681 LINE",
"23 241 LINE",
"12 212 LINE",
"307 212 LINE",
"273 121 LINE SMOOTH",
"239 31 OFFCURVE",
"224 29 OFFCURVE",
"164 22 CURVE",
"148 21 LINE",
"139 -2 LINE",
"263 0 LINE",
"385 -3 LINE"
);
},
{
closed = 1;
nodes = (
"442 575 LINE",
"319 245 LINE",
"65 245 LINE"
);
}
);
width = 512;
}
);
leftKerningGroup = four.lf;
rightKerningGroup = four.lf;
unicode = 0034;
},
{
color = 6;
glyphname = five;
layers = (
{
guideLines = (
{
angle = 86;
position = "{-7617, -1673}";
}
);
layerId = "9372F035-DA38-4B54-966C-CEBA9B53DD02";
paths = (
{
closed = 1;
nodes = (
"270 -14 OFFCURVE",
"416 173 OFFCURVE",
"416 321 CURVE SMOOTH",
"416 412 OFFCURVE",
"367 454 OFFCURVE",
"297 454 CURVE SMOOTH",
"248 454 OFFCURVE",
"197 430 OFFCURVE",
"162 395 CURVE",
"176 392 LINE",
"291 652 LINE",
"255 615 LINE",
"311 615 LINE SMOOTH",
"415 615 OFFCURVE",
"494 624 OFFCURVE",
"520 696 CURVE SMOOTH",
"524 706 LINE",
"514 706 LINE",
"482 691 OFFCURVE",
"430 688 OFFCURVE",
"375 688 CURVE SMOOTH",
"365 688 OFFCURVE",
"354 688 OFFCURVE",
"344 688 CURVE SMOOTH",
"305 689 LINE",
"317 716 LINE",
"291 716 LINE",
"133 354 LINE",
"152 354 LINE",
"181 389 OFFCURVE",
"224 421 OFFCURVE",
"269 421 CURVE SMOOTH",
"305 421 OFFCURVE",
"335 398 OFFCURVE",
"335 336 CURVE SMOOTH",
"335 204 OFFCURVE",
"232 12 OFFCURVE",
"108 12 CURVE SMOOTH",
"69 12 OFFCURVE",
"48 32 OFFCURVE",
"48 54 CURVE SMOOTH",
"48 85 OFFCURVE",
"79 83 OFFCURVE",
"79 120 CURVE SMOOTH",
"79 135 OFFCURVE",
"66 158 OFFCURVE",
"34 158 CURVE SMOOTH",
"5 158 OFFCURVE",
"-21 136 OFFCURVE",
"-21 97 CURVE SMOOTH",
"-21 28 OFFCURVE",
"34 -14 OFFCURVE",
"105 -14 CURVE SMOOTH"
);
}
);
width = 453;
}
);
leftKerningGroup = five.lf;
rightKerningGroup = six.lf;
unicode = 0035;
},
{
color = 6;
glyphname = six;
layers = (
{
layerId = "9372F035-DA38-4B54-966C-CEBA9B53DD02";
paths = (
{
closed = 1;
nodes = (
"331 -14 OFFCURVE",
"470 156 OFFCURVE",
"470 305 CURVE SMOOTH",
"470 394 OFFCURVE",
"412 431 OFFCURVE",
"348 431 CURVE SMOOTH",
"286 431 OFFCURVE",
"213 393 OFFCURVE",
"147 278 CURVE",
"156 278 LINE",
"244 570 OFFCURVE",
"367 693 OFFCURVE",
"445 693 CURVE SMOOTH",
"471 693 OFFCURVE",
"483 681 OFFCURVE",
"483 652 CURVE SMOOTH",
"483 627 OFFCURVE",
"497 609 OFFCURVE",
"527 609 CURVE SMOOTH",
"559 609 OFFCURVE",
"580 636 OFFCURVE",
"580 664 CURVE SMOOTH",
"580 710 OFFCURVE",
"528 724 OFFCURVE",
"487 724 CURVE SMOOTH",
"318 724 OFFCURVE",
"164 547 OFFCURVE",
"89 307 CURVE SMOOTH",
"67 236 OFFCURVE",
"54 172 OFFCURVE",
"54 128 CURVE SMOOTH",
"54 38 OFFCURVE",
"105 -14 OFFCURVE",
"190 -14 CURVE SMOOTH"
);
},
{
closed = 1;
nodes = (
"154 11 OFFCURVE",
"123 39 OFFCURVE",
"123 92 CURVE SMOOTH",
"123 212 OFFCURVE",
"227 403 OFFCURVE",
"326 403 CURVE SMOOTH",
"368 403 OFFCURVE",
"389 375 OFFCURVE",
"389 318 CURVE SMOOTH",
"389 198 OFFCURVE",
"303 11 OFFCURVE",
"195 11 CURVE SMOOTH"
);
}
);
width = 515;
}
);
leftKerningGroup = zero.lf;
leftMetricsKey = zero;
rightKerningGroup = six.lf;
unicode = 0036;
},
{
color = 6;
glyphname = seven;
layers = (
{
guideLines = (
{
position = "{-9890, -1757}";
}
);
layerId = "9372F035-DA38-4B54-966C-CEBA9B53DD02";
paths = (
{
closed = 1;
nodes = (
"-4 -294 OFFCURVE",
"24 -282 OFFCURVE",
"58 -231 CURVE SMOOTH",
"492 434 LINE",
"498 450 LINE",
"141 450 LINE",
"159 500 LINE",
"137 500 LINE",
"52 268 LINE",
"74 268 LINE",
"111 368 LINE",
"425 368 LINE",
"-12 -197 LINE SMOOTH",
"-36 -227 OFFCURVE",
"-47 -253 OFFCURVE",
"-47 -271 CURVE SMOOTH",
"-47 -285 OFFCURVE",
"-39 -294 OFFCURVE",
"-24 -294 CURVE SMOOTH"
);
}
);
width = 468;
}
);
leftKerningGroup = seven;
rightKerningGroup = seven;
unicode = 0037;
},
{
color = 6;
glyphname = eight;
layers = (
{
backgroundImage = {
imagePath = "../../ANRT-Baskerwille/GLYPHS/Master/Glyphs-171013-01/chiffres/JACOB-notice-187525.jpg";
locked = "1";
transform = "{2.22782, -0.046, 13.57798, 2.86327, 0, -4521}";
};
layerId = "9372F035-DA38-4B54-966C-CEBA9B53DD02";
paths = (
{
closed = 1;
nodes = (
"317 -14 OFFCURVE",
"444 82 OFFCURVE",
"444 198 CURVE SMOOTH",
"444 279 OFFCURVE",
"374 354 OFFCURVE",
"331 409 CURVE SMOOTH",
"290 467 OFFCURVE",
"264 505 OFFCURVE",
"264 554 CURVE SMOOTH",
"264 627 OFFCURVE",
"317 691 OFFCURVE",
"412 691 CURVE SMOOTH",
"471 691 OFFCURVE",
"512 659 OFFCURVE",
"512 607 CURVE SMOOTH",
"512 515 OFFCURVE",
"408 445 OFFCURVE",
"300 404 CURVE",
"321 381 LINE",
"438 430 OFFCURVE",
"544 509 OFFCURVE",
"544 614 CURVE SMOOTH",
"544 678 OFFCURVE",
"489 723 OFFCURVE",
"411 723 CURVE SMOOTH",
"282 723 OFFCURVE",
"184 647 OFFCURVE",
"184 547 CURVE SMOOTH",
"184 482 OFFCURVE",
"232 416 OFFCURVE",
"268 365 CURVE SMOOTH",
"320 299 OFFCURVE",
"363 257 OFFCURVE",
"363 190 CURVE SMOOTH",
"363 94 OFFCURVE",
"304 17 OFFCURVE",
"187 17 CURVE SMOOTH",
"105 17 OFFCURVE",
"59 61 OFFCURVE",
"59 134 CURVE SMOOTH",
"59 232 OFFCURVE",
"152 301 OFFCURVE",
"294 368 CURVE",
"275 389 LINE",
"125 316 OFFCURVE",
"27 240 OFFCURVE",
"27 126 CURVE SMOOTH",
"27 48 OFFCURVE",
"88 -14 OFFCURVE",
"184 -14 CURVE SMOOTH"
);
}
);
width = 491;
}
);
leftKerningGroup = zero.lf;
rightKerningGroup = zero.lf;
unicode = 0038;
},
{
color = 6;
glyphname = zero.lf;
layers = (
{
layerId = "9372F035-DA38-4B54-966C-CEBA9B53DD02";
paths = (
{
closed = 1;
nodes = (
"467 -14 OFFCURVE",
"670 269 OFFCURVE",
"670 520 CURVE SMOOTH",
"670 649 OFFCURVE",
"613 724 OFFCURVE",
"493 724 CURVE SMOOTH",
"296 724 OFFCURVE",
"83 444 OFFCURVE",
"83 193 CURVE SMOOTH",
"83 65 OFFCURVE",
"145 -14 OFFCURVE",
"249 -14 CURVE SMOOTH"
);
},
{
closed = 1;
nodes = (
"187 13 OFFCURVE",
"163 65 OFFCURVE",
"163 141 CURVE SMOOTH",
"163 349 OFFCURVE",
"329 697 OFFCURVE",
"495 697 CURVE SMOOTH",
"567 697 OFFCURVE",
"591 648 OFFCURVE",
"591 570 CURVE SMOOTH",
"591 337 OFFCURVE",
"421 13 OFFCURVE",
"256 13 CURVE SMOOTH"
);
}
);
width = 630;
}
);
leftKerningGroup = zero.lf;
rightKerningGroup = zero.lf;
},
{
color = 6;
glyphname = one.lf;
layers = (
{
layerId = "9372F035-DA38-4B54-966C-CEBA9B53DD02";
paths = (
{
closed = 1;
nodes = (
"121 0 LINE",
"274 -3 LINE",
"283 22 LINE",
"264 24 LINE SMOOTH",
"211 30 OFFCURVE",
"189 36 OFFCURVE",
"189 63 CURVE SMOOTH",
"189 78 OFFCURVE",
"196 100 OFFCURVE",
"208 133 CURVE SMOOTH",
"415 719 LINE",
"377 719 LINE",
"322 699 OFFCURVE",
"286 684 OFFCURVE",
"206 675 CURVE",
"195 645 LINE",
"228 642 LINE SMOOTH",
"276 638 OFFCURVE",
"292 625 OFFCURVE",
"292 601 CURVE SMOOTH",
"292 590 OFFCURVE",
"289 577 OFFCURVE",
"283 561 CURVE SMOOTH",
"132 133 LINE SMOOTH",
"97 34 OFFCURVE",
"74 32 OFFCURVE",
"-2 24 CURVE SMOOTH",
"-23 22 LINE",
"-32 -3 LINE"
);
}
);
width = 374;
}
);
leftKerningGroup = one.lf;
rightKerningGroup = one.lf;
},
{
color = 6;
glyphname = two.lf;
layers = (
{
layerId = "9372F035-DA38-4B54-966C-CEBA9B53DD02";
paths = (
{
closed = 1;
nodes = (
"423 0 LINE",
"433 29 LINE",
"488 177 LINE",
"461 177 LINE",
"451 157 LINE SMOOTH",
"418 91 OFFCURVE",
"416 70 OFFCURVE",
"314 69 CURVE SMOOTH",
"63 66 LINE",
"22 17 LINE",
"299 219 LINE SMOOTH",
"426 311 OFFCURVE",
"600 429 OFFCURVE",
"600 582 CURVE SMOOTH",
"600 669 OFFCURVE",
"535 724 OFFCURVE",
"424 724 CURVE SMOOTH",
"261 724 OFFCURVE",
"165 592 OFFCURVE",
"165 510 CURVE SMOOTH",
"165 471 OFFCURVE",
"178 433 OFFCURVE",
"220 433 CURVE SMOOTH",
"251 433 OFFCURVE",
"273 455 OFFCURVE",
"273 488 CURVE SMOOTH",
"273 511 OFFCURVE",
"260 521 OFFCURVE",
"249 532 CURVE SMOOTH",
"239 542 OFFCURVE",
"229 550 OFFCURVE",
"229 567 CURVE SMOOTH",
"229 616 OFFCURVE",
"301 679 OFFCURVE",
"389 679 CURVE SMOOTH",
"468 679 OFFCURVE",
"510 639 OFFCURVE",
"510 576 CURVE SMOOTH",
"510 440 OFFCURVE",
"368 319 OFFCURVE",
"262 236 CURVE SMOOTH",
"8 36 LINE",
"-4 0 LINE"
);
}
);
width = 564;
}
);
leftKerningGroup = two.lf;
rightKerningGroup = zero.lf;
},
{
color = 6;
glyphname = three.lf;
layers = (
{
guideLines = (
{
position = "{-1392, -280}";
}
);
layerId = "9372F035-DA38-4B54-966C-CEBA9B53DD02";
paths = (
{
closed = 1;
nodes = (
"352 -14 OFFCURVE",
"492 126 OFFCURVE",
"492 272 CURVE SMOOTH",
"492 351 OFFCURVE",
"446 400 OFFCURVE",
"356 400 CURVE SMOOTH",
"344 400 OFFCURVE",
"316 397 OFFCURVE",
"284 392 CURVE",
"280 381 LINE",
"393 410 OFFCURVE",
"588 484 OFFCURVE",
"588 613 CURVE SMOOTH",
"588 691 OFFCURVE",
"516 724 OFFCURVE",
"435 724 CURVE SMOOTH",
"293 724 OFFCURVE",
"195 646 OFFCURVE",
"195 578 CURVE SMOOTH",
"195 555 OFFCURVE",
"210 524 OFFCURVE",
"246 524 CURVE SMOOTH",
"276 524 OFFCURVE",
"300 542 OFFCURVE",
"300 571 CURVE SMOOTH",
"300 587 OFFCURVE",
"294 594 OFFCURVE",
"288 599 CURVE SMOOTH",
"281 605 OFFCURVE",
"272 612 OFFCURVE",
"272 623 CURVE SMOOTH",
"272 658 OFFCURVE",
"331 694 OFFCURVE",
"399 694 CURVE SMOOTH",
"466 694 OFFCURVE",
"498 663 OFFCURVE",
"498 615 CURVE SMOOTH",
"498 501 OFFCURVE",
"369 428 OFFCURVE",
"246 392 CURVE",
"232 357 LINE",
"262 367 OFFCURVE",
"291 374 OFFCURVE",
"316 374 CURVE SMOOTH",
"376 374 OFFCURVE",
"411 343 OFFCURVE",
"411 282 CURVE SMOOTH",
"411 149 OFFCURVE",
"293 15 OFFCURVE",
"168 15 CURVE SMOOTH",
"111 15 OFFCURVE",
"85 37 OFFCURVE",
"85 54 CURVE SMOOTH",
"85 81 OFFCURVE",
"116 85 OFFCURVE",
"116 118 CURVE SMOOTH",
"116 153 OFFCURVE",
"88 163 OFFCURVE",
"74 163 CURVE SMOOTH",
"36 163 OFFCURVE",
"17 134 OFFCURVE",
"17 100 CURVE SMOOTH",
"17 18 OFFCURVE",
"90 -14 OFFCURVE",
"170 -14 CURVE SMOOTH"
);
}
);
width = 537;
}
);
leftKerningGroup = three.lf;
rightKerningGroup = three.lf;
},
{
color = 6;
glyphname = four.lf;
layers = (
{
layerId = "9372F035-DA38-4B54-966C-CEBA9B53DD02";
paths = (
{
closed = 1;
nodes = (
"452 171 LINE",
"461 198 LINE",
"35 198 LINE",
"28 175 LINE",
"599 696 LINE",
"605 710 LINE",
"475 710 LINE",
"363 566 OFFCURVE",
"228 400 OFFCURVE",
"84 259 CURVE SMOOTH",
"19 196 LINE",
"10 171 LINE"
);
},
{
closed = 1;
nodes = (
"261 0 LINE",
"414 -3 LINE",
"422 22 LINE",
"405 24 LINE SMOOTH",
"350 30 OFFCURVE",
"328 37 OFFCURVE",
"328 65 CURVE SMOOTH",
"328 80 OFFCURVE",
"335 102 OFFCURVE",
"346 133 CURVE SMOOTH",
"452 433 LINE",
"428 433 LINE",
"408 407 OFFCURVE",
"376 391 OFFCURVE",
"358 386 CURVE",
"268 133 LINE SMOOTH",
"236 44 OFFCURVE",
"214 32 OFFCURVE",
"136 24 CURVE SMOOTH",
"115 22 LINE",
"105 -3 LINE"
);
}
);
width = 509;
}
);
leftKerningGroup = four.lf;
rightKerningGroup = four.lf;
},
{
color = 6;
glyphname = five.lf;
layers = (
{
layerId = "9372F035-DA38-4B54-966C-CEBA9B53DD02";
paths = (
{
closed = 1;
nodes = (
"327 -14 OFFCURVE",
"467 131 OFFCURVE",
"467 305 CURVE SMOOTH",
"467 383 OFFCURVE",
"423 446 OFFCURVE",
"321 446 CURVE SMOOTH",
"269 446 OFFCURVE",
"213 426 OFFCURVE",
"169 383 CURVE",
"180 361 LINE",
"285 628 LINE",
"416 628 LINE SMOOTH",
"494 628 OFFCURVE",
"564 628 OFFCURVE",
"600 715 CURVE",
"595 717 LINE",
"553 711 OFFCURVE",
"516 710 OFFCURVE",
"483 710 CURVE SMOOTH",
"468 710 OFFCURVE",
"454 710 OFFCURVE",
"440 710 CURVE SMOOTH",
"289 710 LINE",
"148 355 LINE",
"174 355 LINE",
"199 382 OFFCURVE",
"243 412 OFFCURVE",
"294 412 CURVE SMOOTH",
"361 412 OFFCURVE",
"378 357 OFFCURVE",
"378 309 CURVE SMOOTH",
"378 160 OFFCURVE",
"266 15 OFFCURVE",
"136 15 CURVE SMOOTH",
"88 15 OFFCURVE",
"62 34 OFFCURVE",
"62 54 CURVE SMOOTH",
"62 85 OFFCURVE",
"93 83 OFFCURVE",
"93 120 CURVE SMOOTH",
"93 135 OFFCURVE",
"80 158 OFFCURVE",
"48 158 CURVE SMOOTH",
"19 158 OFFCURVE",
"-7 136 OFFCURVE",
"-7 97 CURVE SMOOTH",
"-7 29 OFFCURVE",
"54 -14 OFFCURVE",
"143 -14 CURVE SMOOTH"
);
}
);
width = 497;
}
);
leftKerningGroup = five.lf;
rightKerningGroup = six.lf;
},
{
color = 6;
glyphname = six.lf;
layers = (
{
layerId = "9372F035-DA38-4B54-966C-CEBA9B53DD02";
paths = (
{
closed = 1;
nodes = (
"376 -14 OFFCURVE",
"524 117 OFFCURVE",
"524 279 CURVE SMOOTH",
"524 377 OFFCURVE",
"455 429 OFFCURVE",
"377 429 CURVE SMOOTH",
"304 429 OFFCURVE",
"218 388 OFFCURVE",
"151 282 CURVE",
"186 297 LINE",
"219 391 OFFCURVE",
"252 471 OFFCURVE",
"286 532 CURVE SMOOTH",
"348 644 OFFCURVE",
"428 696 OFFCURVE",
"498 696 CURVE SMOOTH",
"533 696 OFFCURVE",
"540 674 OFFCURVE",
"540 632 CURVE SMOOTH",
"540 606 OFFCURVE",
"557 589 OFFCURVE",
"584 589 CURVE SMOOTH",
"616 589 OFFCURVE",
"632 618 OFFCURVE",
"632 644 CURVE SMOOTH",
"632 670 OFFCURVE",
"619 724 OFFCURVE",
"508 724 CURVE SMOOTH",
"287 724 OFFCURVE",
"64 371 OFFCURVE",
"64 154 CURVE SMOOTH",
"64 33 OFFCURVE",
"139 -14 OFFCURVE",
"231 -14 CURVE SMOOTH"
);
},
{
closed = 1;
nodes = (
"176 14 OFFCURVE",
"142 57 OFFCURVE",
"142 126 CURVE SMOOTH",
"142 237 OFFCURVE",
"240 396 OFFCURVE",
"351 396 CURVE SMOOTH",
"405 396 OFFCURVE",
"442 361 OFFCURVE",
"442 299 CURVE SMOOTH",
"442 154 OFFCURVE",
"337 14 OFFCURVE",
"236 14 CURVE SMOOTH"
);
}
);
width = 550;
}
);
leftKerningGroup = zero.lf;
leftMetricsKey = zero.lf;
rightKerningGroup = six.lf;
},
{
color = 6;
glyphname = seven.lf;
layers = (
{
layerId = "9372F035-DA38-4B54-966C-CEBA9B53DD02";
paths = (
{
closed = 1;
nodes = (
"117 0 LINE",
"225 167 OFFCURVE",
"336 332 OFFCURVE",
"501 533 CURVE SMOOTH",
"627 688 LINE",
"636 710 LINE",
"225 710 LINE",
"212 675 LINE",
"157 527 LINE",
"183 527 LINE",
"192 547 LINE SMOOTH",
"228 624 OFFCURVE",
"239 640 OFFCURVE",
"330 640 CURVE SMOOTH",
"568 640 LINE",
"572 664 LINE",
"-4 0 LINE"
);
}
);
width = 478;
}
);
leftKerningGroup = seven.lf;
rightKerningGroup = seven.lf;
},
{
color = 6;
glyphname = eight.lf;
layers = (
{
layerId = "9372F035-DA38-4B54-966C-CEBA9B53DD02";
paths = (
{
closed = 1;
nodes = (
"377 -14 OFFCURVE",
"508 107 OFFCURVE",
"508 233 CURVE SMOOTH",
"508 309 OFFCURVE",
"457 370 OFFCURVE",
"360 387 CURVE",
"385 371 LINE",
"523 389 OFFCURVE",
"612 474 OFFCURVE",
"612 576 CURVE SMOOTH",
"612 665 OFFCURVE",
"544 724 OFFCURVE",
"447 724 CURVE SMOOTH",
"309 724 OFFCURVE",
"197 628 OFFCURVE",
"197 515 CURVE SMOOTH",
"197 448 OFFCURVE",
"244 393 OFFCURVE",
"316 376 CURVE",
"296 388 LINE",
"158 368 OFFCURVE",
"53 244 OFFCURVE",
"53 138 CURVE SMOOTH",
"53 52 OFFCURVE",
"115 -14 OFFCURVE",
"227 -14 CURVE SMOOTH"
);
},
{
closed = 1;
nodes = (
"171 10 OFFCURVE",
"139 51 OFFCURVE",
"139 119 CURVE SMOOTH",
"139 229 OFFCURVE",
"225 368 OFFCURVE",
"329 368 CURVE SMOOTH",
"386 368 OFFCURVE",
"422 328 OFFCURVE",
"422 255 CURVE SMOOTH",
"422 143 OFFCURVE",
"338 10 OFFCURVE",
"228 10 CURVE SMOOTH"
);
},
{
closed = 1;
nodes = (
"307 392 OFFCURVE",
"278 439 OFFCURVE",
"278 497 CURVE SMOOTH",
"278 594 OFFCURVE",
"355 700 OFFCURVE",
"445 700 CURVE SMOOTH",
"496 700 OFFCURVE",
"530 671 OFFCURVE",
"530 604 CURVE SMOOTH",
"530 501 OFFCURVE",
"454 392 OFFCURVE",
"362 392 CURVE SMOOTH"
);
}
);
width = 555;
}
);
leftKerningGroup = zero.lf;
rightKerningGroup = zero.lf;
},
{
color = 6;
glyphname = zero.sups;
layers = (
{
layerId = "9372F035-DA38-4B54-966C-CEBA9B53DD02";
paths = (
{
closed = 1;
nodes = (
"388 290 OFFCURVE",
"514 458 OFFCURVE",
"514 592 CURVE SMOOTH",
"514 674 OFFCURVE",
"475 716 OFFCURVE",
"396 716 CURVE SMOOTH",
"257 716 OFFCURVE",
"132 548 OFFCURVE",
"132 413 CURVE SMOOTH",
"132 336 OFFCURVE",
"171 290 OFFCURVE",
"247 290 CURVE SMOOTH"
);
},
{
closed = 1;
nodes = (
"218 315 OFFCURVE",
"194 334 OFFCURVE",
"194 389 CURVE SMOOTH",
"194 487 OFFCURVE",
"287 691 OFFCURVE",
"394 691 CURVE SMOOTH",
"428 691 OFFCURVE",
"452 671 OFFCURVE",
"452 619 CURVE SMOOTH",
"452 518 OFFCURVE",
"357 315 OFFCURVE",
"251 315 CURVE SMOOTH"
);
}
);
width = 415;
}
);
leftKerningGroup = sups;
leftMetricsKey = "=zero.lf-15";
rightKerningGroup = sups;
rightMetricsKey = "=zero.lf-15";
},
{
color = 6;
glyphname = one.sups;
layers = (
{
layerId = "9372F035-DA38-4B54-966C-CEBA9B53DD02";
paths = (
{
closed = 1;
nodes = (
"161 297 LINE",
"262 295 LINE",
"270 317 LINE",
"251 318 LINE SMOOTH",
"223 319 OFFCURVE",
"210 322 OFFCURVE",
"210 338 CURVE SMOOTH",
"210 346 OFFCURVE",
"215 361 OFFCURVE",
"222 380 CURVE SMOOTH",
"344 716 LINE",
"309 716 LINE",
"251 695 OFFCURVE",
"244 694 OFFCURVE",
"197 690 CURVE",
"188 667 LINE",
"218 665 LINE SMOOTH",
"242 663 OFFCURVE",
"252 659 OFFCURVE",
"252 644 CURVE SMOOTH",
"252 638 OFFCURVE",
"249 629 OFFCURVE",
"245 618 CURVE SMOOTH",
"159 380 LINE SMOOTH",
"140 327 OFFCURVE",
"132 320 OFFCURVE",
"84 318 CURVE SMOOTH",
"63 317 LINE",
"55 295 LINE"
);
}
);
width = 240;
}
);
leftKerningGroup = sups;
leftMetricsKey = "=one-15";
rightKerningGroup = sups;
rightMetricsKey = "=one-15";
},
{
color = 6;
glyphname = two.sups;
layers = (
{
layerId = "9372F035-DA38-4B54-966C-CEBA9B53DD02";
paths = (
{
closed = 1;
nodes = (
"334 297 LINE",
"345 332 LINE",
"373 400 LINE",
"352 400 LINE",
"326 362 OFFCURVE",
"317 356 OFFCURVE",
"265 355 CURVE SMOOTH",
"129 353 LINE",
"115 327 LINE",
"260 424 LINE SMOOTH",
"352 485 OFFCURVE",
"450 551 OFFCURVE",
"450 630 CURVE SMOOTH",
"450 683 OFFCURVE",
"411 717 OFFCURVE",
"334 717 CURVE SMOOTH",
"243 717 OFFCURVE",
"164 662 OFFCURVE",
"164 598 CURVE SMOOTH",
"164 572 OFFCURVE",
"176 547 OFFCURVE",
"207 547 CURVE SMOOTH",
"229 547 OFFCURVE",
"248 564 OFFCURVE",
"248 586 CURVE SMOOTH",
"248 599 OFFCURVE",
"243 607 OFFCURVE",
"236 612 CURVE SMOOTH",
"227 619 OFFCURVE",
"219 626 OFFCURVE",
"219 634 CURVE SMOOTH",
"219 663 OFFCURVE",
"258 691 OFFCURVE",
"306 691 CURVE SMOOTH",
"348 691 OFFCURVE",
"378 668 OFFCURVE",
"378 625 CURVE SMOOTH",
"378 551 OFFCURVE",
"314 493 OFFCURVE",
"231 434 CURVE SMOOTH",
"71 320 LINE",
"63 297 LINE"
);
}
);
width = 347;
}
);
leftKerningGroup = sups;
rightKerningGroup = sups;
},
{
color = 6;
glyphname = three.sups;
layers = (
{
layerId = "9372F035-DA38-4B54-966C-CEBA9B53DD02";
paths = (
{
closed = 1;
nodes = (
"279 290 OFFCURVE",
"393 354 OFFCURVE",
"393 439 CURVE SMOOTH",
"393 488 OFFCURVE",
"354 521 OFFCURVE",
"286 521 CURVE SMOOTH",
"280 521 LINE",
"283 519 LINE",
"363 537 OFFCURVE",
"450 570 OFFCURVE",
"450 638 CURVE SMOOTH",
"450 691 OFFCURVE",
"400 717 OFFCURVE",
"327 717 CURVE SMOOTH",
"239 717 OFFCURVE",
"179 664 OFFCURVE",
"179 619 CURVE SMOOTH",
"179 594 OFFCURVE",
"196 578 OFFCURVE",
"216 578 CURVE SMOOTH",
"241 578 OFFCURVE",
"254 593 OFFCURVE",
"254 614 CURVE SMOOTH",
"254 618 OFFCURVE",
"252 628 OFFCURVE",
"247 635 CURVE SMOOTH",
"242 643 OFFCURVE",
"239 648 OFFCURVE",
"239 652 CURVE SMOOTH",
"239 674 OFFCURVE",
"273 695 OFFCURVE",
"316 695 CURVE SMOOTH",
"361 695 OFFCURVE",
"378 671 OFFCURVE",
"378 642 CURVE SMOOTH",
"378 587 OFFCURVE",
"308 539 OFFCURVE",
"221 516 CURVE",
"213 494 LINE",
"222 497 OFFCURVE",
"243 502 OFFCURVE",
"266 502 CURVE SMOOTH",
"308 502 OFFCURVE",
"327 480 OFFCURVE",
"327 444 CURVE SMOOTH",
"327 370 OFFCURVE",
"251 310 OFFCURVE",
"182 310 CURVE SMOOTH",
"150 310 OFFCURVE",
"134 319 OFFCURVE",
"134 332 CURVE SMOOTH",
"134 338 OFFCURVE",
"138 343 OFFCURVE",
"143 349 CURVE SMOOTH",
"148 355 OFFCURVE",
"153 362 OFFCURVE",
"153 373 CURVE SMOOTH",
"153 390 OFFCURVE",
"140 403 OFFCURVE",
"119 403 CURVE SMOOTH",
"92 403 OFFCURVE",
"72 383 OFFCURVE",
"72 357 CURVE SMOOTH",
"72 314 OFFCURVE",
"117 290 OFFCURVE",
"183 290 CURVE SMOOTH"
);
}
);
width = 348;
}
);
leftKerningGroup = sups;
rightKerningGroup = sups;
},
{
color = 6;
glyphname = four.sups;
layers = (
{
layerId = "9372F035-DA38-4B54-966C-CEBA9B53DD02";
paths = (
{
closed = 1;
nodes = (
"255 395 LINE",
"263 417 LINE",
"108 417 LINE",
"100 401 LINE",
"441 710 LINE",
"330 710 LINE",
"272 630 OFFCURVE",
"164 484 OFFCURVE",
"82 406 CURVE",
"78 395 LINE"
);
},
{
closed = 1;
nodes = (
"246 296 LINE",
"331 294 LINE",
"341 314 LINE",
"329 315 LINE SMOOTH",
"307 317 OFFCURVE",
"296 319 OFFCURVE",
"296 335 CURVE SMOOTH",
"296 343 OFFCURVE",
"301 358 OFFCURVE",
"307 373 CURVE SMOOTH",
"371 547 LINE",
"349 547 LINE",
"330 534 OFFCURVE",
"310 524 OFFCURVE",
"295 520 CURVE",
"241 373 LINE SMOOTH",
"223 325 OFFCURVE",
"218 317 OFFCURVE",
"169 315 CURVE SMOOTH",
"147 314 LINE",
"139 294 LINE"
);
},
{
closed = 1;
nodes = (
"364 395 LINE",
"372 417 LINE",
"317 417 LINE",
"309 395 LINE"
);
}
);
width = 325;
}
);
leftKerningGroup = sups;
rightKerningGroup = sups;
},
{
color = 6;
glyphname = five.sups;
layers = (
{
layerId = "9372F035-DA38-4B54-966C-CEBA9B53DD02";
paths = (
{
closed = 1;
nodes = (
"279 290 OFFCURVE",
"391 371 OFFCURVE",
"391 473 CURVE SMOOTH",
"391 522 OFFCURVE",
"361 558 OFFCURVE",
"301 558 CURVE SMOOTH",
"246 558 OFFCURVE",
"201 530 OFFCURVE",
"179 498 CURVE",
"201 506 LINE",
"263 678 LINE",
"239 648 LINE",
"338 648 LINE SMOOTH",
"394 648 OFFCURVE",
"442 652 OFFCURVE",
"466 713 CURVE",
"443 712 OFFCURVE",
"391 710 OFFCURVE",
"356 710 CURVE SMOOTH",
"252 710 LINE",
"168 485 LINE",
"187 485 LINE",
"209 510 OFFCURVE",
"246 534 OFFCURVE",
"278 534 CURVE SMOOTH",
"304 534 OFFCURVE",
"322 518 OFFCURVE",
"322 485 CURVE SMOOTH",
"322 395 OFFCURVE",
"253 311 OFFCURVE",
"175 311 CURVE SMOOTH",
"150 311 OFFCURVE",
"134 320 OFFCURVE",
"134 331 CURVE SMOOTH",
"134 338 OFFCURVE",
"139 347 OFFCURVE",
"143 353 CURVE SMOOTH",
"148 361 OFFCURVE",
"153 371 OFFCURVE",
"153 380 CURVE SMOOTH",
"153 393 OFFCURVE",
"143 407 OFFCURVE",
"120 407 CURVE SMOOTH",
"91 407 OFFCURVE",
"72 383 OFFCURVE",
"72 357 CURVE SMOOTH",
"72 322 OFFCURVE",
"107 290 OFFCURVE",
"175 290 CURVE SMOOTH"
);
}
);
width = 342;
}
);
leftKerningGroup = sups;
rightKerningGroup = sups;
},
{
color = 6;
glyphname = six.sups;
layers = (
{
layerId = "9372F035-DA38-4B54-966C-CEBA9B53DD02";
paths = (
{
closed = 1;
nodes = (
"315 290 OFFCURVE",
"416 359 OFFCURVE",
"416 462 CURVE SMOOTH",
"416 514 OFFCURVE",
"373 546 OFFCURVE",
"316 546 CURVE SMOOTH",
"265 546 OFFCURVE",
"230 526 OFFCURVE",
"198 495 CURVE",
"212 495 LINE",
"248 591 OFFCURVE",
"304 701 OFFCURVE",
"385 701 CURVE SMOOTH",
"401 701 OFFCURVE",
"413 696 OFFCURVE",
"413 683 CURVE SMOOTH",
"413 675 OFFCURVE",
"408 668 OFFCURVE",
"403 662 CURVE SMOOTH",
"396 654 OFFCURVE",
"389 645 OFFCURVE",
"389 633 CURVE SMOOTH",
"389 614 OFFCURVE",
"403 603 OFFCURVE",
"423 603 CURVE SMOOTH",
"452 603 OFFCURVE",
"469 627 OFFCURVE",
"469 652 CURVE SMOOTH",
"469 691 OFFCURVE",
"438 717 OFFCURVE",
"391 717 CURVE SMOOTH",
"245 717 OFFCURVE",
"115 527 OFFCURVE",
"115 391 CURVE SMOOTH",
"115 333 OFFCURVE",
"146 290 OFFCURVE",
"219 290 CURVE SMOOTH"
);
},
{
closed = 1;
nodes = (
"193 310 OFFCURVE",
"175 331 OFFCURVE",
"175 368 CURVE SMOOTH",
"175 434 OFFCURVE",
"240 526 OFFCURVE",
"304 526 CURVE SMOOTH",
"330 526 OFFCURVE",
"349 510 OFFCURVE",
"349 471 CURVE SMOOTH",
"349 399 OFFCURVE",
"294 310 OFFCURVE",
"223 310 CURVE SMOOTH"
);
}
);
width = 363;
}
);
leftKerningGroup = sups;
rightKerningGroup = sups;
},
{
color = 6;
glyphname = seven.sups;
layers = (
{
layerId = "9372F035-DA38-4B54-966C-CEBA9B53DD02";
paths = (
{
closed = 1;
nodes = (
"163 297 LINE",
"234 403 OFFCURVE",
"297 495 OFFCURVE",
"397 608 CURVE SMOOTH",
"476 697 LINE",
"476 710 LINE",
"205 710 LINE",
"157 584 LINE",
"178 584 LINE",
"189 602 LINE SMOOTH",
"212 639 OFFCURVE",
"224 650 OFFCURVE",
"275 650 CURVE SMOOTH",
"415 650 LINE",
"424 666 LINE",
"68 297 LINE"
);
}
);
width = 304;
}
);
leftKerningGroup = sups;
rightKerningGroup = sups;
},
{
color = 6;
glyphname = eight.sups;
layers = (
{
layerId = "9372F035-DA38-4B54-966C-CEBA9B53DD02";
paths = (
{
closed = 1;
nodes = (
"312 290 OFFCURVE",
"407 358 OFFCURVE",
"407 440 CURVE SMOOTH",
"407 476 OFFCURVE",
"384 505 OFFCURVE",
"341 518 CURVE",
"407 529 OFFCURVE",
"471 575 OFFCURVE",
"471 641 CURVE SMOOTH",
"471 683 OFFCURVE",
"439 717 OFFCURVE",
"368 717 CURVE SMOOTH",
"286 717 OFFCURVE",
"189 662 OFFCURVE",
"189 588 CURVE SMOOTH",
"189 560 OFFCURVE",
"209 531 OFFCURVE",
"245 519 CURVE",
"171 501 OFFCURVE",
"97 442 OFFCURVE",
"97 374 CURVE SMOOTH",
"97 331 OFFCURVE",
"131 290 OFFCURVE",
"209 290 CURVE SMOOTH"
);
},
{
closed = 1;
nodes = (
"183 309 OFFCURVE",
"163 330 OFFCURVE",
"163 366 CURVE SMOOTH",
"163 420 OFFCURVE",
"217 508 OFFCURVE",
"288 508 CURVE SMOOTH",
"323 508 OFFCURVE",
"340 489 OFFCURVE",
"340 455 CURVE SMOOTH",
"340 391 OFFCURVE",
"291 309 OFFCURVE",
"219 309 CURVE SMOOTH"
);
},
{
closed = 1;
nodes = (
"274 527 OFFCURVE",
"255 541 OFFCURVE",
"255 574 CURVE SMOOTH",
"255 626 OFFCURVE",
"298 697 OFFCURVE",
"360 697 CURVE SMOOTH",
"392 697 OFFCURVE",
"406 679 OFFCURVE",
"406 650 CURVE SMOOTH",
"406 602 OFFCURVE",
"360 527 OFFCURVE",
"302 527 CURVE SMOOTH"
);
}
);
width = 368;
}
);
leftKerningGroup = sups;
rightKerningGroup = sups;
},
{
color = 6;
glyphname = fraction;
layers = (
{
layerId = "9372F035-DA38-4B54-966C-CEBA9B53DD02";
paths = (
{
closed = 1;
nodes = (
"-162 0 LINE",
"596 710 LINE",
"557 710 LINE",
"-200 0 LINE"
);
}
);
width = 283;
}
);
leftKerningGroup = slash;
rightKerningGroup = slash;
unicode = 2044;
},
{
color = 6;
glyphname = .notdef;
layers = (
{
layerId = "9372F035-DA38-4B54-966C-CEBA9B53DD02";
paths = (
{
closed = 1;
nodes = (
"719 0 LINE",
"950 710 LINE",
"240 710 LINE",
"9 0 LINE"
);
},
{
closed = 1;
nodes = (
"475 336 LINE",
"682 30 LINE",
"72 30 LINE"
);
},
{
closed = 1;
nodes = (
"254 663 LINE",
"459 360 LINE",
"59 58 LINE"
);
},
{
closed = 1;
nodes = (
"500 354 LINE",
"902 658 LINE",
"705 49 LINE"
);
},
{
closed = 1;
nodes = (
"280 680 LINE",
"881 680 LINE",
"483 379 LINE"
);
}
);
width = 870;
}
);
},
{
color = 6;
glyphname = period;
layers = (
{
layerId = "9372F035-DA38-4B54-966C-CEBA9B53DD02";
paths = (
{
closed = 1;
nodes = (
"93 -11 OFFCURVE",
"119 16 OFFCURVE",
"119 49 CURVE SMOOTH",
"119 80 OFFCURVE",
"93 107 OFFCURVE",
"61 107 CURVE SMOOTH",
"26 107 OFFCURVE",
"1 80 OFFCURVE",
"1 49 CURVE SMOOTH",
"1 16 OFFCURVE",
"26 -11 OFFCURVE",
"61 -11 CURVE SMOOTH"
);
}
);
width = 245;
}
);
leftKerningGroup = period;
rightKerningGroup = period;
unicode = 002E;
},
{
color = 6;
glyphname = comma;
layers = (
{
layerId = "9372F035-DA38-4B54-966C-CEBA9B53DD02";
paths = (
{
closed = 1;
nodes = (
"-30 -173 OFFCURVE",
"15 -162 OFFCURVE",
"54 -138 CURVE SMOOTH",
"112 -103 OFFCURVE",
"150 -45 OFFCURVE",
"145 20 CURVE SMOOTH",
"142 70 OFFCURVE",
"104 107 OFFCURVE",
"63 107 CURVE SMOOTH",
"26 107 OFFCURVE",
"1 79 OFFCURVE",
"1 46 CURVE SMOOTH",
"1 12 OFFCURVE",
"25 -18 OFFCURVE",
"59 -18 CURVE SMOOTH",
"91 -18 OFFCURVE",
"107 5 OFFCURVE",
"105 32 CURVE SMOOTH",
"105 36 OFFCURVE",
"104 40 OFFCURVE",
"103 42 CURVE",
"106 46 LINE",
"114 38 OFFCURVE",
"116 25 OFFCURVE",
"116 13 CURVE SMOOTH",
"116 -2 OFFCURVE",
"113 -19 OFFCURVE",
"109 -31 CURVE SMOOTH",
"82 -107 OFFCURVE",
"3 -136 OFFCURVE",
"-68 -151 CURVE",
"-63 -179 LINE"
);
}
);
width = 292;
}
);
leftKerningGroup = period;
leftMetricsKey = period;
rightKerningGroup = period;
rightMetricsKey = period;
unicode = 002C;
},
{
color = 6;
glyphname = exclam;
layers = (
{
hints = (
{
horizontal = 1;
place = "{-11, 118}";
type = Stem;
},
{
horizontal = 1;
place = "{720, -20}";
target = down;
type = TopGhost;
},
{
place = "{31, 118}";
type = Stem;
}
);
layerId = "9372F035-DA38-4B54-966C-CEBA9B53DD02";
paths = (
{
closed = 1;
nodes = (
"322 642 LINE SMOOTH",
"327 654 OFFCURVE",
"329 665 OFFCURVE",
"329 675 CURVE SMOOTH",
"329 705 OFFCURVE",
"307 720 OFFCURVE",
"286 720 CURVE SMOOTH",
"256 720 OFFCURVE",
"231 705 OFFCURVE",
"221 660 CURVE SMOOTH",
"118 208 LINE",
"146 199 LINE"
);
},
{
closed = 1;
nodes = (
"123 -11 OFFCURVE",
"149 16 OFFCURVE",
"149 49 CURVE SMOOTH",
"149 80 OFFCURVE",
"123 107 OFFCURVE",
"91 107 CURVE SMOOTH",
"56 107 OFFCURVE",
"31 80 OFFCURVE",
"31 49 CURVE SMOOTH",
"31 16 OFFCURVE",
"56 -11 OFFCURVE",
"91 -11 CURVE SMOOTH"
);
}
);
width = 275;
}
);
note = exclam;
unicode = 0021;
},
{
color = 6;
glyphname = exclamdown;
layers = (
{
hints = (
{
horizontal = 1;
place = "{-4, 21}";
target = up;
type = BottomGhost;
},
{
horizontal = 1;
place = "{606, 118}";
type = Stem;
},
{
place = "{225, 118}";
type = Stem;
}
);
layerId = "9372F035-DA38-4B54-966C-CEBA9B53DD02";
paths = (
{
closed = 1;
nodes = (
"106 -4 OFFCURVE",
"132 10 OFFCURVE",
"143 55 CURVE SMOOTH",
"253 505 LINE",
"226 515 LINE",
"42 75 LINE SMOOTH",
"37 62 OFFCURVE",
"34 50 OFFCURVE",
"34 41 CURVE SMOOTH",
"34 11 OFFCURVE",
"56 -3 OFFCURVE",
"76 -4 CURVE"
);
},
{
closed = 1;
nodes = (
"319 606 OFFCURVE",
"343 634 OFFCURVE",
"343 665 CURVE SMOOTH",
"343 697 OFFCURVE",
"318 723 OFFCURVE",
"284 724 CURVE SMOOTH",
"252 724 OFFCURVE",
"226 698 OFFCURVE",
"225 665 CURVE SMOOTH",
"225 633 OFFCURVE",
"251 606 OFFCURVE",
"284 606 CURVE SMOOTH"
);
}
);
width = 264;
}
);
note = exclamdown;
unicode = 00A1;
},
{
color = 3;
glyphname = question;
layers = (
{
components = (
{
name = period;
transform = "{1, 0, 0, 1, 70, 0}";
}
);
layerId = "9372F035-DA38-4B54-966C-CEBA9B53DD02";
paths = (
{
closed = 1;
nodes = (
"402 350 OFFCURVE",
"524 474 OFFCURVE",
"524 597 CURVE SMOOTH",
"524 675 OFFCURVE",
"459 720 OFFCURVE",
"377 720 CURVE SMOOTH",
"296 720 OFFCURVE",
"210 681 OFFCURVE",
"210 620 CURVE SMOOTH",
"210 595 OFFCURVE",
"228 581 OFFCURVE",
"253 581 CURVE SMOOTH",
"281 581 OFFCURVE",
"305 597 OFFCURVE",
"303 638 CURVE SMOOTH",
"302 674 OFFCURVE",
"325 694 OFFCURVE",
"377 694 CURVE SMOOTH",
"423 694 OFFCURVE",
"452 670 OFFCURVE",
"452 620 CURVE SMOOTH",
"452 526 OFFCURVE",
"372 377 OFFCURVE",
"275 377 CURVE SMOOTH",
"228 377 OFFCURVE",
"203 404 OFFCURVE",
"202 448 CURVE SMOOTH",
"202 453 OFFCURVE",
"202 459 OFFCURVE",
"202 464 CURVE",
"180 463 LINE",
"178 453 OFFCURVE",
"176 443 OFFCURVE",
"176 433 CURVE SMOOTH",
"178 387 OFFCURVE",
"216 350 OFFCURVE",
"276 350 CURVE SMOOTH"
);
},
{
closed = 1;
nodes = (
"164 172 OFFCURVE",
"182 188 OFFCURVE",
"184 217 CURVE SMOOTH",
"202 464 LINE",
"180 463 LINE",
"114 226 LINE SMOOTH",
"112 219 OFFCURVE",
"111 213 OFFCURVE",
"111 207 CURVE SMOOTH",
"111 187 OFFCURVE",
"121 172 OFFCURVE",
"143 172 CURVE SMOOTH"
);
}
);
width = 460;
}
);
leftKerningGroup = question;
leftMetricsKey = period;
rightMetricsKey = period;
unicode = 003F;
},
{
color = 6;
glyphname = questiondown;
layers = (
{
layerId = "9372F035-DA38-4B54-966C-CEBA9B53DD02";
paths = (
{
closed = 1;
nodes = (
"45 90 OFFCURVE",
"-77 -34 OFFCURVE",
"-77 -157 CURVE SMOOTH",
"-77 -235 OFFCURVE",
"-12 -280 OFFCURVE",
"70 -280 CURVE SMOOTH",
"151 -280 OFFCURVE",
"237 -241 OFFCURVE",
"237 -180 CURVE SMOOTH",
"237 -155 OFFCURVE",
"219 -141 OFFCURVE",
"194 -141 CURVE SMOOTH",
"166 -141 OFFCURVE",
"142 -157 OFFCURVE",
"144 -198 CURVE SMOOTH",
"145 -234 OFFCURVE",
"122 -254 OFFCURVE",
"70 -254 CURVE SMOOTH",
"24 -254 OFFCURVE",
"-5 -230 OFFCURVE",
"-5 -180 CURVE SMOOTH",
"-5 -86 OFFCURVE",
"75 63 OFFCURVE",
"172 63 CURVE SMOOTH",
"219 63 OFFCURVE",
"244 36 OFFCURVE",
"245 -8 CURVE SMOOTH",
"245 -13 OFFCURVE",
"245 -19 OFFCURVE",
"245 -24 CURVE",
"267 -23 LINE",
"269 -13 OFFCURVE",
"271 -3 OFFCURVE",
"271 7 CURVE SMOOTH",
"269 53 OFFCURVE",
"231 90 OFFCURVE",
"171 90 CURVE SMOOTH"
);
},
{
closed = 1;
nodes = (
"283 268 OFFCURVE",
"265 252 OFFCURVE",
"263 223 CURVE SMOOTH",
"245 -24 LINE",
"267 -23 LINE",
"333 214 LINE SMOOTH",
"335 221 OFFCURVE",
"336 227 OFFCURVE",
"336 233 CURVE SMOOTH",
"336 253 OFFCURVE",
"326 268 OFFCURVE",
"304 268 CURVE SMOOTH"
);
},
{
closed = 1;
nodes = (
"284 451 OFFCURVE",
"258 424 OFFCURVE",
"258 391 CURVE SMOOTH",
"258 360 OFFCURVE",
"284 333 OFFCURVE",
"316 333 CURVE SMOOTH",
"351 333 OFFCURVE",
"376 360 OFFCURVE",
"376 391 CURVE SMOOTH",
"376 424 OFFCURVE",
"351 451 OFFCURVE",
"316 451 CURVE SMOOTH"
);
}
);
width = 454;
}
);
unicode = 00BF;
},
{
color = 6;
glyphname = asterisk;
layers = (
{
layerId = "9372F035-DA38-4B54-966C-CEBA9B53DD02";
paths = (
{
closed = 1;
nodes = (
"388 305 OFFCURVE",
"402 325 OFFCURVE",
"402 355 CURVE SMOOTH",
"402 392 OFFCURVE",
"375 437 OFFCURVE",
"375 498 CURVE",
"428 468 OFFCURVE",
"454 421 OFFCURVE",
"486 402 CURVE SMOOTH",
"497 395 OFFCURVE",
"508 392 OFFCURVE",
"517 392 CURVE SMOOTH",
"530 392 OFFCURVE",
"541 399 OFFCURVE",
"548 411 CURVE SMOOTH",
"553 420 OFFCURVE",
"555 427 OFFCURVE",
"555 434 CURVE SMOOTH",
"555 449 OFFCURVE",
"544 460 OFFCURVE",
"525 471 CURVE SMOOTH",
"494 489 OFFCURVE",
"438 485 OFFCURVE",
"385 515 CURVE",
"435 550 OFFCURVE",
"489 551 OFFCURVE",
"520 572 CURVE SMOOTH",
"536 583 OFFCURVE",
"547 595 OFFCURVE",
"547 610 CURVE SMOOTH",
"547 617 OFFCURVE",
"544 625 OFFCURVE",
"538 633 CURVE SMOOTH",
"530 644 OFFCURVE",
"520 650 OFFCURVE",
"508 650 CURVE SMOOTH",
"498 650 OFFCURVE",
"486 645 OFFCURVE",
"474 636 CURVE SMOOTH",
"446 615 OFFCURVE",
"424 566 OFFCURVE",
"375 531 CURVE",
"375 592 OFFCURVE",
"404 637 OFFCURVE",
"404 674 CURVE SMOOTH",
"404 704 OFFCURVE",
"390 724 OFFCURVE",
"365 724 CURVE SMOOTH",
"334 724 OFFCURVE",
"325 703 OFFCURVE",
"325 674 CURVE SMOOTH",
"325 637 OFFCURVE",
"356 592 OFFCURVE",
"356 531 CURVE",
"307 566 OFFCURVE",
"286 615 OFFCURVE",
"257 636 CURVE SMOOTH",
"245 645 OFFCURVE",
"233 650 OFFCURVE",
"223 650 CURVE SMOOTH",
"211 650 OFFCURVE",
"201 644 OFFCURVE",
"193 633 CURVE SMOOTH",
"187 625 OFFCURVE",
"184 617 OFFCURVE",
"184 610 CURVE SMOOTH",
"184 595 OFFCURVE",
"195 583 OFFCURVE",
"211 572 CURVE SMOOTH",
"242 551 OFFCURVE",
"296 550 OFFCURVE",
"346 515 CURVE",
"293 485 OFFCURVE",
"238 489 OFFCURVE",
"206 471 CURVE SMOOTH",
"188 460 OFFCURVE",
"176 449 OFFCURVE",
"176 433 CURVE SMOOTH",
"176 427 OFFCURVE",
"179 419 OFFCURVE",
"183 411 CURVE SMOOTH",
"190 398 OFFCURVE",
"201 392 OFFCURVE",
"214 392 CURVE SMOOTH",
"223 392 OFFCURVE",
"234 395 OFFCURVE",
"245 402 CURVE SMOOTH",
"277 421 OFFCURVE",
"303 468 OFFCURVE",
"356 498 CURVE",
"356 437 OFFCURVE",
"323 392 OFFCURVE",
"323 355 CURVE SMOOTH",
"323 326 OFFCURVE",
"332 305 OFFCURVE",
"363 305 CURVE SMOOTH"
);
}
);
width = 520;
}
);
leftKerningGroup = sups;
rightKerningGroup = sups;
unicode = 002A;
},
{
color = 6;
glyphname = numbersign;
layers = (
{
guideLines = (
{
angle = 73.8967;
position = "{160, 315}";
}
);
layerId = "9372F035-DA38-4B54-966C-CEBA9B53DD02";
paths = (
{
closed = 1;
nodes = (
"432 0 LINE",
"637 710 LINE",
"600 710 LINE",
"395 0 LINE"
);
},
{
closed = 1;
nodes = (
"239 237 LINE",
"248 268 LINE",
"65 268 LINE",
"56 237 LINE"
);
},
{
closed = 1;
nodes = (
"472 237 LINE",
"481 268 LINE",
"268 268 LINE",
"261 237 LINE"
);
},
{
closed = 1;
nodes = (
"199 0 LINE",
"404 710 LINE",
"368 710 LINE",
"162 0 LINE"
);
},
{
closed = 1;
nodes = (
"299 447 LINE",
"308 479 LINE",
"124 479 LINE",
"115 447 LINE"
);
},
{
closed = 1;
nodes = (
"693 237 LINE",
"702 268 LINE",
"501 268 LINE",
"493 237 LINE"
);
},
{
closed = 1;
nodes = (
"532 447 LINE",
"541 479 LINE",
"329 479 LINE",
"321 447 LINE"
);
},
{
closed = 1;
nodes = (
"753 447 LINE",
"762 479 LINE",
"561 479 LINE",
"554 447 LINE"
);
}
);
width = 707;
}
);
unicode = 0023;
},
{
color = 6;
glyphname = slash;
layers = (
{
layerId = "9372F035-DA38-4B54-966C-CEBA9B53DD02";
paths = (
{
closed = 1;
nodes = (
"-94 -135 LINE",
"480 834 LINE",
"445 834 LINE",
"-129 -135 LINE"
);
}
);
width = 257;
}
);
unicode = 002F;
},
{
color = 6;
glyphname = hyphen;
layers = (
{
backgroundImage = {
imagePath = "../../../../1878 Limprimerie Berger Levrault Notice historique/Romain/JACOB-notice-187513.jpg";
locked = "1";
transform = "{2.7, 0, 0, 2.7, -3119, -3990}";
};
layerId = "9372F035-DA38-4B54-966C-CEBA9B53DD02";
paths = (
{
closed = 1;
nodes = (
"320 196 LINE",
"332 232 LINE",
"65 232 LINE",
"53 196 LINE"
);
}
);
width = 388;
}
);
leftKerningGroup = hyphen;
rightKerningGroup = hyphen;
unicode = 002D;
},
{
color = 6;
glyphname = endash;
layers = (
{
layerId = "9372F035-DA38-4B54-966C-CEBA9B53DD02";
paths = (
{
closed = 1;
nodes = (
"465 196 LINE",
"478 232 LINE",
"24 232 LINE",
"11 196 LINE"
);
}
);
width = 494;
}
);
leftKerningGroup = hyphen;
rightKerningGroup = hyphen;
unicode = 2013;
},
{
color = 6;
glyphname = emdash;
layers = (
{
layerId = "9372F035-DA38-4B54-966C-CEBA9B53DD02";
paths = (
{
closed = 1;
nodes = (
"709 196 LINE",
"725 232 LINE",
"30 232 LINE",
"14 196 LINE"
);
}
);
width = 736;
}
);
leftKerningGroup = hyphen;
rightKerningGroup = hyphen;
unicode = 2014;
},
{
color = 6;
glyphname = parenleft;
layers = (
{
layerId = "9372F035-DA38-4B54-966C-CEBA9B53DD02";
paths = (
{
closed = 1;
nodes = (
"455 784 LINE",
"297 669 OFFCURVE",
"42 382 OFFCURVE",
"42 109 CURVE SMOOTH",
"42 7 OFFCURVE",
"97 -106 OFFCURVE",
"128 -142 CURVE",
"151 -142 LINE",
"139 -106 OFFCURVE",
"109 -23 OFFCURVE",
"109 89 CURVE SMOOTH",
"109 355 OFFCURVE",
"294 629 OFFCURVE",
"497 784 CURVE"
);
}
);
width = 337;
}
);
leftKerningGroup = parent;
rightKerningGroup = parent;
unicode = 0028;
},
{
color = 6;
glyphname = parenright;
layers = (
{
layerId = "9372F035-DA38-4B54-966C-CEBA9B53DD02";
paths = (
{
closed = 1;
nodes = (
"-56 -142 LINE",
"102 -27 OFFCURVE",
"357 260 OFFCURVE",
"357 533 CURVE SMOOTH",
"357 635 OFFCURVE",
"302 748 OFFCURVE",
"271 784 CURVE",
"248 784 LINE",
"260 748 OFFCURVE",
"290 665 OFFCURVE",
"290 553 CURVE SMOOTH",
"290 287 OFFCURVE",
"105 13 OFFCURVE",
"-98 -142 CURVE"
);
}
);
width = 337;
}
);
leftKerningGroup = parent;
rightKerningGroup = parent;
unicode = 0029;
},
{
color = 6;
glyphname = braceleft;
layers = (
{
layerId = "9372F035-DA38-4B54-966C-CEBA9B53DD02";
paths = (
{
closed = 1;
nodes = (
"206 -124 LINE",
"153 -124 OFFCURVE",
"120 -87 OFFCURVE",
"120 -49 CURVE SMOOTH",
"120 32 OFFCURVE",
"220 99 OFFCURVE",
"220 216 CURVE SMOOTH",
"220 273 OFFCURVE",
"188 318 OFFCURVE",
"134 318 CURVE",
"136 324 LINE",
"208 324 OFFCURVE",
"299 403 OFFCURVE",
"328 483 CURVE SMOOTH",
"353 552 OFFCURVE",
"356 608 OFFCURVE",
"376 667 CURVE SMOOTH",
"393 718 OFFCURVE",
"466 766 OFFCURVE",
"527 766 CURVE",
"532 784 LINE",
"427 784 OFFCURVE",
"309 680 OFFCURVE",
"280 601 CURVE SMOOTH",
"258 540 OFFCURVE",
"269 501 OFFCURVE",
"246 438 CURVE SMOOTH",
"226 383 OFFCURVE",
"153 331 OFFCURVE",
"91 331 CURVE",
"83 311 LINE",
"133 311 OFFCURVE",
"166 277 OFFCURVE",
"166 235 CURVE SMOOTH",
"166 163 OFFCURVE",
"67 83 OFFCURVE",
"67 -10 CURVE SMOOTH",
"67 -76 OFFCURVE",
"111 -142 OFFCURVE",
"198 -142 CURVE"
);
}
);
width = 376;
}
);
leftKerningGroup = parent;
leftMetricsKey = parenleft;
rightKerningGroup = parent;
rightMetricsKey = parenleft;
unicode = 007B;
},
{
color = 6;
glyphname = braceright;
layers = (
{
layerId = "9372F035-DA38-4B54-966C-CEBA9B53DD02";
paths = (
{
closed = 1;
nodes = (
"233 766 LINE",
"286 766 OFFCURVE",
"319 729 OFFCURVE",
"319 691 CURVE SMOOTH",
"319 610 OFFCURVE",
"219 543 OFFCURVE",
"219 426 CURVE SMOOTH",
"219 369 OFFCURVE",
"251 324 OFFCURVE",
"305 324 CURVE",
"303 318 LINE",
"231 318 OFFCURVE",
"140 239 OFFCURVE",
"111 159 CURVE SMOOTH",
"86 90 OFFCURVE",
"83 34 OFFCURVE",
"63 -25 CURVE SMOOTH",
"46 -76 OFFCURVE",
"-27 -124 OFFCURVE",
"-88 -124 CURVE",
"-93 -142 LINE",
"12 -142 OFFCURVE",
"130 -38 OFFCURVE",
"159 41 CURVE SMOOTH",
"181 102 OFFCURVE",
"170 141 OFFCURVE",
"193 204 CURVE SMOOTH",
"213 259 OFFCURVE",
"286 311 OFFCURVE",
"348 311 CURVE",
"356 331 LINE",
"306 331 OFFCURVE",
"273 365 OFFCURVE",
"273 407 CURVE SMOOTH",
"273 479 OFFCURVE",
"372 559 OFFCURVE",
"372 652 CURVE SMOOTH",
"372 718 OFFCURVE",
"328 784 OFFCURVE",
"241 784 CURVE"
);
}
);
width = 378;
}
);
leftKerningGroup = parent;
leftMetricsKey = parenright;
rightKerningGroup = parent;
rightMetricsKey = parenright;
unicode = 007D;
},
{
color = 6;
glyphname = bracketleft;
layers = (
{
guideLines = (
{
position = "{-1753, -192}";
}
);
layerId = "9372F035-DA38-4B54-966C-CEBA9B53DD02";
paths = (
{
closed = 1;
nodes = (
"111 -119 LINE",
"121 -90 LINE",
"48 -83 OFFCURVE",
"11 -78 OFFCURVE",
"-4 -54 CURVE",
"276 718 LINE",
"310 744 OFFCURVE",
"351 750 OFFCURVE",
"428 754 CURVE",
"439 784 LINE",
"255 784 LINE",
"-73 -119 LINE"
);
}
);
width = 279;
}
);
leftKerningGroup = parent;
leftMetricsKey = parenleft;
rightKerningGroup = parent;
rightMetricsKey = parenleft;
unicode = 005B;
},
{
color = 6;
glyphname = bracketright;
layers = (
{
layerId = "9372F035-DA38-4B54-966C-CEBA9B53DD02";
paths = (
{
closed = 1;
nodes = (
"240 785 LINE",
"230 756 LINE",
"303 749 OFFCURVE",
"340 744 OFFCURVE",
"355 720 CURVE",
"75 -52 LINE",
"41 -78 OFFCURVE",
"0 -84 OFFCURVE",
"-77 -88 CURVE",
"-88 -118 LINE",
"96 -118 LINE",
"424 785 LINE"
);
}
);
width = 281;
}
);
leftKerningGroup = parent;
leftMetricsKey = parenright;
rightKerningGroup = parent;
rightMetricsKey = parenright;
unicode = 005D;
},
{
color = 6;
glyphname = quoteright;
layers = (
{
layerId = "9372F035-DA38-4B54-966C-CEBA9B53DD02";
paths = (
{
closed = 1;
nodes = (
"208 475 OFFCURVE",
"267 501 OFFCURVE",
"303 576 CURVE SMOOTH",
"313 597 OFFCURVE",
"319 618 OFFCURVE",
"319 638 CURVE SMOOTH",
"319 683 OFFCURVE",
"295 718 OFFCURVE",
"249 718 CURVE SMOOTH",
"212 718 OFFCURVE",
"184 691 OFFCURVE",
"184 652 CURVE SMOOTH",
"184 621 OFFCURVE",
"207 597 OFFCURVE",
"240 597 CURVE SMOOTH",
"260 597 OFFCURVE",
"273 607 OFFCURVE",
"280 623 CURVE SMOOTH",
"283 630 OFFCURVE",
"284 634 OFFCURVE",
"288 634 CURVE SMOOTH",
"290 634 OFFCURVE",
"294 633 OFFCURVE",
"294 624 CURVE SMOOTH",
"294 615 OFFCURVE",
"289 597 OFFCURVE",
"282 584 CURVE SMOOTH",
"251 526 OFFCURVE",
"195 499 OFFCURVE",
"138 495 CURVE",
"141 467 LINE"
);
}
);
width = 234;
}
);
leftKerningGroup = quote;
rightKerningGroup = quote;
rightMetricsKey = period;
unicode = 2019;
},
{
color = 6;
glyphname = guilsinglleft;
layers = (
{
layerId = "9372F035-DA38-4B54-966C-CEBA9B53DD02";
paths = (
{
closed = 1;
nodes = (
"168 69 LINE",
"127 91 OFFCURVE",
"110 126 OFFCURVE",
"110 170 CURVE SMOOTH",
"110 252 OFFCURVE",
"183 339 OFFCURVE",
"258 374 CURVE",
"249 399 LINE",
"163 375 OFFCURVE",
"56 285 OFFCURVE",
"56 179 CURVE SMOOTH",
"56 123 OFFCURVE",
"89 64 OFFCURVE",
"159 44 CURVE"
);
}
);
width = 273;
}
);
leftKerningGroup = guillemets;
rightKerningGroup = guillemets;
unicode = 2039;
},
{
color = 6;
glyphname = quotesingle;
layers = (
{
layerId = "9372F035-DA38-4B54-966C-CEBA9B53DD02";
paths = (
{
closed = 1;
nodes = (
"282 648 LINE SMOOTH",
"289 663 OFFCURVE",
"292 678 OFFCURVE",
"292 690 CURVE SMOOTH",
"292 708 OFFCURVE",
"285 720 OFFCURVE",
"268 720 CURVE SMOOTH",
"241 720 OFFCURVE",
"227 691 OFFCURVE",
"220 648 CURVE SMOOTH",
"199 511 LINE",
"222 507 LINE"
);
}
);
width = 187;
}
);
leftKerningGroup = quote;
leftMetricsKey = period;
rightKerningGroup = quote;
rightMetricsKey = period;
unicode = 0027;
},
{
color = 6;
glyphname = quotedblright.case;
layers = (
{
layerId = "9372F035-DA38-4B54-966C-CEBA9B53DD02";
paths = (
{
closed = 1;
nodes = (
"479 154 OFFCURVE",
"567 184 OFFCURVE",
"600 288 CURVE SMOOTH",
"608 313 OFFCURVE",
"610 336 OFFCURVE",
"610 349 CURVE SMOOTH",
"610 423 OFFCURVE",
"572 471 OFFCURVE",
"513 471 CURVE SMOOTH",
"462 471 OFFCURVE",
"427 433 OFFCURVE",
"427 383 CURVE SMOOTH",
"427 339 OFFCURVE",
"455 307 OFFCURVE",
"497 307 CURVE SMOOTH",
"539 307 OFFCURVE",
"568 332 OFFCURVE",
"568 373 CURVE SMOOTH",
"568 383 OFFCURVE",
"571 385 OFFCURVE",
"574 385 CURVE SMOOTH",
"579 385 OFFCURVE",
"579 377 OFFCURVE",
"579 365 CURVE SMOOTH",
"579 347 OFFCURVE",
"577 318 OFFCURVE",
"568 294 CURVE SMOOTH",
"539 214 OFFCURVE",
"460 177 OFFCURVE",
"384 163 CURVE",
"389 133 LINE"
);
},
{
closed = 1;
nodes = (
"168 154 OFFCURVE",
"256 184 OFFCURVE",
"289 288 CURVE SMOOTH",
"297 313 OFFCURVE",
"299 336 OFFCURVE",
"299 349 CURVE SMOOTH",
"299 423 OFFCURVE",
"261 471 OFFCURVE",
"202 471 CURVE SMOOTH",
"151 471 OFFCURVE",
"116 433 OFFCURVE",
"116 383 CURVE SMOOTH",
"116 339 OFFCURVE",
"144 307 OFFCURVE",
"186 307 CURVE SMOOTH",
"228 307 OFFCURVE",
"257 332 OFFCURVE",
"257 373 CURVE SMOOTH",
"257 383 OFFCURVE",
"260 385 OFFCURVE",
"263 385 CURVE SMOOTH",
"268 385 OFFCURVE",
"268 377 OFFCURVE",
"268 365 CURVE SMOOTH",
"268 347 OFFCURVE",
"266 318 OFFCURVE",
"257 294 CURVE SMOOTH",
"228 214 OFFCURVE",
"149 177 OFFCURVE",
"73 163 CURVE",
"78 133 LINE"
);
}
);
width = 635;
}
);
leftKerningGroup = hyphen;
leftMetricsKey = guilsinglright;
rightKerningGroup = hyphen;
rightMetricsKey = guilsinglright;
},
{
color = 6;
glyphname = at;
layers = (
{
layerId = "9372F035-DA38-4B54-966C-CEBA9B53DD02";
paths = (
{
closed = 1;
nodes = (
"490 -139 OFFCURVE",
"567 -122 OFFCURVE",
"617 -97 CURVE",
"606 -72 LINE",
"557 -92 OFFCURVE",
"488 -107 OFFCURVE",
"424 -107 CURVE SMOOTH",
"226 -107 OFFCURVE",
"116 28 OFFCURVE",
"116 203 CURVE SMOOTH",
"116 442 OFFCURVE",
"298 584 OFFCURVE",
"486 584 CURVE SMOOTH",
"658 584 OFFCURVE",
"768 483 OFFCURVE",
"768 323 CURVE SMOOTH",
"768 184 OFFCURVE",
"670 88 OFFCURVE",
"588 88 CURVE SMOOTH",
"563 88 OFFCURVE",
"549 104 OFFCURVE",
"549 131 CURVE SMOOTH",
"549 143 OFFCURVE",
"551 157 OFFCURVE",
"557 172 CURVE SMOOTH",
"653 427 LINE",
"588 427 LINE",
"563 364 LINE",
"559 414 OFFCURVE",
"531 438 OFFCURVE",
"489 438 CURVE SMOOTH",
"385 438 OFFCURVE",
"239 323 OFFCURVE",
"239 187 CURVE SMOOTH",
"239 126 OFFCURVE",
"273 59 OFFCURVE",
"352 59 CURVE SMOOTH",
"403 59 OFFCURVE",
"444 92 OFFCURVE",
"476 137 CURVE",
"475 131 OFFCURVE",
"474 125 OFFCURVE",
"474 120 CURVE SMOOTH",
"474 84 OFFCURVE",
"499 59 OFFCURVE",
"562 59 CURVE SMOOTH",
"717 59 OFFCURVE",
"798 184 OFFCURVE",
"798 323 CURVE SMOOTH",
"798 505 OFFCURVE",
"668 614 OFFCURVE",
"487 614 CURVE SMOOTH",
"260 614 OFFCURVE",
"60 455 OFFCURVE",
"60 205 CURVE SMOOTH",
"60 -10 OFFCURVE",
"210 -139 OFFCURVE",
"416 -139 CURVE SMOOTH"
);
},
{
closed = 1;
nodes = (
"322 84 OFFCURVE",
"311 119 OFFCURVE",
"311 157 CURVE SMOOTH",
"311 286 OFFCURVE",
"401 413 OFFCURVE",
"489 413 CURVE SMOOTH",
"524 413 OFFCURVE",
"540 385 OFFCURVE",
"540 347 CURVE SMOOTH",
"540 319 OFFCURVE",
"532 287 OFFCURVE",
"518 254 CURVE SMOOTH",
"487 181 OFFCURVE",
"423 84 OFFCURVE",
"363 84 CURVE SMOOTH"
);
}
);
width = 843;
}
);
unicode = 0040;
},
{
color = 6;
glyphname = ampersand;
layers = (
{
layerId = "9372F035-DA38-4B54-966C-CEBA9B53DD02";
paths = (
{
closed = 1;
nodes = (
"715 -14 OFFCURVE",
"771 16 OFFCURVE",
"833 103 CURVE",
"815 117 LINE",
"777 67 OFFCURVE",
"751 44 OFFCURVE",
"710 44 CURVE SMOOTH",
"592 44 OFFCURVE",
"510 170 OFFCURVE",
"439 300 CURVE SMOOTH",
"391 385 OFFCURVE",
"348 473 OFFCURVE",
"348 530 CURVE SMOOTH",
"348 620 OFFCURVE",
"399 692 OFFCURVE",
"479 692 CURVE SMOOTH",
"516 692 OFFCURVE",
"543 669 OFFCURVE",
"543 639 CURVE SMOOTH",
"543 567 OFFCURVE",
"454 500 OFFCURVE",
"357 454 CURVE",
"368 430 LINE",
"442 467 OFFCURVE",
"574 545 OFFCURVE",
"574 639 CURVE SMOOTH",
"574 681 OFFCURVE",
"533 724 OFFCURVE",
"462 724 CURVE SMOOTH",
"350 724 OFFCURVE",
"257 642 OFFCURVE",
"257 524 CURVE SMOOTH",
"257 440 OFFCURVE",
"303 347 OFFCURVE",
"367 250 CURVE SMOOTH",
"478 65 OFFCURVE",
"542 -14 OFFCURVE",
"642 -14 CURVE SMOOTH"
);
},
{
closed = 1;
nodes = (
"346 -14 OFFCURVE",
"418 47 OFFCURVE",
"540 250 CURVE SMOOTH",
"588 330 OFFCURVE",
"633 384 OFFCURVE",
"677 384 CURVE SMOOTH",
"703 384 OFFCURVE",
"699 364 OFFCURVE",
"699 328 CURVE SMOOTH",
"699 298 OFFCURVE",
"715 278 OFFCURVE",
"740 278 CURVE SMOOTH",
"777 278 OFFCURVE",
"795 310 OFFCURVE",
"795 340 CURVE SMOOTH",
"795 366 OFFCURVE",
"781 415 OFFCURVE",
"703 415 CURVE SMOOTH",
"623 415 OFFCURVE",
"572 356 OFFCURVE",
"520 270 CURVE SMOOTH",
"412 91 OFFCURVE",
"350 18 OFFCURVE",
"252 18 CURVE SMOOTH",
"169 18 OFFCURVE",
"123 82 OFFCURVE",
"123 170 CURVE SMOOTH",
"123 278 OFFCURVE",
"183 352 OFFCURVE",
"303 410 CURVE",
"295 433 LINE",
"174 387 OFFCURVE",
"33 312 OFFCURVE",
"33 162 CURVE SMOOTH",
"33 33 OFFCURVE",
"136 -14 OFFCURVE",
"227 -14 CURVE SMOOTH"
);
}
);
width = 793;
}
);
unicode = 0026;
},
{
color = 6;
glyphname = paragraph;
layers = (
{
layerId = "9372F035-DA38-4B54-966C-CEBA9B53DD02";
paths = (
{
closed = 1;
nodes = (
"189 -186 LINE",
"472 676 LINE",
"562 676 LINE",
"279 -186 LINE",
"320 -186 LINE",
"583 607 LINE SMOOTH",
"606 677 OFFCURVE",
"653 683 OFFCURVE",
"716 688 CURVE",
"724 713 LINE",
"510 710 LINE",
"419 712 LINE SMOOTH",
"266 715 OFFCURVE",
"132 597 OFFCURVE",
"132 455 CURVE SMOOTH",
"132 372 OFFCURVE",
"199 329 OFFCURVE",
"316 329 CURVE",
"147 -186 LINE"
);
}
);
width = 574;
}
);
leftMetricsKey = I;
rightMetricsKey = I;
unicode = 00B6;
},
{
color = 6;
glyphname = section;
layers = (
{
layerId = "9372F035-DA38-4B54-966C-CEBA9B53DD02";
paths = (
{
closed = 1;
nodes = (
"238 -294 OFFCURVE",
"351 -230 OFFCURVE",
"351 -116 CURVE SMOOTH",
"351 -54 OFFCURVE",
"322 -13 OFFCURVE",
"275 38 CURVE SMOOTH",
"229 87 LINE",
"373 92 OFFCURVE",
"466 145 OFFCURVE",
"466 244 CURVE SMOOTH",
"466 306 OFFCURVE",
"437 347 OFFCURVE",
"390 398 CURVE SMOOTH",
"359 431 LINE SMOOTH",
"320 472 OFFCURVE",
"296 511 OFFCURVE",
"296 563 CURVE SMOOTH",
"296 638 OFFCURVE",
"339 694 OFFCURVE",
"408 694 CURVE SMOOTH",
"453 694 OFFCURVE",
"485 666 OFFCURVE",
"485 618 CURVE SMOOTH",
"485 577 OFFCURVE",
"502 555 OFFCURVE",
"536 555 CURVE SMOOTH",
"567 555 OFFCURVE",
"584 580 OFFCURVE",
"584 608 CURVE SMOOTH",
"584 677 OFFCURVE",
"513 724 OFFCURVE",
"429 724 CURVE SMOOTH",
"313 724 OFFCURVE",
"212 654 OFFCURVE",
"212 546 CURVE SMOOTH",
"212 488 OFFCURVE",
"239 440 OFFCURVE",
"292 384 CURVE SMOOTH",
"311 364 LINE",
"169 352 OFFCURVE",
"97 268 OFFCURVE",
"97 183 CURVE SMOOTH",
"97 128 OFFCURVE",
"124 80 OFFCURVE",
"177 24 CURVE SMOOTH",
"221 -23 LINE SMOOTH",
"250 -54 OFFCURVE",
"265 -95 OFFCURVE",
"265 -131 CURVE SMOOTH",
"265 -213 OFFCURVE",
"188 -262 OFFCURVE",
"115 -262 CURVE SMOOTH",
"67 -262 OFFCURVE",
"38 -254 OFFCURVE",
"38 -191 CURVE SMOOTH",
"38 -150 OFFCURVE",
"20 -125 OFFCURVE",
"-11 -125 CURVE SMOOTH",
"-44 -125 OFFCURVE",
"-61 -150 OFFCURVE",
"-61 -178 CURVE SMOOTH",
"-61 -231 OFFCURVE",
"-5 -294 OFFCURVE",
"121 -294 CURVE SMOOTH"
);
},
{
closed = 1;
nodes = (
"224 117 OFFCURVE",
"181 149 OFFCURVE",
"181 206 CURVE SMOOTH",
"181 273 OFFCURVE",
"225 335 OFFCURVE",
"291 335 CURVE SMOOTH",
"354 335 OFFCURVE",
"380 280 OFFCURVE",
"380 237 CURVE SMOOTH",
"380 168 OFFCURVE",
"332 117 OFFCURVE",
"275 117 CURVE SMOOTH"
);
}
);
width = 529;
}
);
unicode = 00A7;
},
{
color = 6;
glyphname = copyright;
layers = (
{
guideLines = (
{
angle = 90;
position = "{494, 703}";
showMeasurement = 1;
}
);
layerId = "9372F035-DA38-4B54-966C-CEBA9B53DD02";
paths = (
{
closed = 1;
nodes = (
"716 -11 OFFCURVE",
"860 153 OFFCURVE",
"860 357 CURVE SMOOTH",
"860 560 OFFCURVE",
"706 724 OFFCURVE",
"494 724 CURVE SMOOTH",
"279 724 OFFCURVE",
"125 560 OFFCURVE",
"125 357 CURVE SMOOTH",
"125 153 OFFCURVE",
"279 -11 OFFCURVE",
"494 -11 CURVE SMOOTH"
);
},
{
closed = 1;
nodes = (
"558 167 OFFCURVE",
"627 193 OFFCURVE",
"652 272 CURVE",
"628 281 LINE",
"611 228 OFFCURVE",
"565 196 OFFCURVE",
"517 196 CURVE SMOOTH",
"437 196 OFFCURVE",
"387 257 OFFCURVE",
"387 358 CURVE SMOOTH",
"387 448 OFFCURVE",
"432 521 OFFCURVE",
"514 521 CURVE SMOOTH",
"565 521 OFFCURVE",
"612 488 OFFCURVE",
"623 421 CURVE",
"642 421 LINE",
"640 482 LINE",
"642 543 LINE",
"626 543 LINE",
"624 528 OFFCURVE",
"620 523 OFFCURVE",
"612 523 CURVE SMOOTH",
"599 523 OFFCURVE",
"565 550 OFFCURVE",
"502 550 CURVE SMOOTH",
"389 550 OFFCURVE",
"306 468 OFFCURVE",
"306 358 CURVE SMOOTH",
"306 246 OFFCURVE",
"380 167 OFFCURVE",
"502 167 CURVE SMOOTH"
);
},
{
closed = 1;
nodes = (
"303 28 OFFCURVE",
"167 179 OFFCURVE",
"167 357 CURVE SMOOTH",
"167 534 OFFCURVE",
"303 685 OFFCURVE",
"494 685 CURVE SMOOTH",
"682 685 OFFCURVE",
"818 534 OFFCURVE",
"818 357 CURVE SMOOTH",
"818 179 OFFCURVE",
"692 28 OFFCURVE",
"494 28 CURVE SMOOTH"
);
}
);
width = 886;
}
);
leftMetricsKey = O;
rightMetricsKey = O;
unicode = 00A9;
},
{
color = 6;
glyphname = registered;
layers = (
{
anchors = (
{
name = bottom;
position = "{494, 179}";
},
{
name = top;
position = "{494, 539}";
}
);
layerId = "9372F035-DA38-4B54-966C-CEBA9B53DD02";
paths = (
{
closed = 1;
nodes = (
"706 -11 OFFCURVE",
"860 153 OFFCURVE",
"860 357 CURVE SMOOTH",
"860 560 OFFCURVE",
"706 724 OFFCURVE",
"494 724 CURVE SMOOTH",
"279 724 OFFCURVE",
"125 560 OFFCURVE",
"125 357 CURVE SMOOTH",
"125 153 OFFCURVE",
"279 -11 OFFCURVE",
"494 -11 CURVE SMOOTH"
);
},
{
closed = 1;
nodes = (
"303 28 OFFCURVE",
"167 179 OFFCURVE",
"167 357 CURVE SMOOTH",
"167 534 OFFCURVE",
"303 685 OFFCURVE",
"494 685 CURVE SMOOTH",
"682 685 OFFCURVE",
"818 534 OFFCURVE",
"818 357 CURVE SMOOTH",
"818 179 OFFCURVE",
"682 28 OFFCURVE",
"494 28 CURVE SMOOTH"
);
},
{
closed = 1;
nodes = (
"657 173 OFFCURVE",
"679 180 OFFCURVE",
"691 185 CURVE",
"688 204 LINE",
"671 202 LINE SMOOTH",
"653 200 OFFCURVE",
"639 219 OFFCURVE",
"629 268 CURVE",
"621 321 OFFCURVE",
"580 351 OFFCURVE",
"522 355 CURVE",
"581 363 OFFCURVE",
"633 388 OFFCURVE",
"633 451 CURVE SMOOTH",
"633 519 OFFCURVE",
"561 539 OFFCURVE",
"480 539 CURVE SMOOTH",
"402 539 LINE",
"320 541 LINE",
"319 523 LINE",
"330 521 LINE",
"369 517 OFFCURVE",
"379 517 OFFCURVE",
"379 472 CURVE SMOOTH",
"378 247 LINE SMOOTH",
"378 202 OFFCURVE",
"369 201 OFFCURVE",
"330 197 CURVE SMOOTH",
"319 196 LINE",
"319 177 LINE",
"410 179 LINE",
"503 177 LINE",
"503 196 LINE",
"492 197 LINE SMOOTH",
"450 201 OFFCURVE",
"440 202 OFFCURVE",
"440 247 CURVE SMOOTH",
"440 351 LINE",
"450 351 LINE SMOOTH",
"547 349 OFFCURVE",
"562 292 OFFCURVE",
"571 239 CURVE SMOOTH",
"576 202 OFFCURVE",
"595 173 OFFCURVE",
"636 173 CURVE SMOOTH"
);
},
{
closed = 1;
nodes = (
"440 519 LINE",
"481 519 LINE SMOOTH",
"540 519 OFFCURVE",
"560 493 OFFCURVE",
"560 448 CURVE SMOOTH",
"560 397 OFFCURVE",
"538 372 OFFCURVE",
"473 372 CURVE SMOOTH",
"440 372 LINE"
);
}
);
width = 885;
}
);
leftMetricsKey = O;
rightMetricsKey = O;
unicode = 00AE;
},
{
color = 6;
glyphname = trademark;
layers = (
{
layerId = "9372F035-DA38-4B54-966C-CEBA9B53DD02";
paths = (
{
closed = 1;
nodes = (
"583 348 LINE",
"650 346 LINE",
"657 365 LINE",
"646 366 LINE SMOOTH",
"623 368 OFFCURVE",
"613 370 OFFCURVE",
"613 384 CURVE SMOOTH",
"613 390 OFFCURVE",
"615 403 OFFCURVE",
"619 416 CURVE SMOOTH",
"714 707 LINE",
"693 706 LINE",
"733 348 LINE",
"744 348 LINE",
"1037 707 LINE",
"1014 706 LINE",
"919 416 LINE SMOOTH",
"904 371 OFFCURVE",
"896 370 OFFCURVE",
"857 366 CURVE SMOOTH",
"846 365 LINE",
"839 346 LINE",
"921 348 LINE",
"1016 346 LINE",
"1023 365 LINE",
"1012 366 LINE SMOOTH",
"986 368 OFFCURVE",
"974 370 OFFCURVE",
"974 385 CURVE SMOOTH",
"974 391 OFFCURVE",
"976 404 OFFCURVE",
"980 416 CURVE SMOOTH",
"1054 642 LINE SMOOTH",
"1068 685 OFFCURVE",
"1080 688 OFFCURVE",
"1119 691 CURVE SMOOTH",
"1130 692 LINE",
"1134 712 LINE",
"1043 710 LINE",
"1010 710 LINE",
"762 405 LINE",
"791 427 LINE",
"756 710 LINE",
"714 710 LINE",
"635 712 LINE",
"631 693 LINE",
"642 692 LINE SMOOTH",
"664 690 OFFCURVE",
"675 688 OFFCURVE",
"675 675 CURVE SMOOTH",
"675 667 OFFCURVE",
"670 651 OFFCURVE",
"667 642 CURVE SMOOTH",
"593 416 LINE SMOOTH",
"578 371 OFFCURVE",
"570 369 OFFCURVE",
"535 366 CURVE SMOOTH",
"524 365 LINE",
"517 346 LINE"
);
},
{
closed = 1;
nodes = (
"300 348 LINE",
"397 346 LINE",
"404 365 LINE",
"392 366 LINE SMOOTH",
"361 369 OFFCURVE",
"345 371 OFFCURVE",
"345 387 CURVE SMOOTH",
"345 393 OFFCURVE",
"348 405 OFFCURVE",
"352 416 CURVE SMOOTH",
"441 689 LINE",
"378 689 LINE",
"289 416 LINE SMOOTH",
"274 371 OFFCURVE",
"265 370 OFFCURVE",
"218 366 CURVE SMOOTH",
"206 365 LINE",
"199 346 LINE"
);
},
{
closed = 1;
nodes = (
"587 608 LINE",
"593 671 LINE",
"600 712 LINE",
"442 710 LINE",
"390 710 LINE",
"233 712 LINE",
"214 671 LINE",
"181 608 LINE",
"191 606 LINE",
"242 665 OFFCURVE",
"262 687 OFFCURVE",
"307 687 CURVE SMOOTH",
"513 687 LINE SMOOTH",
"560 687 OFFCURVE",
"565 658 OFFCURVE",
"573 605 CURVE"
);
}
);
width = 1000;
}
);
unicode = 2122;
},
{
color = 6;
glyphname = degree;
layers = (
{
layerId = "9372F035-DA38-4B54-966C-CEBA9B53DD02";
paths = (
{
closed = 1;
nodes = (
"361 442 OFFCURVE",
"420 501 OFFCURVE",
"420 574 CURVE SMOOTH",
"420 646 OFFCURVE",
"361 705 OFFCURVE",
"289 705 CURVE SMOOTH",
"216 705 OFFCURVE",
"157 646 OFFCURVE",
"157 574 CURVE SMOOTH",
"157 501 OFFCURVE",
"216 442 OFFCURVE",
"289 442 CURVE SMOOTH"
);
},
{
closed = 1;
nodes = (
"236 479 OFFCURVE",
"194 521 OFFCURVE",
"194 574 CURVE SMOOTH",
"194 626 OFFCURVE",
"236 668 OFFCURVE",
"289 668 CURVE SMOOTH",
"341 668 OFFCURVE",
"383 626 OFFCURVE",
"383 574 CURVE SMOOTH",
"383 521 OFFCURVE",
"341 479 OFFCURVE",
"289 479 CURVE SMOOTH"
);
}
);
width = 320;
}
);
unicode = 00B0;
},
{
color = 6;
glyphname = bar;
layers = (
{
layerId = "9372F035-DA38-4B54-966C-CEBA9B53DD02";
paths = (
{
closed = 1;
nodes = (
"14 -135 LINE",
"328 834 LINE",
"293 834 LINE",
"-21 -135 LINE"
);
}
);
width = 213;
}
);
unicode = 007C;
},
{
color = 6;
glyphname = brokenbar;
layers = (
{
layerId = "9372F035-DA38-4B54-966C-CEBA9B53DD02";
paths = (
{
closed = 1;
nodes = (
"187 400 LINE",
"328 834 LINE",
"293 834 LINE",
"152 400 LINE"
);
},
{
closed = 1;
nodes = (
"14 -135 LINE",
"155 299 LINE",
"120 299 LINE",
"-21 -135 LINE"
);
}
);
width = 213;
}
);
unicode = 00A6;
},
{
color = 6;
glyphname = dagger;
layers = (
{
layerId = "9372F035-DA38-4B54-966C-CEBA9B53DD02";
paths = (
{
closed = 1;
nodes = (
"76 -280 LINE",
"181 10 OFFCURVE",
"260 188 OFFCURVE",
"296 286 CURVE SMOOTH",
"341 413 OFFCURVE",
"326 478 OFFCURVE",
"395 565 CURVE SMOOTH",
"425 603 OFFCURVE",
"454 642 OFFCURVE",
"454 675 CURVE SMOOTH",
"454 694 OFFCURVE",
"444 710 OFFCURVE",
"421 710 CURVE SMOOTH",
"372 710 OFFCURVE",
"343 660 OFFCURVE",
"343 608 CURVE SMOOTH",
"343 595 OFFCURVE",
"344 575 OFFCURVE",
"344 563 CURVE SMOOTH",
"344 478 OFFCURVE",
"286 410 OFFCURVE",
"243 292 CURVE SMOOTH",
"209 198 OFFCURVE",
"161 18 OFFCURVE",
"53 -280 CURVE"
);
},
{
closed = 1;
nodes = (
"225 441 OFFCURVE",
"270 470 OFFCURVE",
"333 470 CURVE",
"334 489 LINE",
"271 489 OFFCURVE",
"225 520 OFFCURVE",
"188 520 CURVE SMOOTH",
"159 520 OFFCURVE",
"138 511 OFFCURVE",
"138 480 CURVE SMOOTH",
"138 455 OFFCURVE",
"158 441 OFFCURVE",
"188 441 CURVE SMOOTH"
);
},
{
closed = 1;
nodes = (
"521 441 OFFCURVE",
"541 455 OFFCURVE",
"541 480 CURVE SMOOTH",
"541 511 OFFCURVE",
"520 520 OFFCURVE",
"491 520 CURVE SMOOTH",
"454 520 OFFCURVE",
"408 489 OFFCURVE",
"345 489 CURVE",
"341 470 LINE",
"403 470 OFFCURVE",
"454 441 OFFCURVE",
"491 441 CURVE SMOOTH"
);
}
);
width = 489;
}
);
unicode = 2020;
},
